<svg id="svg" version="1.1" xmlns="http://www.w3.org/2000/svg" xmlns:xlink="http://www.w3.org/1999/xlink" width="400" height="121.66666666666667" viewBox="0, 0, 400,121.66666666666667"><g id="svgg"><path id="path0" d="M55.364 2.583 C 54.883 2.988,54.794 3.000,52.333 3.000 C 49.835 3.000,49.793 3.006,49.474 3.412 C 49.162 3.808,49.065 3.826,46.950 3.870 C 44.812 3.915,44.749 3.927,44.697 4.292 C 44.647 4.642,44.562 4.667,43.405 4.667 C 42.200 4.667,42.167 4.678,42.167 5.077 C 42.167 5.480,42.139 5.488,40.625 5.535 C 39.219 5.579,39.069 5.616,38.922 5.951 C 38.796 6.239,38.598 6.329,38.005 6.367 C 37.367 6.409,37.242 6.475,37.197 6.792 C 37.150 7.123,37.047 7.167,36.314 7.167 C 35.652 7.167,35.401 7.251,35.068 7.583 C 34.839 7.813,34.467 8.000,34.242 8.000 C 33.917 8.000,33.833 8.085,33.833 8.417 C 33.833 8.814,33.788 8.833,32.845 8.833 C 31.896 8.833,31.333 9.086,31.333 9.512 C 31.333 9.597,31.146 9.667,30.917 9.667 C 30.583 9.667,30.500 9.750,30.500 10.083 C 30.500 10.472,30.444 10.500,29.667 10.500 C 28.889 10.500,28.833 10.528,28.833 10.917 C 28.833 11.250,28.750 11.333,28.417 11.333 C 28.083 11.333,28.000 11.417,28.000 11.750 C 28.000 12.139,27.944 12.167,27.167 12.167 C 26.389 12.167,26.333 12.194,26.333 12.583 C 26.333 12.896,26.246 13.000,25.982 13.000 C 25.789 13.000,25.484 13.188,25.304 13.417 C 25.068 13.716,24.815 13.833,24.405 13.833 C 23.906 13.833,23.833 13.887,23.833 14.250 C 23.833 14.583,23.750 14.667,23.417 14.667 C 23.083 14.667,23.000 14.750,23.000 15.083 C 23.000 15.455,22.931 15.500,22.367 15.500 C 21.568 15.500,21.333 15.735,21.333 16.533 L 21.333 17.167 20.500 17.167 C 19.722 17.167,19.667 17.194,19.667 17.583 C 19.667 17.917,19.583 18.000,19.250 18.000 C 18.917 18.000,18.833 18.083,18.833 18.417 C 18.833 18.750,18.750 18.833,18.417 18.833 C 18.083 18.833,18.000 18.917,18.000 19.250 C 18.000 19.583,17.917 19.667,17.583 19.667 C 17.179 19.667,17.167 19.700,17.167 20.833 L 17.167 22.000 17.851 22.000 C 18.382 22.000,18.609 21.907,18.863 21.583 C 19.156 21.211,19.313 21.167,20.334 21.167 C 21.430 21.167,22.000 20.938,22.000 20.498 C 22.000 20.418,22.319 20.329,22.708 20.301 C 23.255 20.262,23.454 20.165,23.581 19.875 C 23.730 19.536,23.861 19.500,24.956 19.500 C 26.136 19.500,26.167 19.490,26.167 19.083 C 26.167 18.676,26.194 18.667,27.417 18.667 C 28.639 18.667,28.667 18.657,28.667 18.250 L 28.667 17.833 30.488 17.833 C 32.281 17.833,32.833 17.675,32.833 17.162 C 32.833 17.081,33.377 16.993,34.042 16.966 C 35.146 16.921,35.255 16.885,35.303 16.546 C 35.354 16.185,35.416 16.174,37.803 16.129 C 40.198 16.084,40.251 16.075,40.303 15.708 C 40.355 15.341,40.403 15.333,42.520 15.333 C 44.613 15.333,44.695 15.320,45.069 14.917 L 45.455 14.500 50.519 14.525 C 53.304 14.539,55.377 14.581,55.125 14.619 C 54.773 14.673,54.667 14.781,54.667 15.085 C 54.667 15.440,54.583 15.487,53.875 15.533 L 53.083 15.583 53.034 16.708 L 52.985 17.833 67.992 17.833 L 83.000 17.833 83.000 18.184 C 83.000 18.377,83.188 18.683,83.417 18.863 C 83.713 19.096,83.833 19.352,83.833 19.748 C 83.833 20.055,83.927 20.343,84.042 20.390 C 84.208 20.457,84.208 20.476,84.042 20.487 C 83.905 20.495,83.833 20.783,83.833 21.324 L 83.833 22.148 83.125 22.199 C 82.578 22.238,82.379 22.336,82.252 22.625 L 82.088 22.999 48.002 23.041 L 13.917 23.083 13.863 23.458 C 13.825 23.730,13.698 23.833,13.405 23.833 C 13.033 23.833,13.000 23.898,13.000 24.627 C 13.000 25.290,12.938 25.448,12.625 25.585 C 11.980 25.869,12.012 27.542,12.667 27.750 C 12.941 27.837,13.000 28.002,13.000 28.678 L 13.000 29.500 13.833 29.500 C 14.611 29.500,14.667 29.528,14.667 29.917 L 14.667 30.333 27.625 30.358 C 34.752 30.372,40.377 30.415,40.125 30.453 C 39.696 30.518,39.667 30.575,39.667 31.344 C 39.667 32.110,39.638 32.167,39.250 32.167 C 38.867 32.167,38.833 32.228,38.833 32.917 C 38.833 33.606,38.867 33.667,39.250 33.667 C 39.583 33.667,39.667 33.750,39.667 34.083 L 39.667 34.500 68.824 34.500 L 97.982 34.500 98.033 35.292 C 98.076 35.967,98.138 36.091,98.458 36.137 C 98.747 36.178,98.833 36.299,98.833 36.667 C 98.833 37.034,98.747 37.156,98.458 37.197 C 98.138 37.242,98.076 37.366,98.033 38.042 L 97.982 38.833 51.324 38.833 L 4.667 38.833 4.667 39.250 C 4.667 39.621,4.598 39.667,4.033 39.667 C 3.238 39.667,3.000 39.902,3.000 40.688 C 3.000 41.206,2.937 41.319,2.625 41.363 C 1.951 41.459,1.989 44.201,2.667 44.417 C 2.850 44.475,3.000 44.662,3.000 44.832 C 3.000 45.002,3.231 45.372,3.513 45.654 L 4.026 46.167 18.513 46.167 L 33.000 46.167 33.000 48.250 L 33.000 50.333 68.000 50.333 L 103.000 50.333 103.000 50.750 C 103.000 51.083,103.083 51.167,103.417 51.167 C 103.750 51.167,103.833 51.250,103.833 51.583 C 103.833 51.917,103.917 52.000,104.250 52.000 C 104.644 52.000,104.667 52.050,104.667 52.917 C 104.667 53.783,104.644 53.833,104.250 53.833 C 103.917 53.833,103.833 53.917,103.833 54.250 C 103.833 54.583,103.750 54.667,103.417 54.667 C 103.083 54.667,103.000 54.750,103.000 55.083 L 103.000 55.500 51.750 55.500 L 0.500 55.500 0.500 55.917 C 0.500 56.176,0.406 56.333,0.250 56.333 C 0.038 56.333,0.000 56.759,0.000 59.167 C 0.000 61.513,0.041 62.000,0.238 62.000 C 0.370 62.000,0.501 62.169,0.530 62.375 L 0.583 62.750 15.952 62.793 L 31.321 62.835 31.369 64.459 L 31.417 66.083 66.792 66.125 L 102.167 66.167 102.167 66.584 C 102.167 66.911,102.251 67.000,102.564 67.000 C 102.826 67.000,102.992 67.118,103.052 67.346 C 103.101 67.536,103.291 67.730,103.472 67.778 C 103.654 67.825,103.841 68.013,103.889 68.194 C 103.936 68.376,104.131 68.565,104.321 68.615 C 104.870 68.759,104.808 69.667,104.250 69.667 C 103.920 69.667,103.833 69.751,103.833 70.072 C 103.833 70.365,103.730 70.492,103.458 70.530 C 103.217 70.564,103.064 70.717,103.030 70.958 L 102.977 71.333 53.471 71.333 L 3.965 71.333 3.637 71.750 C 3.401 72.050,3.149 72.167,2.738 72.167 C 2.240 72.167,2.167 72.220,2.167 72.583 C 2.167 72.917,2.083 73.000,1.750 73.000 L 1.333 73.000 1.333 75.417 L 1.333 77.833 1.750 77.833 C 2.083 77.833,2.167 77.917,2.167 78.250 C 2.167 78.636,2.225 78.667,2.960 78.667 C 3.624 78.667,3.781 78.728,3.919 79.042 L 4.083 79.417 19.375 79.459 L 34.667 79.502 34.667 80.334 C 34.667 81.111,34.695 81.167,35.083 81.167 C 35.472 81.167,35.500 81.222,35.500 82.000 L 35.500 82.833 66.322 82.833 C 96.728 82.833,97.146 82.838,97.247 83.158 C 97.304 83.337,97.497 83.529,97.675 83.586 C 97.880 83.651,98.000 83.839,98.000 84.095 C 98.000 84.416,98.086 84.500,98.417 84.500 C 98.811 84.500,98.833 84.550,98.833 85.417 C 98.833 86.283,98.811 86.333,98.417 86.333 C 98.086 86.333,98.000 86.417,98.000 86.740 C 98.000 87.100,97.918 87.153,97.292 87.199 C 96.745 87.238,96.546 87.335,96.419 87.625 L 96.254 88.000 64.814 88.000 C 36.840 88.000,33.351 87.972,33.163 87.746 C 32.975 87.518,32.923 87.518,32.673 87.745 C 32.430 87.964,30.964 88.003,21.488 88.040 L 10.583 88.083 10.530 88.458 C 10.492 88.730,10.365 88.833,10.072 88.833 L 9.667 88.833 9.667 91.154 L 9.667 93.474 10.179 93.987 C 10.462 94.269,10.837 94.500,11.013 94.500 C 11.244 94.500,11.333 94.617,11.333 94.917 L 11.333 95.333 27.167 95.333 L 43.000 95.333 43.000 95.750 C 43.000 96.083,43.083 96.167,43.417 96.167 C 43.750 96.167,43.833 96.250,43.833 96.583 C 43.833 96.917,43.917 97.000,44.250 97.000 C 44.583 97.000,44.667 97.083,44.667 97.417 C 44.667 97.750,44.750 97.833,45.083 97.833 C 45.417 97.833,45.500 97.917,45.500 98.250 C 45.500 98.580,45.584 98.667,45.905 98.667 C 46.198 98.667,46.325 98.770,46.363 99.042 L 46.417 99.417 64.689 99.459 L 82.962 99.501 83.052 99.846 C 83.101 100.036,83.297 100.232,83.488 100.282 C 83.715 100.341,83.833 100.508,83.833 100.769 C 83.833 101.091,83.921 101.167,84.292 101.169 L 84.750 101.172 84.333 101.381 C 84.004 101.547,83.906 101.739,83.865 102.296 C 83.820 102.917,83.766 103.000,83.407 103.000 C 83.084 103.000,83.000 103.086,83.000 103.417 L 83.000 103.833 68.200 103.833 C 51.638 103.833,53.000 103.711,53.000 105.200 L 53.000 106.167 53.833 106.167 L 54.667 106.167 54.667 106.867 C 54.667 107.411,54.622 107.522,54.467 107.367 C 54.320 107.220,52.868 107.167,48.974 107.167 L 43.682 107.167 43.265 106.750 C 42.876 106.361,42.738 106.333,41.174 106.333 C 40.253 106.333,39.500 106.264,39.500 106.179 C 39.500 105.632,38.969 105.500,36.778 105.500 C 34.657 105.500,34.573 105.487,34.415 105.125 C 34.272 104.801,34.105 104.743,33.178 104.700 C 32.291 104.658,32.040 104.578,31.727 104.241 C 31.372 103.858,31.242 103.833,29.591 103.833 L 27.833 103.833 27.833 103.417 C 27.833 103.028,27.777 103.000,27.008 103.000 C 26.349 103.000,26.097 102.916,25.765 102.583 C 25.394 102.213,25.210 102.167,24.091 102.167 C 22.861 102.167,22.833 102.158,22.833 101.750 C 22.833 101.362,22.777 101.333,22.012 101.333 C 21.286 101.333,21.184 101.289,21.137 100.958 C 21.085 100.597,21.013 100.582,19.125 100.536 L 17.167 100.489 17.167 101.245 C 17.167 101.939,17.200 102.000,17.583 102.000 C 17.917 102.000,18.000 102.083,18.000 102.417 C 18.000 102.750,18.083 102.833,18.417 102.833 C 18.750 102.833,18.833 102.917,18.833 103.250 C 18.833 103.583,18.917 103.667,19.250 103.667 C 19.583 103.667,19.667 103.750,19.667 104.083 C 19.667 104.417,19.750 104.500,20.083 104.500 C 20.417 104.500,20.500 104.583,20.500 104.917 C 20.500 105.250,20.583 105.333,20.917 105.333 C 21.250 105.333,21.333 105.417,21.333 105.750 C 21.333 106.139,21.389 106.167,22.167 106.167 C 22.944 106.167,23.000 106.194,23.000 106.583 C 23.000 106.917,23.083 107.000,23.417 107.000 C 23.750 107.000,23.833 107.083,23.833 107.417 C 23.833 107.750,23.917 107.833,24.250 107.833 C 24.583 107.833,24.667 107.917,24.667 108.250 C 24.667 108.580,24.751 108.667,25.072 108.667 C 25.365 108.667,25.492 108.770,25.530 109.042 C 25.576 109.362,25.699 109.424,26.375 109.467 C 27.090 109.513,27.167 109.558,27.167 109.926 C 27.167 110.238,27.255 110.333,27.544 110.333 C 27.775 110.333,27.985 110.478,28.085 110.708 C 28.212 110.996,28.412 111.095,28.948 111.134 C 29.521 111.176,29.655 111.251,29.698 111.551 C 29.742 111.860,29.872 111.925,30.542 111.967 C 31.256 112.013,31.333 112.058,31.333 112.426 C 31.333 112.804,31.394 112.833,32.167 112.833 C 32.944 112.833,33.000 112.861,33.000 113.250 C 33.000 113.639,33.056 113.667,33.833 113.667 C 34.611 113.667,34.667 113.694,34.667 114.083 C 34.667 114.469,34.725 114.500,35.460 114.500 C 36.124 114.500,36.281 114.562,36.419 114.875 C 36.542 115.156,36.748 115.263,37.242 115.304 C 37.677 115.339,38.028 115.495,38.276 115.762 C 38.613 116.126,38.786 116.167,39.992 116.167 C 41.312 116.167,41.333 116.173,41.333 116.583 C 41.333 116.991,41.361 117.000,42.583 117.000 C 43.806 117.000,43.833 117.009,43.833 117.417 L 43.833 117.833 45.905 117.833 C 47.927 117.833,47.978 117.842,48.030 118.208 C 48.081 118.570,48.153 118.585,50.069 118.631 C 51.937 118.675,52.078 118.702,52.436 119.089 L 52.817 119.500 59.167 119.500 L 65.516 119.500 65.897 119.089 C 66.255 118.702,66.397 118.675,68.264 118.631 C 70.172 118.585,70.252 118.569,70.303 118.213 C 70.353 117.857,70.432 117.842,72.386 117.797 C 74.337 117.752,74.419 117.736,74.469 117.382 C 74.517 117.047,74.628 117.010,75.719 116.965 C 76.817 116.921,76.921 116.885,76.970 116.542 C 77.020 116.191,77.104 116.167,78.262 116.167 C 79.471 116.167,79.500 116.157,79.500 115.750 C 79.500 115.352,79.545 115.333,80.488 115.333 C 81.437 115.333,82.000 115.081,82.000 114.655 C 82.000 114.570,82.375 114.500,82.833 114.500 C 83.611 114.500,83.667 114.472,83.667 114.083 C 83.667 113.694,83.722 113.667,84.500 113.667 C 85.278 113.667,85.333 113.639,85.333 113.250 C 85.333 112.861,85.389 112.833,86.167 112.833 C 86.939 112.833,87.000 112.804,87.000 112.426 C 87.000 112.058,87.077 112.013,87.792 111.967 C 88.467 111.924,88.591 111.862,88.637 111.542 C 88.680 111.238,88.796 111.167,89.250 111.167 C 89.782 111.167,90.333 110.822,90.333 110.488 C 90.333 110.403,90.521 110.333,90.750 110.333 C 91.083 110.333,91.167 110.250,91.167 109.917 C 91.167 109.553,91.240 109.500,91.738 109.500 C 92.280 109.500,92.833 109.157,92.833 108.821 C 92.833 108.736,93.021 108.667,93.250 108.667 C 93.583 108.667,93.667 108.583,93.667 108.250 C 93.667 107.917,93.750 107.833,94.083 107.833 C 94.417 107.833,94.500 107.750,94.500 107.417 C 94.500 107.083,94.583 107.000,94.917 107.000 C 95.248 107.000,95.333 106.916,95.333 106.592 C 95.333 106.225,95.410 106.180,96.125 106.134 C 96.801 106.091,96.924 106.028,96.970 105.708 C 97.008 105.437,97.135 105.333,97.428 105.333 C 97.749 105.333,97.833 105.247,97.833 104.917 C 97.833 104.583,97.917 104.500,98.250 104.500 C 98.583 104.500,98.667 104.417,98.667 104.083 C 98.667 103.750,98.750 103.667,99.083 103.667 C 99.417 103.667,99.500 103.583,99.500 103.250 C 99.500 102.917,99.583 102.833,99.917 102.833 C 100.250 102.833,100.333 102.750,100.333 102.417 C 100.333 102.083,100.417 102.000,100.750 102.000 C 101.083 102.000,101.167 101.917,101.167 101.583 C 101.167 101.250,101.250 101.167,101.583 101.167 C 101.917 101.167,102.000 101.083,102.000 100.750 C 102.000 100.417,102.083 100.333,102.417 100.333 C 102.750 100.333,102.833 100.250,102.833 99.917 C 102.833 99.583,102.917 99.500,103.250 99.500 C 103.639 99.500,103.667 99.444,103.667 98.667 C 103.667 97.885,103.693 97.833,104.091 97.833 C 104.637 97.833,105.333 97.137,105.333 96.591 C 105.333 96.249,105.415 96.167,105.750 96.167 C 106.083 96.167,106.167 96.083,106.167 95.750 C 106.167 95.417,106.250 95.333,106.583 95.333 C 106.972 95.333,107.000 95.278,107.000 94.500 C 107.000 93.722,107.028 93.667,107.417 93.667 C 107.750 93.667,107.833 93.583,107.833 93.250 C 107.833 92.917,107.917 92.833,108.250 92.833 C 108.639 92.833,108.667 92.778,108.667 92.000 C 108.667 91.222,108.694 91.167,109.083 91.167 C 109.413 91.167,109.500 91.083,109.500 90.762 C 109.500 90.468,109.604 90.342,109.875 90.303 C 110.219 90.254,110.254 90.150,110.299 89.042 C 110.346 87.883,110.365 87.833,110.757 87.833 C 111.083 87.833,111.167 87.748,111.167 87.417 C 111.167 87.083,111.250 87.000,111.583 87.000 C 111.991 87.000,112.000 86.972,112.000 85.750 C 112.000 84.528,112.009 84.500,112.417 84.500 C 112.731 84.500,112.833 84.413,112.833 84.144 C 112.833 83.948,113.021 83.614,113.250 83.402 C 113.597 83.080,113.667 82.863,113.667 82.099 C 113.667 81.343,113.740 81.109,114.083 80.765 C 114.416 80.432,114.500 80.182,114.500 79.519 C 114.500 78.786,114.543 78.684,114.875 78.637 C 115.231 78.586,115.252 78.500,115.298 76.960 C 115.341 75.490,115.384 75.298,115.756 74.926 C 116.119 74.563,116.167 74.371,116.167 73.269 C 116.167 72.104,116.191 72.020,116.542 71.970 L 116.917 71.917 116.917 60.917 L 116.917 49.917 116.542 49.752 C 116.202 49.603,116.167 49.473,116.167 48.377 C 116.167 47.201,116.155 47.167,115.755 47.167 L 115.344 47.167 115.297 45.125 C 115.252 43.151,115.238 43.082,114.875 43.030 C 114.544 42.983,114.500 42.880,114.500 42.155 C 114.500 41.390,114.471 41.333,114.083 41.333 C 113.676 41.333,113.667 41.306,113.667 40.083 C 113.667 38.861,113.657 38.833,113.250 38.833 C 112.861 38.833,112.833 38.778,112.833 38.000 C 112.833 37.226,112.804 37.167,112.424 37.167 C 112.031 37.167,112.013 37.117,111.966 35.958 C 111.921 34.850,111.886 34.746,111.542 34.697 C 111.270 34.658,111.167 34.532,111.167 34.238 C 111.167 33.917,111.080 33.833,110.750 33.833 C 110.366 33.833,110.333 33.773,110.333 33.066 C 110.333 32.445,110.253 32.235,109.917 31.970 C 109.617 31.735,109.500 31.482,109.500 31.071 C 109.500 30.576,109.445 30.500,109.092 30.500 C 108.725 30.500,108.680 30.423,108.634 29.708 C 108.591 29.033,108.528 28.909,108.208 28.863 C 107.937 28.825,107.833 28.698,107.833 28.405 C 107.833 28.087,107.746 28.000,107.426 28.000 C 107.066 28.000,107.013 27.918,106.968 27.292 C 106.928 26.745,106.831 26.546,106.542 26.419 C 106.312 26.318,106.167 26.108,106.167 25.877 C 106.167 25.586,106.072 25.500,105.750 25.500 C 105.417 25.500,105.333 25.417,105.333 25.083 C 105.333 24.750,105.250 24.667,104.917 24.667 C 104.583 24.667,104.500 24.583,104.500 24.250 C 104.500 23.919,104.416 23.833,104.092 23.833 C 103.725 23.833,103.680 23.756,103.634 23.042 C 103.592 22.378,103.525 22.242,103.225 22.199 C 103.028 22.171,102.828 21.997,102.779 21.812 C 102.731 21.627,102.536 21.435,102.346 21.385 C 102.118 21.325,102.000 21.159,102.000 20.897 C 102.000 20.585,101.911 20.500,101.583 20.500 C 101.250 20.500,101.167 20.417,101.167 20.083 C 101.167 19.750,101.083 19.667,100.750 19.667 C 100.417 19.667,100.333 19.583,100.333 19.250 C 100.333 18.920,100.249 18.833,99.928 18.833 C 99.635 18.833,99.508 18.730,99.470 18.458 C 99.436 18.217,99.283 18.064,99.042 18.030 C 98.770 17.992,98.667 17.865,98.667 17.572 C 98.667 17.197,98.605 17.167,97.833 17.167 C 97.052 17.167,97.000 17.140,97.000 16.742 C 97.000 16.196,96.304 15.500,95.758 15.500 C 95.416 15.500,95.333 15.419,95.333 15.083 C 95.333 14.750,95.250 14.667,94.917 14.667 C 94.583 14.667,94.500 14.583,94.500 14.250 C 94.500 13.887,94.427 13.833,93.929 13.833 C 93.518 13.833,93.265 13.716,93.030 13.417 C 92.850 13.188,92.544 13.000,92.351 13.000 C 92.088 13.000,92.000 12.896,92.000 12.583 C 92.000 12.194,91.944 12.167,91.167 12.167 C 90.389 12.167,90.333 12.139,90.333 11.750 C 90.333 11.417,90.250 11.333,89.917 11.333 C 89.583 11.333,89.500 11.250,89.500 10.917 C 89.500 10.528,89.444 10.500,88.667 10.500 C 87.889 10.500,87.833 10.472,87.833 10.083 C 87.833 9.762,87.747 9.667,87.456 9.667 C 87.225 9.667,87.015 9.522,86.915 9.292 C 86.779 8.983,86.596 8.908,85.880 8.866 C 85.191 8.827,84.944 8.732,84.690 8.408 C 84.513 8.184,84.211 8.000,84.018 8.000 C 83.825 8.000,83.667 7.930,83.667 7.845 C 83.667 7.421,83.104 7.167,82.166 7.167 C 81.281 7.167,81.185 7.132,81.137 6.792 C 81.092 6.475,80.966 6.409,80.328 6.367 C 79.736 6.329,79.538 6.239,79.411 5.951 C 79.264 5.616,79.114 5.579,77.708 5.535 C 76.194 5.488,76.167 5.480,76.167 5.077 C 76.167 4.678,76.133 4.667,74.928 4.667 C 73.771 4.667,73.686 4.642,73.637 4.292 C 73.585 3.927,73.522 3.915,71.383 3.870 C 69.268 3.826,69.171 3.808,68.859 3.412 C 68.540 3.006,68.498 3.000,66.000 3.000 C 63.539 3.000,63.450 2.988,62.970 2.583 C 62.196 1.932,56.137 1.932,55.364 2.583 M135.500 47.730 C 135.500 48.039,135.386 48.387,135.246 48.503 C 135.018 48.693,135.018 48.744,135.246 48.995 C 135.603 49.390,135.617 53.196,135.262 53.490 C 135.061 53.657,135.099 53.797,135.512 54.409 C 136.153 55.359,136.037 55.333,139.764 55.333 L 143.000 55.333 143.000 57.230 C 143.000 58.726,142.946 59.170,142.746 59.337 C 142.518 59.526,142.518 59.577,142.746 59.829 C 142.964 60.070,143.000 60.984,143.000 66.284 C 143.000 71.615,142.965 72.488,142.746 72.670 C 142.518 72.859,142.518 72.910,142.746 73.162 C 142.886 73.317,143.000 73.681,143.000 73.971 L 143.000 74.500 147.002 74.500 L 151.005 74.500 151.497 73.958 L 151.990 73.417 151.995 64.375 L 152.000 55.333 154.792 55.328 L 157.583 55.324 158.125 54.831 L 158.667 54.338 158.667 50.752 L 158.667 47.167 147.083 47.167 L 135.500 47.167 135.500 47.730 M159.667 60.833 L 159.667 74.500 169.583 74.500 L 179.500 74.500 179.500 70.617 C 179.500 67.819,179.444 66.677,179.300 66.533 C 179.153 66.386,177.719 66.333,173.883 66.333 L 168.667 66.333 168.667 65.419 L 168.667 64.505 173.208 64.461 L 177.750 64.417 177.795 60.792 L 177.840 57.167 177.274 57.167 C 176.962 57.167,176.613 57.052,176.497 56.912 C 176.307 56.685,176.256 56.685,176.005 56.912 C 175.772 57.123,175.124 57.167,172.195 57.167 L 168.667 57.167 168.667 56.253 L 168.667 55.338 173.542 55.294 L 178.417 55.250 178.581 54.875 C 178.682 54.645,178.892 54.500,179.123 54.500 L 179.500 54.500 179.500 51.033 C 179.500 48.559,179.443 47.509,179.300 47.367 C 179.149 47.216,176.719 47.167,169.383 47.167 L 159.667 47.167 159.667 60.833 M181.333 47.572 C 181.333 47.865,181.230 47.992,180.958 48.030 L 180.583 48.083 180.540 55.464 L 180.497 62.845 180.910 63.258 C 181.298 63.647,181.326 63.793,181.370 65.711 C 181.415 67.668,181.431 67.752,181.783 67.802 C 182.092 67.846,182.157 67.977,182.200 68.635 C 182.242 69.300,182.306 69.425,182.625 69.470 C 182.896 69.508,183.000 69.635,183.000 69.928 C 183.000 70.249,183.087 70.333,183.417 70.333 C 183.750 70.333,183.833 70.417,183.833 70.750 C 183.833 71.083,183.917 71.167,184.250 71.167 C 184.583 71.167,184.667 71.250,184.667 71.583 C 184.667 71.917,184.750 72.000,185.083 72.000 C 185.417 72.000,185.500 72.083,185.500 72.417 C 185.500 72.750,185.583 72.833,185.917 72.833 C 186.146 72.833,186.333 72.903,186.333 72.988 C 186.333 73.315,186.880 73.667,187.389 73.667 C 187.781 73.667,187.964 73.765,188.085 74.042 C 188.250 74.417,188.252 74.417,193.047 74.461 L 197.843 74.505 198.263 74.086 C 198.493 73.855,198.866 73.667,199.091 73.667 C 199.416 73.667,199.500 73.581,199.500 73.250 C 199.500 72.861,199.556 72.833,200.333 72.833 C 201.111 72.833,201.167 72.806,201.167 72.417 C 201.167 72.083,201.250 72.000,201.583 72.000 C 201.917 72.000,202.000 71.917,202.000 71.583 C 202.000 71.250,202.083 71.167,202.417 71.167 C 202.750 71.167,202.833 71.083,202.833 70.750 C 202.833 70.417,202.917 70.333,203.250 70.333 C 203.639 70.333,203.667 70.278,203.667 69.500 C 203.667 68.722,203.694 68.667,204.083 68.667 C 204.472 68.667,204.500 68.611,204.500 67.833 C 204.500 67.056,204.528 67.000,204.917 67.000 L 205.333 67.000 205.333 57.083 L 205.333 47.167 201.250 47.167 L 197.167 47.167 197.167 47.544 C 197.167 47.775,197.022 47.985,196.792 48.085 L 196.417 48.250 196.367 56.396 L 196.317 64.542 195.856 65.003 C 195.603 65.256,195.250 65.491,195.073 65.525 C 194.895 65.559,194.727 65.748,194.699 65.945 C 194.600 66.633,191.167 66.591,191.167 65.901 C 191.167 65.586,191.079 65.500,190.757 65.500 C 190.365 65.500,190.346 65.450,190.299 64.292 C 190.254 63.183,190.219 63.079,189.875 63.030 L 189.500 62.977 189.500 55.072 L 189.500 47.167 185.417 47.167 L 181.333 47.167 181.333 47.572 M223.000 47.988 C 223.000 48.714,222.956 48.816,222.625 48.863 C 222.310 48.908,222.242 49.035,222.197 49.658 C 222.160 50.184,222.027 50.508,221.739 50.775 C 221.374 51.113,221.333 51.285,221.333 52.492 C 221.333 53.812,221.327 53.833,220.917 53.833 C 220.528 53.833,220.500 53.889,220.500 54.667 C 220.500 55.444,220.472 55.500,220.083 55.500 C 219.676 55.500,219.667 55.528,219.667 56.750 C 219.667 57.972,219.657 58.000,219.250 58.000 C 218.862 58.000,218.833 58.056,218.833 58.822 C 218.833 59.547,218.789 59.650,218.458 59.697 C 218.116 59.745,218.079 59.851,218.035 60.922 C 217.993 61.946,217.941 62.114,217.618 62.255 C 217.336 62.379,217.238 62.582,217.199 63.127 C 217.164 63.611,217.017 63.968,216.740 64.245 C 216.381 64.604,216.333 64.798,216.333 65.909 C 216.333 67.139,216.324 67.167,215.917 67.167 C 215.528 67.167,215.500 67.222,215.500 68.000 C 215.500 68.778,215.472 68.833,215.083 68.833 C 214.676 68.833,214.667 68.861,214.667 70.083 C 214.667 71.306,214.657 71.333,214.250 71.333 C 213.835 71.333,213.833 71.339,213.833 72.917 L 213.833 74.500 218.333 74.500 L 222.833 74.500 222.833 73.667 C 222.833 72.889,222.861 72.833,223.250 72.833 L 223.667 72.833 223.667 71.167 L 223.667 69.500 226.659 69.500 L 229.651 69.500 229.701 70.625 C 229.744 71.607,229.798 71.771,230.125 71.915 C 230.438 72.052,230.500 72.210,230.500 72.873 C 230.500 73.608,230.531 73.667,230.917 73.667 C 231.250 73.667,231.333 73.750,231.333 74.083 L 231.333 74.500 235.417 74.500 L 239.500 74.500 239.500 74.083 C 239.500 73.731,239.578 73.667,240.000 73.667 C 240.422 73.667,240.500 73.731,240.500 74.083 L 240.500 74.500 244.583 74.500 L 248.667 74.500 248.684 69.042 C 248.694 65.814,248.756 63.820,248.837 64.163 C 248.912 64.481,249.129 64.868,249.320 65.023 C 249.730 65.355,249.764 65.712,249.412 66.003 C 249.193 66.185,249.191 66.251,249.393 66.482 C 249.522 66.630,249.679 66.919,249.742 67.125 C 249.804 67.332,250.001 67.578,250.178 67.673 C 250.363 67.771,250.500 68.020,250.500 68.256 C 250.500 68.583,250.585 68.667,250.917 68.667 C 251.306 68.667,251.333 68.722,251.333 69.500 L 251.333 70.333 254.167 70.333 C 256.999 70.333,257.000 70.333,257.000 69.956 C 257.000 69.725,257.145 69.515,257.375 69.415 C 257.663 69.288,257.762 69.088,257.801 68.552 C 257.842 67.979,257.917 67.845,258.217 67.802 C 258.550 67.755,258.588 67.641,258.632 66.542 C 258.679 65.390,258.700 65.333,259.082 65.333 C 259.446 65.333,259.488 65.254,259.544 64.458 C 259.577 63.977,259.619 66.040,259.636 69.042 L 259.667 74.500 263.905 74.500 C 267.535 74.500,268.180 74.462,268.405 74.238 C 268.638 74.004,268.667 72.573,268.667 60.988 L 268.667 48.000 268.250 48.000 C 267.917 48.000,267.833 47.917,267.833 47.583 L 267.833 47.167 263.333 47.167 C 258.849 47.167,258.833 47.168,258.833 47.523 C 258.833 47.718,258.646 48.052,258.417 48.265 C 258.069 48.587,258.000 48.803,258.000 49.575 C 258.000 50.451,257.978 50.500,257.583 50.500 C 257.194 50.500,257.167 50.556,257.167 51.333 C 257.167 52.111,257.139 52.167,256.750 52.167 C 256.364 52.167,256.333 52.225,256.333 52.960 C 256.333 53.624,256.272 53.781,255.958 53.919 C 255.670 54.045,255.572 54.245,255.533 54.781 C 255.491 55.354,255.416 55.489,255.116 55.531 C 254.786 55.578,254.741 55.708,254.655 56.833 C 254.603 57.521,254.547 57.877,254.530 57.625 C 254.506 57.255,254.419 57.167,254.083 57.167 C 253.699 57.167,253.667 57.107,253.667 56.399 C 253.667 55.779,253.587 55.568,253.250 55.304 C 252.950 55.068,252.833 54.815,252.833 54.405 C 252.833 53.909,252.779 53.833,252.424 53.833 C 252.031 53.833,252.013 53.784,251.966 52.625 C 251.921 51.516,251.886 51.412,251.542 51.363 C 251.293 51.328,251.167 51.196,251.167 50.971 C 251.167 50.784,250.979 50.484,250.750 50.304 C 250.389 50.020,250.333 49.843,250.333 48.988 C 250.333 48.045,250.314 48.000,249.917 48.000 C 249.583 48.000,249.500 47.917,249.500 47.583 L 249.500 47.167 245.000 47.167 L 240.500 47.167 240.500 47.544 C 240.500 47.775,240.355 47.985,240.125 48.086 C 239.771 48.242,239.754 48.326,239.827 49.584 C 240.028 53.071,239.730 73.467,239.507 71.417 C 239.431 70.712,239.359 70.575,239.042 70.530 C 238.691 70.480,238.667 70.396,238.667 69.238 C 238.667 68.029,238.657 68.000,238.250 68.000 C 237.861 68.000,237.833 67.944,237.833 67.167 C 237.833 66.389,237.806 66.333,237.417 66.333 C 237.005 66.333,237.000 66.316,237.000 64.929 C 237.000 63.566,236.804 63.000,236.331 63.000 C 236.251 63.000,236.163 62.681,236.135 62.292 C 236.095 61.749,235.997 61.546,235.715 61.422 C 235.393 61.280,235.340 61.113,235.298 60.088 C 235.254 59.017,235.218 58.912,234.875 58.863 C 234.544 58.816,234.500 58.714,234.500 57.988 C 234.500 57.223,234.471 57.167,234.083 57.167 C 233.676 57.167,233.667 57.139,233.667 55.917 C 233.667 54.694,233.657 54.667,233.250 54.667 C 232.861 54.667,232.833 54.612,232.833 53.826 C 232.833 53.155,232.750 52.902,232.424 52.576 C 232.085 52.236,232.007 51.976,231.966 51.042 C 231.923 50.067,231.868 49.895,231.549 49.755 C 231.261 49.629,231.171 49.431,231.133 48.839 C 231.091 48.200,231.025 48.075,230.708 48.030 C 230.437 47.992,230.333 47.865,230.333 47.572 L 230.333 47.167 226.667 47.167 L 223.000 47.167 223.000 47.988 M271.333 60.833 L 271.333 74.500 281.050 74.500 C 288.385 74.500,290.816 74.451,290.967 74.300 C 291.109 74.157,291.167 73.107,291.167 70.633 L 291.167 67.167 290.750 67.167 C 290.417 67.167,290.333 67.083,290.333 66.750 L 290.333 66.333 285.404 66.333 L 280.474 66.333 279.987 65.846 C 278.796 64.655,279.302 64.500,284.388 64.500 L 288.667 64.500 288.667 60.833 L 288.667 57.167 284.417 57.167 L 280.167 57.167 280.167 56.585 C 280.167 56.183,280.063 55.938,279.833 55.795 C 279.161 55.375,279.599 55.333,284.717 55.333 C 288.552 55.333,289.986 55.280,290.133 55.133 C 290.277 54.989,290.333 53.848,290.333 51.050 L 290.333 47.167 280.833 47.167 L 271.333 47.167 271.333 60.833 M293.000 47.597 C 293.000 47.845,292.840 48.160,292.625 48.334 L 292.250 48.637 292.250 61.027 L 292.250 73.417 292.625 73.581 C 292.855 73.682,293.000 73.892,293.000 74.123 L 293.000 74.500 297.083 74.500 L 301.167 74.500 301.167 70.646 L 301.167 66.792 301.688 66.896 C 301.974 66.953,302.382 67.000,302.595 67.000 C 302.938 67.000,302.987 67.089,303.033 67.792 C 303.076 68.467,303.138 68.591,303.458 68.637 C 303.730 68.675,303.833 68.802,303.833 69.095 C 303.833 69.416,303.920 69.500,304.250 69.500 C 304.639 69.500,304.667 69.556,304.667 70.333 C 304.667 71.111,304.694 71.167,305.083 71.167 C 305.417 71.167,305.500 71.250,305.500 71.583 C 305.500 71.917,305.583 72.000,305.917 72.000 C 306.306 72.000,306.333 72.056,306.333 72.833 C 306.333 73.611,306.361 73.667,306.750 73.667 C 307.083 73.667,307.167 73.750,307.167 74.083 L 307.167 74.500 311.673 74.500 L 316.179 74.500 316.131 72.958 C 316.086 71.503,316.062 71.414,315.708 71.363 C 315.404 71.320,315.333 71.204,315.333 70.750 C 315.333 70.218,314.988 69.667,314.655 69.667 C 314.570 69.667,314.500 69.479,314.500 69.250 C 314.500 68.917,314.417 68.833,314.083 68.833 C 313.694 68.833,313.667 68.778,313.667 68.000 C 313.667 67.222,313.639 67.167,313.250 67.167 C 312.917 67.167,312.833 67.083,312.833 66.750 C 312.833 66.417,312.750 66.333,312.417 66.333 C 312.029 66.333,312.000 66.277,312.000 65.511 C 312.000 64.742,311.970 64.684,311.542 64.619 L 311.083 64.550 311.542 64.525 C 311.909 64.505,312.000 64.420,312.000 64.095 C 312.000 63.802,312.104 63.675,312.375 63.637 C 312.695 63.591,312.757 63.467,312.801 62.792 C 312.847 62.077,312.891 62.000,313.259 62.000 C 313.637 62.000,313.667 61.939,313.667 61.167 C 313.667 60.389,313.694 60.333,314.083 60.333 L 314.500 60.333 314.500 57.083 L 314.500 53.833 314.091 53.833 C 313.698 53.833,313.679 53.784,313.632 52.625 C 313.587 51.516,313.552 51.412,313.208 51.363 C 312.937 51.325,312.833 51.198,312.833 50.905 C 312.833 50.584,312.747 50.500,312.417 50.500 C 312.083 50.500,312.000 50.417,312.000 50.083 C 312.000 49.750,311.917 49.667,311.583 49.667 C 311.250 49.667,311.167 49.583,311.167 49.250 C 311.167 48.917,311.083 48.833,310.750 48.833 C 310.521 48.833,310.333 48.764,310.333 48.679 C 310.333 48.345,309.782 48.000,309.250 48.000 C 308.796 48.000,308.680 47.929,308.637 47.625 L 308.583 47.250 300.792 47.207 L 293.000 47.163 293.000 47.597 M317.278 47.278 C 317.061 47.494,317.149 74.082,317.367 74.300 C 317.512 74.445,318.744 74.500,321.867 74.500 L 326.167 74.500 326.167 60.833 L 326.167 47.167 321.778 47.167 C 319.364 47.167,317.339 47.217,317.278 47.278 M335.904 47.581 C 335.674 47.811,335.301 48.000,335.076 48.000 C 334.751 48.000,334.667 48.085,334.667 48.417 C 334.667 48.806,334.611 48.833,333.833 48.833 C 333.056 48.833,333.000 48.861,333.000 49.250 C 333.000 49.583,332.917 49.667,332.583 49.667 C 332.250 49.667,332.167 49.750,332.167 50.083 C 332.167 50.435,332.089 50.500,331.667 50.500 C 331.025 50.500,330.500 51.025,330.500 51.667 C 330.500 52.089,330.435 52.167,330.083 52.167 C 329.750 52.167,329.667 52.250,329.667 52.583 C 329.667 52.917,329.583 53.000,329.250 53.000 C 328.861 53.000,328.833 53.056,328.833 53.833 C 328.833 54.611,328.806 54.667,328.417 54.667 C 328.005 54.667,328.000 54.684,328.000 56.071 C 328.000 57.375,327.970 57.500,327.579 57.807 L 327.158 58.138 327.204 60.777 C 327.248 63.321,327.263 63.423,327.619 63.579 C 327.958 63.728,327.993 63.872,328.036 65.329 C 328.081 66.832,328.103 66.920,328.458 66.970 C 328.730 67.008,328.833 67.135,328.833 67.428 C 328.833 67.749,328.920 67.833,329.250 67.833 C 329.639 67.833,329.667 67.889,329.667 68.667 C 329.667 69.444,329.694 69.500,330.083 69.500 C 330.417 69.500,330.500 69.583,330.500 69.917 C 330.500 70.250,330.583 70.333,330.917 70.333 C 331.250 70.333,331.333 70.417,331.333 70.750 C 331.333 71.083,331.417 71.167,331.750 71.167 C 332.083 71.167,332.167 71.250,332.167 71.583 C 332.167 71.917,332.250 72.000,332.583 72.000 C 332.917 72.000,333.000 72.083,333.000 72.417 C 333.000 72.806,333.056 72.833,333.833 72.833 C 334.611 72.833,334.667 72.861,334.667 73.250 C 334.667 73.572,334.753 73.667,335.044 73.667 C 335.275 73.667,335.485 73.812,335.585 74.042 L 335.750 74.417 340.417 74.417 C 345.067 74.417,345.084 74.415,345.245 74.049 C 345.371 73.761,345.569 73.671,346.161 73.633 C 346.800 73.591,346.925 73.525,346.970 73.208 C 347.014 72.896,347.127 72.833,347.645 72.833 C 348.432 72.833,348.667 72.596,348.667 71.800 C 348.667 71.178,348.678 71.167,349.300 71.167 C 350.098 71.167,350.333 70.932,350.333 70.133 C 350.333 69.569,350.379 69.500,350.750 69.500 C 351.155 69.500,351.167 69.467,351.167 68.333 C 351.167 67.200,351.155 67.167,350.750 67.167 C 350.417 67.167,350.333 67.083,350.333 66.750 C 350.333 66.420,350.249 66.333,349.928 66.333 C 349.635 66.333,349.508 66.230,349.470 65.958 C 349.424 65.638,349.301 65.576,348.625 65.533 C 347.910 65.487,347.833 65.442,347.833 65.074 C 347.833 64.762,347.745 64.667,347.456 64.667 C 347.225 64.667,347.015 64.522,346.915 64.292 C 346.765 63.950,346.621 63.912,345.292 63.869 L 343.833 63.820 343.833 64.244 C 343.833 64.584,343.752 64.667,343.417 64.667 C 343.087 64.667,343.000 64.751,343.000 65.072 C 343.000 65.365,342.896 65.492,342.625 65.530 C 342.389 65.564,342.231 65.717,342.199 65.943 C 342.100 66.634,338.667 66.600,338.667 65.908 C 338.667 65.584,338.581 65.500,338.250 65.500 C 337.917 65.500,337.833 65.417,337.833 65.083 C 337.833 64.750,337.750 64.667,337.417 64.667 C 337.028 64.667,337.000 64.611,337.000 63.833 C 337.000 63.056,336.972 63.000,336.583 63.000 L 336.167 63.000 336.167 60.833 L 336.167 58.667 336.583 58.667 C 336.971 58.667,337.000 58.610,337.000 57.845 C 337.000 57.176,337.061 57.003,337.325 56.919 C 337.503 56.863,337.696 56.670,337.753 56.491 C 337.818 56.287,338.006 56.167,338.261 56.167 C 338.583 56.167,338.667 56.080,338.667 55.750 L 338.667 55.333 340.405 55.333 C 342.079 55.333,342.145 55.347,342.197 55.707 C 342.227 55.917,342.391 56.107,342.573 56.141 C 343.037 56.230,343.833 57.080,343.833 57.487 C 343.833 58.060,346.192 58.003,346.735 57.417 C 346.948 57.188,347.282 57.000,347.477 57.000 C 347.746 57.000,347.833 56.898,347.833 56.583 C 347.833 56.250,347.917 56.167,348.250 56.167 C 348.581 56.167,348.667 56.083,348.667 55.760 C 348.667 55.400,348.749 55.347,349.375 55.301 C 349.918 55.262,350.121 55.164,350.245 54.882 C 350.334 54.679,350.559 54.492,350.745 54.465 C 351.335 54.381,351.347 52.167,350.758 52.167 C 350.416 52.167,350.333 52.085,350.333 51.750 C 350.333 51.417,350.250 51.333,349.917 51.333 C 349.583 51.333,349.500 51.250,349.500 50.917 C 349.500 50.583,349.417 50.500,349.083 50.500 C 348.750 50.500,348.667 50.417,348.667 50.083 C 348.667 49.750,348.583 49.667,348.250 49.667 C 347.917 49.667,347.833 49.583,347.833 49.250 C 347.833 48.920,347.749 48.833,347.428 48.833 C 347.135 48.833,347.008 48.730,346.970 48.458 C 346.925 48.139,346.800 48.076,346.135 48.033 C 345.477 47.990,345.346 47.925,345.302 47.616 C 345.250 47.251,345.241 47.250,340.787 47.206 L 336.324 47.161 335.904 47.581 M359.667 47.580 C 359.667 47.917,359.584 48.000,359.250 48.000 C 358.862 48.000,358.833 48.056,358.833 48.822 C 358.833 49.547,358.789 49.650,358.458 49.697 C 358.116 49.745,358.079 49.851,358.035 50.922 C 357.993 51.946,357.941 52.114,357.618 52.255 C 357.345 52.375,357.236 52.586,357.196 53.075 C 357.161 53.510,357.005 53.861,356.738 54.109 C 356.374 54.446,356.333 54.619,356.333 55.825 C 356.333 57.145,356.327 57.167,355.917 57.167 C 355.528 57.167,355.500 57.222,355.500 58.000 C 355.500 58.778,355.472 58.833,355.083 58.833 C 354.676 58.833,354.667 58.861,354.667 60.083 C 354.667 61.306,354.657 61.333,354.250 61.333 C 353.862 61.333,353.833 61.390,353.833 62.155 C 353.833 62.880,353.789 62.983,353.458 63.030 C 353.116 63.079,353.079 63.184,353.035 64.255 C 352.993 65.280,352.941 65.447,352.618 65.588 C 352.299 65.729,352.243 65.899,352.201 66.875 C 352.154 67.945,352.131 68.000,351.742 68.000 C 351.344 68.000,351.333 68.034,351.333 69.250 C 351.333 70.472,351.324 70.500,350.917 70.500 C 350.528 70.500,350.500 70.556,350.500 71.333 C 350.500 72.115,350.474 72.167,350.076 72.167 C 349.658 72.167,349.652 72.184,349.701 73.292 L 349.750 74.417 354.208 74.461 L 358.667 74.505 358.667 74.086 C 358.667 73.750,358.749 73.667,359.083 73.667 C 359.491 73.667,359.500 73.639,359.500 72.417 C 359.500 71.194,359.509 71.167,359.917 71.167 C 360.306 71.167,360.333 71.111,360.333 70.333 L 360.333 69.500 363.058 69.500 C 366.413 69.500,366.333 69.450,366.333 71.563 C 366.333 72.899,366.367 73.047,366.750 73.402 C 366.979 73.614,367.167 73.948,367.167 74.144 C 367.167 74.499,367.182 74.500,371.680 74.500 L 376.193 74.500 376.138 73.250 C 376.108 72.562,376.140 71.999,376.208 72.000 C 376.277 72.000,376.333 72.188,376.333 72.417 C 376.333 72.803,376.392 72.833,377.127 72.833 C 377.790 72.833,377.948 72.895,378.085 73.208 C 378.229 73.535,378.393 73.590,379.364 73.632 C 380.369 73.677,380.484 73.718,380.531 74.049 L 380.583 74.417 386.292 74.461 L 392.000 74.504 392.000 74.086 C 392.000 73.694,392.054 73.667,392.833 73.667 C 393.611 73.667,393.667 73.639,393.667 73.250 C 393.667 72.950,393.756 72.833,393.987 72.833 C 394.402 72.833,395.333 71.902,395.333 71.487 C 395.333 71.256,395.450 71.167,395.750 71.167 C 396.083 71.167,396.167 71.083,396.167 70.750 C 396.167 70.417,396.250 70.333,396.583 70.333 L 397.000 70.333 397.000 65.833 L 397.000 61.333 396.583 61.333 C 396.250 61.333,396.167 61.250,396.167 60.917 C 396.167 60.583,396.083 60.500,395.750 60.500 C 395.417 60.500,395.333 60.417,395.333 60.083 C 395.333 59.750,395.250 59.667,394.917 59.667 C 394.583 59.667,394.500 59.583,394.500 59.250 C 394.500 58.861,394.444 58.833,393.667 58.833 C 392.889 58.833,392.833 58.806,392.833 58.417 C 392.833 58.085,392.749 58.000,392.424 58.000 C 392.199 58.000,391.828 57.813,391.598 57.583 C 391.230 57.215,391.041 57.167,389.964 57.167 C 388.860 57.167,388.730 57.131,388.581 56.792 C 388.438 56.464,388.274 56.410,387.292 56.367 C 386.222 56.321,386.167 56.298,386.167 55.909 C 386.167 55.584,386.081 55.500,385.750 55.500 C 385.521 55.500,385.333 55.466,385.333 55.424 C 385.333 55.325,386.195 54.464,386.226 54.532 C 386.533 55.194,386.644 55.251,387.715 55.299 C 388.701 55.343,388.817 55.385,388.864 55.716 C 388.912 56.051,389.024 56.088,390.125 56.132 C 391.284 56.179,391.333 56.198,391.333 56.591 C 391.333 56.986,391.372 57.000,392.500 57.000 C 393.633 57.000,393.667 56.988,393.667 56.583 C 393.667 56.250,393.750 56.167,394.083 56.167 C 394.472 56.167,394.500 56.111,394.500 55.333 C 394.500 54.556,394.528 54.500,394.917 54.500 C 395.306 54.500,395.333 54.444,395.333 53.667 C 395.333 52.889,395.361 52.833,395.750 52.833 C 396.072 52.833,396.167 52.747,396.167 52.456 C 396.167 52.225,396.312 52.015,396.542 51.915 C 396.871 51.770,396.917 51.627,396.917 50.750 L 396.917 49.750 396.379 49.698 C 396.051 49.666,395.716 49.487,395.522 49.240 C 395.267 48.916,395.049 48.833,394.446 48.833 C 393.789 48.833,393.683 48.784,393.637 48.458 C 393.589 48.126,393.474 48.078,392.631 48.034 C 391.852 47.993,391.619 47.909,391.357 47.575 L 391.035 47.167 386.593 47.167 L 382.152 47.167 381.735 47.583 C 381.506 47.813,381.134 48.000,380.909 48.000 C 380.584 48.000,380.500 48.085,380.500 48.417 C 380.500 48.806,380.444 48.833,379.667 48.833 C 378.889 48.833,378.833 48.861,378.833 49.250 C 378.833 49.583,378.750 49.667,378.417 49.667 C 378.087 49.667,378.000 49.751,378.000 50.072 C 378.000 50.365,377.896 50.492,377.625 50.530 C 377.305 50.576,377.243 50.699,377.199 51.375 C 377.153 52.090,377.109 52.167,376.741 52.167 L 376.333 52.167 376.333 56.250 L 376.333 60.333 376.750 60.333 C 377.083 60.333,377.167 60.417,377.167 60.750 C 377.167 61.083,377.250 61.167,377.583 61.167 C 377.919 61.167,378.000 61.249,378.000 61.591 C 378.000 62.132,378.695 62.833,379.231 62.833 C 379.532 62.833,379.658 62.935,379.697 63.208 C 379.742 63.528,379.866 63.591,380.542 63.634 C 381.256 63.680,381.333 63.725,381.333 64.092 C 381.333 64.488,381.369 64.500,382.576 64.500 C 383.679 64.500,383.865 64.547,384.235 64.917 C 384.569 65.251,384.818 65.333,385.492 65.333 C 386.278 65.333,386.333 65.361,386.333 65.750 C 386.333 66.139,386.391 66.168,387.208 66.184 C 387.915 66.197,387.987 66.222,387.583 66.313 C 386.283 66.604,383.667 66.329,383.667 65.901 C 383.667 65.513,383.626 65.500,382.417 65.500 C 381.194 65.500,381.167 65.491,381.167 65.083 C 381.167 64.753,381.083 64.667,380.762 64.667 C 380.468 64.667,380.342 64.563,380.303 64.292 C 380.216 63.679,378.000 63.621,378.000 64.231 C 378.000 64.532,377.899 64.658,377.625 64.697 C 377.305 64.742,377.243 64.866,377.199 65.542 C 377.153 66.256,377.109 66.333,376.741 66.333 C 376.364 66.333,376.333 66.395,376.333 67.155 C 376.333 67.880,376.289 67.983,375.958 68.030 C 375.641 68.075,375.569 68.212,375.493 68.917 C 375.431 69.495,375.380 69.622,375.327 69.333 C 375.276 69.058,375.123 68.899,374.875 68.863 C 374.544 68.816,374.500 68.714,374.500 67.988 C 374.500 67.223,374.471 67.167,374.083 67.167 C 373.676 67.167,373.667 67.139,373.667 65.917 C 373.667 64.694,373.657 64.667,373.250 64.667 C 372.861 64.667,372.833 64.611,372.833 63.833 C 372.833 63.056,372.806 63.000,372.417 63.000 C 372.009 63.000,372.000 62.972,372.000 61.750 C 372.000 60.528,371.991 60.500,371.583 60.500 C 371.186 60.500,371.167 60.455,371.167 59.512 C 371.167 58.569,370.914 58.000,370.495 58.000 C 370.414 58.000,370.326 57.456,370.299 56.792 C 370.254 55.683,370.219 55.579,369.875 55.530 C 369.544 55.483,369.500 55.380,369.500 54.655 C 369.500 53.890,369.471 53.833,369.083 53.833 C 368.676 53.833,368.667 53.806,368.667 52.583 C 368.667 51.361,368.657 51.333,368.250 51.333 C 367.852 51.333,367.833 51.288,367.833 50.345 C 367.833 49.404,367.581 48.833,367.164 48.833 C 367.084 48.833,366.995 48.477,366.967 48.042 L 366.917 47.250 363.292 47.205 L 359.667 47.160 359.667 47.580 M304.747 55.658 C 304.804 55.837,304.997 56.029,305.175 56.086 C 305.697 56.252,305.653 57.955,305.125 58.030 C 304.884 58.064,304.731 58.217,304.697 58.458 C 304.645 58.820,304.581 58.833,302.905 58.833 L 301.167 58.833 301.167 57.083 L 301.167 55.333 302.905 55.333 C 304.483 55.333,304.654 55.364,304.747 55.658 M227.625 61.915 C 227.884 62.028,228.000 62.222,228.000 62.540 C 228.000 63.083,227.828 63.130,227.539 62.667 C 227.424 62.483,227.219 62.333,227.083 62.333 C 226.947 62.333,226.742 62.483,226.628 62.667 C 226.483 62.898,226.241 62.999,225.835 62.998 C 225.255 62.995,225.253 62.993,225.667 62.785 C 226.039 62.597,226.089 62.458,226.132 61.465 C 226.177 60.465,226.218 60.349,226.549 60.302 C 226.859 60.258,226.929 60.120,226.996 59.417 C 227.060 58.734,227.091 58.869,227.162 60.167 C 227.242 61.607,227.284 61.765,227.625 61.915 M363.424 61.340 C 364.205 62.074,363.769 63.000,362.641 63.000 L 362.000 63.000 362.000 62.083 C 362.000 61.217,362.023 61.167,362.417 61.167 C 362.822 61.167,362.834 61.133,362.866 59.875 L 362.900 58.583 362.957 59.769 C 363.005 60.771,363.077 61.014,363.424 61.340 M200.167 85.250 C 200.053 85.388,199.706 85.500,199.396 85.500 L 198.833 85.500 198.833 87.279 C 198.833 88.548,198.768 89.132,198.604 89.320 C 198.201 89.784,198.104 99.770,198.500 100.048 C 198.665 100.164,198.826 100.444,198.858 100.671 C 198.903 100.989,199.031 101.096,199.417 101.139 C 199.692 101.170,200.056 101.320,200.226 101.472 C 200.493 101.712,201.151 101.762,205.059 101.836 C 209.803 101.926,210.075 101.897,210.257 101.292 C 210.320 101.085,210.553 100.722,210.775 100.484 C 211.365 99.853,211.313 96.684,210.708 96.419 C 210.496 96.326,210.333 96.107,210.333 95.914 C 210.333 94.955,209.957 94.802,207.917 94.927 C 206.882 94.991,205.690 94.991,205.268 94.928 L 204.500 94.813 204.500 90.156 L 204.500 85.500 203.937 85.500 C 203.627 85.500,203.281 85.388,203.167 85.250 C 203.015 85.067,202.612 85.000,201.667 85.000 C 200.721 85.000,200.318 85.067,200.167 85.250 M276.000 85.250 C 275.886 85.388,275.539 85.500,275.230 85.500 L 274.667 85.500 274.668 93.292 L 274.669 101.083 275.280 101.500 C 276.277 102.179,278.594 102.212,279.302 101.557 C 279.584 101.297,279.932 100.987,280.074 100.868 C 280.217 100.750,280.333 100.516,280.333 100.347 C 280.333 100.179,280.446 99.947,280.583 99.833 C 280.766 99.682,280.833 99.279,280.833 98.333 C 280.833 97.388,280.766 96.985,280.583 96.833 C 280.370 96.656,280.333 95.804,280.333 91.063 L 280.333 85.500 279.773 85.500 C 279.220 85.500,279.214 85.507,279.311 86.125 C 279.525 87.492,279.427 99.807,279.200 100.033 C 278.955 100.279,275.958 100.346,275.723 100.111 C 275.546 99.935,275.560 86.768,275.738 86.042 L 275.871 85.500 277.123 85.500 C 278.216 85.500,278.348 85.468,278.167 85.250 C 278.030 85.086,277.659 85.000,277.083 85.000 C 276.508 85.000,276.136 85.086,276.000 85.250 M298.500 85.250 C 298.324 85.462,298.362 85.500,298.750 85.500 C 299.138 85.500,299.176 85.462,299.000 85.250 C 298.886 85.112,298.773 85.000,298.750 85.000 C 298.727 85.000,298.614 85.112,298.500 85.250 M317.667 85.250 C 317.487 85.467,317.575 85.500,318.333 85.500 C 319.091 85.500,319.180 85.467,319.000 85.250 C 318.886 85.112,318.586 85.000,318.333 85.000 C 318.081 85.000,317.781 85.112,317.667 85.250 M327.680 85.234 C 327.514 85.434,327.557 85.485,327.933 85.530 C 328.464 85.593,328.504 85.715,328.620 87.655 C 328.726 89.444,328.664 89.500,326.575 89.500 L 325.046 89.500 325.126 89.917 C 325.195 90.279,325.293 90.333,325.876 90.333 C 326.292 90.333,326.619 90.432,326.737 90.594 C 327.085 91.069,328.253 91.097,328.915 90.647 L 329.498 90.250 329.499 87.875 L 329.500 85.500 328.971 85.500 C 328.681 85.500,328.317 85.386,328.162 85.246 C 327.917 85.024,327.856 85.022,327.680 85.234 M342.667 85.250 C 342.553 85.388,342.206 85.500,341.896 85.500 L 341.333 85.500 341.334 93.292 L 341.336 101.083 341.947 101.500 C 342.867 102.127,345.287 102.215,345.856 101.641 C 346.069 101.426,346.395 101.173,346.580 101.078 C 346.909 100.911,346.918 100.741,346.960 93.193 L 347.003 85.479 346.460 85.531 C 345.960 85.579,345.922 85.623,345.989 86.083 C 346.121 86.989,346.086 99.969,345.952 100.104 C 345.749 100.306,342.784 100.372,342.500 100.181 C 342.153 99.947,342.027 87.942,342.356 86.458 L 342.569 85.500 343.805 85.500 C 344.885 85.500,345.015 85.468,344.833 85.250 C 344.697 85.086,344.325 85.000,343.750 85.000 C 343.175 85.000,342.803 85.086,342.667 85.250 M390.167 85.250 C 389.991 85.462,390.029 85.500,390.417 85.500 C 390.804 85.500,390.843 85.462,390.667 85.250 C 390.553 85.112,390.440 85.000,390.417 85.000 C 390.393 85.000,390.281 85.112,390.167 85.250 M203.482 86.000 C 203.519 86.229,203.578 88.646,203.614 91.372 L 203.681 96.326 206.965 96.372 L 210.250 96.417 210.297 98.287 C 210.343 100.114,210.335 100.160,209.964 100.253 C 209.378 100.400,200.046 100.269,199.889 100.111 C 199.718 99.940,199.702 86.200,199.872 85.786 C 200.094 85.244,203.394 85.440,203.482 86.000 M225.500 85.909 C 225.500 86.251,225.419 86.333,225.083 86.333 C 224.750 86.333,224.667 86.417,224.667 86.750 C 224.667 87.113,224.594 87.167,224.095 87.167 C 223.372 87.167,223.000 87.535,223.000 88.250 C 223.000 88.704,222.929 88.820,222.625 88.863 C 222.372 88.899,222.231 89.051,222.192 89.329 C 222.160 89.556,221.999 89.836,221.834 89.952 C 221.618 90.103,221.502 90.487,221.418 91.324 C 221.351 91.989,221.201 92.569,221.067 92.680 C 220.765 92.931,220.766 93.736,221.069 93.988 C 221.198 94.095,221.355 94.573,221.418 95.050 C 221.557 96.113,222.104 96.997,222.625 96.999 C 223.056 97.000,223.120 97.360,222.744 97.671 C 222.436 97.928,223.010 98.667,223.517 98.667 C 223.694 98.667,223.831 98.815,223.863 99.042 C 223.909 99.362,224.033 99.424,224.708 99.467 C 225.371 99.510,225.500 99.572,225.500 99.850 C 225.500 100.210,226.212 100.923,226.750 101.102 C 226.933 101.163,227.248 101.390,227.450 101.606 C 227.767 101.946,227.878 101.974,228.283 101.819 C 228.563 101.711,229.171 101.684,229.802 101.751 C 231.018 101.879,231.997 101.419,231.999 100.718 C 232.000 100.407,232.106 100.345,232.708 100.301 C 233.255 100.262,233.454 100.165,233.581 99.875 C 233.682 99.645,233.892 99.500,234.123 99.500 C 234.414 99.500,234.500 99.405,234.500 99.083 C 234.500 98.750,234.583 98.667,234.917 98.667 C 235.238 98.667,235.333 98.581,235.333 98.290 C 235.333 98.058,235.478 97.849,235.708 97.748 C 235.993 97.623,236.095 97.421,236.133 96.911 C 236.170 96.406,236.273 96.199,236.549 96.078 C 237.168 95.806,237.200 90.685,236.587 90.072 C 236.356 89.841,236.167 89.467,236.167 89.242 C 236.167 88.920,236.081 88.833,235.759 88.833 C 235.391 88.833,235.347 88.756,235.301 88.042 C 235.254 87.306,235.216 87.246,234.768 87.195 C 234.295 87.141,234.287 87.153,234.391 87.778 C 234.449 88.129,234.497 88.505,234.498 88.613 C 234.499 88.722,234.669 88.834,234.875 88.863 C 235.176 88.906,235.260 89.040,235.302 89.542 C 235.346 90.079,235.411 90.167,235.760 90.167 L 236.167 90.167 236.167 92.982 L 236.167 95.797 235.760 95.899 C 235.420 95.985,235.344 96.118,235.301 96.709 C 235.258 97.301,235.188 97.426,234.868 97.471 C 234.599 97.509,234.458 97.668,234.389 98.012 C 234.324 98.340,234.191 98.500,233.983 98.500 C 233.810 98.500,233.563 98.718,233.417 99.000 C 233.195 99.428,233.063 99.500,232.496 99.500 C 231.947 99.500,231.833 99.556,231.833 99.830 C 231.833 100.523,226.795 100.567,226.697 99.875 C 226.663 99.641,226.528 99.500,226.335 99.500 C 225.806 99.500,225.500 99.310,225.500 98.982 C 225.500 98.765,225.382 98.667,225.120 98.667 C 224.492 98.667,224.010 98.207,223.897 97.500 C 223.818 97.006,223.709 96.839,223.438 96.801 C 223.135 96.757,223.076 96.622,223.033 95.875 C 222.987 95.071,222.949 95.000,222.575 95.000 L 222.167 95.000 222.167 93.000 L 222.167 91.000 222.575 91.000 C 222.955 91.000,222.987 90.934,223.033 90.042 C 223.078 89.193,223.126 89.077,223.458 89.030 C 223.690 88.997,223.871 88.825,223.933 88.578 C 223.988 88.358,224.158 88.139,224.310 88.091 C 224.462 88.043,224.661 87.834,224.751 87.627 C 224.842 87.419,225.085 87.226,225.292 87.197 C 225.498 87.167,225.667 87.039,225.667 86.911 C 225.667 86.565,226.219 86.333,227.045 86.333 C 227.702 86.333,227.775 86.294,227.751 85.958 C 227.706 85.336,225.500 85.287,225.500 85.909 M230.833 85.917 C 230.833 86.298,230.895 86.333,231.570 86.333 C 232.521 86.333,232.833 86.461,232.833 86.851 C 232.833 87.110,232.957 87.167,233.526 87.167 C 234.186 87.167,234.206 87.153,233.942 86.862 C 233.791 86.694,233.667 86.469,233.667 86.362 C 233.667 85.826,233.005 85.500,231.917 85.500 C 230.872 85.500,230.833 85.515,230.833 85.917 M251.595 85.762 C 251.451 85.906,251.333 86.088,251.333 86.167 C 251.333 86.246,251.165 86.334,250.958 86.363 C 250.717 86.398,250.564 86.551,250.530 86.792 C 250.492 87.063,250.365 87.167,250.072 87.167 C 249.720 87.167,249.667 87.243,249.667 87.750 C 249.667 88.584,250.418 88.617,250.630 87.792 C 250.740 87.364,250.868 87.238,251.237 87.195 C 251.520 87.162,251.736 87.020,251.784 86.836 C 251.877 86.480,252.304 86.339,253.292 86.336 C 253.936 86.334,254.000 86.295,254.000 85.917 C 254.000 85.397,252.083 85.274,251.595 85.762 M257.333 85.917 C 257.333 86.287,257.403 86.334,257.958 86.336 C 258.906 86.339,259.333 86.500,259.333 86.853 C 259.333 87.044,259.451 87.167,259.633 87.167 C 260.017 87.167,260.333 87.483,260.333 87.867 C 260.333 88.049,260.456 88.167,260.647 88.167 C 261.280 88.167,261.246 89.275,260.611 89.365 C 260.389 89.397,260.230 89.555,260.199 89.776 C 260.168 89.995,259.988 90.175,259.740 90.238 C 259.490 90.300,259.333 90.460,259.333 90.652 C 259.333 91.242,257.535 91.251,257.380 90.662 C 257.339 90.504,257.124 90.291,256.903 90.191 C 256.681 90.090,256.500 89.893,256.500 89.754 C 256.500 89.555,256.284 89.500,255.500 89.500 C 254.623 89.500,254.500 89.540,254.500 89.822 C 254.500 90.029,254.366 90.163,254.125 90.197 C 253.810 90.242,253.742 90.369,253.697 90.994 C 253.646 91.716,253.654 91.730,253.960 91.453 C 254.134 91.295,254.472 91.167,254.712 91.167 C 254.951 91.167,255.193 91.092,255.250 91.000 C 255.307 90.908,255.574 90.833,255.843 90.833 C 256.113 90.833,256.333 90.908,256.333 91.000 C 256.333 91.092,256.540 91.175,256.792 91.186 C 257.153 91.201,257.110 91.232,256.590 91.332 C 256.204 91.406,255.831 91.607,255.694 91.813 C 255.564 92.008,255.282 92.167,255.063 92.167 C 254.691 92.167,254.667 92.226,254.667 93.141 C 254.667 94.113,254.374 94.667,253.862 94.667 C 253.755 94.667,253.667 94.892,253.667 95.167 C 253.667 95.556,253.741 95.667,254.000 95.667 C 254.222 95.667,254.333 95.778,254.333 96.000 C 254.333 96.626,257.063 96.492,257.383 95.850 L 257.625 95.366 256.687 95.250 C 255.462 95.097,255.290 94.707,255.606 92.795 L 255.709 92.174 258.896 92.129 L 262.083 92.083 261.708 91.708 C 261.415 91.415,261.125 91.328,260.375 91.308 C 259.848 91.295,259.623 91.252,259.875 91.214 C 260.230 91.160,260.333 91.053,260.333 90.739 C 260.333 90.399,260.415 90.333,260.833 90.333 C 261.627 90.333,262.000 89.827,262.000 88.750 C 262.000 87.673,261.627 87.167,260.833 87.167 C 260.411 87.167,260.333 87.102,260.333 86.750 C 260.333 86.417,260.250 86.333,259.917 86.333 C 259.583 86.333,259.500 86.250,259.500 85.917 C 259.500 85.515,259.461 85.500,258.417 85.500 C 257.372 85.500,257.333 85.515,257.333 85.917 M294.667 85.917 C 294.667 86.250,294.583 86.333,294.250 86.333 C 293.917 86.333,293.833 86.417,293.833 86.750 C 293.833 87.083,293.750 87.167,293.417 87.167 C 293.023 87.167,293.000 87.217,293.000 88.083 C 293.000 89.396,293.782 89.514,293.866 88.215 C 293.910 87.534,293.972 87.417,294.332 87.333 C 294.566 87.278,294.775 87.092,294.810 86.909 C 294.897 86.450,295.136 86.339,296.042 86.336 C 296.774 86.334,296.833 86.302,296.833 85.917 C 296.833 85.515,296.794 85.500,295.750 85.500 C 294.706 85.500,294.667 85.515,294.667 85.917 M300.459 85.917 C 300.536 86.316,300.589 86.333,301.775 86.333 C 302.805 86.333,303.026 86.382,303.105 86.625 C 303.156 86.785,303.311 87.142,303.447 87.417 C 303.812 88.151,303.684 89.069,303.208 89.137 C 302.973 89.170,302.833 89.305,302.833 89.500 C 302.833 90.403,300.294 90.730,299.919 89.875 C 299.773 89.544,299.633 89.500,298.710 89.500 L 297.667 89.500 297.667 90.016 L 297.667 90.533 298.708 90.442 C 299.281 90.392,299.619 90.390,299.458 90.438 C 298.538 90.712,299.148 91.333,300.337 91.333 C 301.410 91.333,301.522 91.366,301.689 91.733 C 301.798 91.971,302.066 92.171,302.352 92.229 C 302.686 92.295,302.833 92.425,302.833 92.651 C 302.833 92.862,302.965 92.996,303.208 93.030 C 303.474 93.068,303.598 93.214,303.635 93.531 C 303.671 93.845,303.796 93.995,304.052 94.031 C 304.613 94.111,304.621 97.554,304.061 97.634 C 303.818 97.669,303.673 97.841,303.607 98.176 C 303.538 98.518,303.410 98.667,303.182 98.667 C 302.971 98.667,302.838 98.799,302.803 99.042 C 302.766 99.306,302.620 99.432,302.307 99.468 C 301.998 99.504,301.834 99.643,301.762 99.930 L 301.659 100.341 298.454 100.295 C 295.274 100.250,295.250 100.247,295.197 99.875 C 295.149 99.539,295.050 99.500,294.248 99.500 C 293.178 99.500,293.192 99.519,293.060 97.952 L 292.955 96.709 292.227 97.199 C 291.430 97.738,291.324 98.054,291.833 98.372 C 292.036 98.498,292.167 98.761,292.167 99.040 C 292.167 99.420,292.240 99.500,292.583 99.500 C 292.876 99.500,293.000 99.591,293.000 99.804 C 293.000 100.306,293.687 100.781,294.579 100.897 C 295.157 100.971,295.509 101.123,295.745 101.400 C 296.265 102.011,297.096 102.093,297.571 101.581 C 298.014 101.102,298.997 101.011,299.333 101.417 C 299.895 102.094,302.000 101.514,302.000 100.682 C 302.000 100.406,302.104 100.333,302.500 100.333 C 302.797 100.333,303.151 100.181,303.372 99.958 C 303.576 99.752,303.895 99.507,304.080 99.413 C 304.321 99.291,304.431 99.044,304.467 98.548 C 304.509 97.980,304.584 97.845,304.884 97.802 C 305.128 97.767,305.269 97.612,305.308 97.337 C 305.340 97.111,305.509 96.825,305.683 96.703 C 306.089 96.419,306.088 95.823,305.681 95.306 C 305.506 95.083,305.337 94.679,305.306 94.409 C 305.265 94.051,305.150 93.902,304.884 93.865 C 304.584 93.822,304.509 93.687,304.467 93.118 C 304.431 92.622,304.321 92.376,304.080 92.254 C 303.895 92.160,303.576 91.915,303.372 91.708 C 303.157 91.492,302.771 91.322,302.458 91.307 C 302.069 91.288,302.151 91.253,302.750 91.182 L 303.583 91.083 303.634 90.292 C 303.662 89.856,303.750 89.500,303.831 89.500 C 304.294 89.500,304.500 88.933,304.500 87.655 C 304.500 86.363,304.491 86.333,304.091 86.333 C 303.866 86.333,303.494 86.146,303.265 85.917 C 302.896 85.547,302.709 85.500,301.614 85.500 C 300.387 85.500,300.380 85.503,300.459 85.917 M316.333 85.977 C 316.333 86.391,316.386 86.444,316.734 86.377 C 317.372 86.255,317.438 85.500,316.810 85.500 C 316.397 85.500,316.333 85.563,316.333 85.977 M362.278 85.611 C 362.217 85.672,362.167 85.860,362.167 86.028 C 362.167 86.243,362.043 86.333,361.750 86.333 C 361.417 86.333,361.333 86.417,361.333 86.750 C 361.333 87.083,361.250 87.167,360.917 87.167 C 360.583 87.167,360.500 87.250,360.500 87.583 C 360.500 87.917,360.417 88.000,360.083 88.000 C 359.689 88.000,359.667 88.050,359.667 88.917 C 359.667 89.421,359.597 89.833,359.512 89.833 C 358.891 89.833,358.109 91.940,358.583 92.333 C 358.721 92.447,358.833 92.710,358.833 92.917 C 358.833 93.123,358.721 93.386,358.583 93.500 C 358.245 93.780,358.227 96.205,358.561 96.482 C 358.735 96.626,358.839 96.610,358.998 96.419 C 359.403 95.932,359.667 96.123,359.667 96.904 C 359.667 97.721,360.389 98.667,361.013 98.667 C 361.244 98.667,361.333 98.783,361.333 99.083 C 361.333 99.413,361.417 99.500,361.738 99.500 C 362.032 99.500,362.158 99.604,362.197 99.875 C 362.242 100.195,362.366 100.257,363.042 100.301 C 363.733 100.345,363.833 100.398,363.833 100.722 C 363.833 101.707,364.751 102.125,365.545 101.500 C 365.779 101.317,366.071 101.167,366.195 101.167 C 366.318 101.167,366.513 101.317,366.628 101.500 C 366.949 102.014,368.045 101.962,368.445 101.414 C 368.679 101.091,368.952 100.970,369.624 100.891 C 370.635 100.771,371.071 100.419,370.619 100.089 C 370.295 99.852,370.238 99.500,370.523 99.500 C 370.628 99.500,370.804 99.624,370.915 99.776 C 371.102 100.032,371.148 100.030,371.526 99.744 C 372.310 99.153,372.595 98.648,372.276 98.415 C 372.124 98.304,372.000 98.128,372.000 98.023 C 372.000 97.738,372.352 97.795,372.589 98.119 C 372.765 98.360,372.839 98.370,373.065 98.182 C 373.403 97.902,373.413 97.107,373.083 96.833 C 372.946 96.719,372.833 96.458,372.833 96.252 C 372.833 95.591,372.187 94.930,371.843 95.241 C 371.416 95.628,370.886 95.555,370.549 95.063 C 369.568 93.631,368.143 93.292,368.031 94.464 C 367.981 94.980,368.003 95.006,368.416 94.902 C 368.769 94.813,368.871 94.859,368.944 95.138 C 369.020 95.429,369.186 95.492,369.976 95.534 C 370.796 95.577,370.923 95.630,370.968 95.945 C 371.001 96.174,371.205 96.372,371.521 96.482 C 372.158 96.704,372.186 97.712,371.557 97.801 C 371.339 97.832,371.158 98.012,371.096 98.260 C 371.032 98.514,370.874 98.667,370.675 98.667 C 370.472 98.667,370.337 98.802,370.303 99.042 C 370.261 99.342,370.127 99.427,369.635 99.468 C 369.149 99.508,369.010 99.595,368.969 99.884 C 368.887 100.457,364.174 100.456,363.922 99.883 C 363.801 99.608,363.594 99.503,363.095 99.466 C 362.541 99.425,362.414 99.347,362.333 99.000 C 362.273 98.741,362.101 98.564,361.878 98.531 C 361.659 98.500,361.500 98.339,361.469 98.116 C 361.439 97.910,361.273 97.726,361.083 97.691 C 360.635 97.607,360.506 97.368,360.503 96.625 C 360.500 96.070,360.453 96.000,360.083 96.000 L 359.667 96.000 359.667 92.917 L 359.667 89.833 360.083 89.833 C 360.414 89.833,360.500 89.749,360.500 89.428 C 360.500 88.779,360.780 88.220,361.154 88.122 C 361.365 88.066,361.500 87.895,361.500 87.682 C 361.500 87.443,361.606 87.333,361.837 87.333 C 362.031 87.333,362.251 87.163,362.357 86.931 C 362.568 86.467,362.932 86.339,364.042 86.336 C 364.774 86.334,364.833 86.302,364.833 85.917 C 364.833 85.504,362.646 85.243,362.278 85.611 M368.000 85.909 C 368.000 86.293,368.061 86.320,369.035 86.367 C 369.983 86.413,370.078 86.451,370.167 86.833 C 370.227 87.092,370.399 87.270,370.622 87.302 C 370.842 87.334,370.999 87.494,371.031 87.719 C 371.068 87.976,371.218 88.099,371.542 88.136 C 372.207 88.213,372.243 89.333,371.579 89.333 C 371.290 89.333,371.112 89.457,371.009 89.727 C 370.854 90.135,370.525 90.333,370.006 90.333 C 369.841 90.333,369.669 90.473,369.625 90.643 C 369.476 91.211,368.167 91.218,368.167 90.650 C 368.167 90.457,367.998 90.261,367.750 90.167 C 367.521 90.080,367.333 89.894,367.333 89.754 C 367.333 89.555,367.118 89.500,366.333 89.500 C 365.444 89.500,365.333 89.537,365.333 89.833 C 365.333 90.076,365.222 90.167,364.926 90.167 C 364.566 90.167,364.513 90.249,364.468 90.875 C 364.425 91.464,364.353 91.592,364.042 91.637 C 363.689 91.687,363.667 91.768,363.667 93.000 C 363.667 94.232,363.689 94.313,364.042 94.363 C 364.341 94.406,364.427 94.540,364.467 95.025 C 364.504 95.461,364.609 95.656,364.842 95.717 C 365.021 95.764,365.167 95.922,365.167 96.068 C 365.167 96.290,365.398 96.333,366.583 96.333 C 367.983 96.333,368.000 96.328,368.000 95.917 C 368.000 95.557,367.925 95.500,367.457 95.500 C 367.094 95.500,366.844 95.389,366.705 95.167 C 366.591 94.983,366.419 94.833,366.323 94.833 C 365.140 94.833,364.617 92.509,365.574 91.510 C 366.352 90.698,366.938 90.743,367.905 91.690 C 369.004 92.766,370.333 92.633,370.333 91.448 C 370.333 91.282,370.464 91.167,370.654 91.167 C 371.063 91.167,372.000 90.238,372.000 89.832 C 372.000 89.662,372.146 89.476,372.325 89.419 C 372.946 89.222,372.941 88.276,372.318 88.078 C 372.120 88.016,372.000 87.825,372.000 87.572 C 372.000 87.251,371.914 87.167,371.583 87.167 C 371.250 87.167,371.167 87.083,371.167 86.750 C 371.167 86.417,371.083 86.333,370.750 86.333 C 370.417 86.333,370.333 86.250,370.333 85.917 C 370.333 85.512,370.300 85.500,369.167 85.500 C 368.039 85.500,368.000 85.514,368.000 85.909 M386.333 85.917 C 386.333 86.250,386.250 86.333,385.917 86.333 C 385.583 86.333,385.500 86.417,385.500 86.750 C 385.500 87.083,385.417 87.167,385.083 87.167 C 384.694 87.167,384.667 87.222,384.667 88.000 C 384.667 89.178,385.447 89.297,385.532 88.132 C 385.575 87.540,385.648 87.415,386.000 87.333 C 386.263 87.272,386.436 87.101,386.470 86.868 C 386.525 86.489,386.790 86.376,387.818 86.295 C 389.041 86.198,388.688 85.500,387.416 85.500 C 386.372 85.500,386.333 85.515,386.333 85.917 M392.000 85.910 C 392.000 86.305,392.044 86.321,393.290 86.368 C 394.388 86.409,394.588 86.462,394.638 86.723 C 394.671 86.892,394.840 87.173,395.015 87.348 C 395.190 87.523,395.333 87.892,395.333 88.167 C 395.333 88.589,395.398 88.667,395.750 88.667 C 396.155 88.667,396.167 88.633,396.167 87.500 C 396.167 86.372,396.153 86.333,395.758 86.333 C 395.533 86.333,395.161 86.146,394.932 85.917 C 394.299 85.284,392.000 85.279,392.000 85.910 M315.625 87.322 C 314.704 88.270,314.822 89.167,315.867 89.167 L 316.333 89.167 316.333 87.917 C 316.333 87.229,316.315 86.669,316.292 86.672 C 316.269 86.675,315.969 86.968,315.625 87.322 M248.458 89.364 C 248.183 89.658,248.000 90.042,248.000 90.323 C 248.000 90.581,247.886 90.887,247.746 91.003 C 247.518 91.193,247.518 91.244,247.746 91.495 C 247.923 91.691,248.000 92.132,248.000 92.951 C 248.000 93.801,247.930 94.184,247.746 94.337 C 247.518 94.526,247.518 94.577,247.746 94.829 C 247.886 94.983,248.000 95.318,248.000 95.572 C 248.000 95.865,248.150 96.153,248.406 96.355 C 248.654 96.550,248.833 96.885,248.865 97.212 C 248.904 97.623,249.005 97.763,249.292 97.803 C 249.563 97.842,249.667 97.968,249.667 98.262 C 249.667 98.583,249.753 98.667,250.083 98.667 C 250.417 98.667,250.500 98.750,250.500 99.083 C 250.500 99.413,250.584 99.500,250.905 99.500 C 251.198 99.500,251.325 99.604,251.363 99.875 C 251.409 100.195,251.533 100.257,252.208 100.301 C 252.877 100.344,253.000 100.404,253.000 100.691 C 253.000 101.271,253.650 101.654,254.667 101.673 C 255.171 101.682,255.733 101.749,255.917 101.821 C 256.572 102.078,257.689 101.374,257.881 100.583 C 257.936 100.354,257.967 100.409,257.981 100.760 C 258.046 102.494,262.000 102.365,262.000 100.629 L 262.000 100.128 260.748 100.245 C 259.100 100.399,258.167 100.245,258.167 99.819 C 258.167 99.371,257.618 99.412,257.415 99.875 C 257.144 100.492,253.404 100.542,253.172 99.932 C 253.045 99.597,252.884 99.510,252.306 99.468 C 251.706 99.425,251.582 99.353,251.500 99.000 C 251.440 98.741,251.268 98.564,251.045 98.531 C 250.828 98.500,250.667 98.339,250.635 98.122 C 250.603 97.899,250.426 97.727,250.167 97.667 C 249.805 97.583,249.743 97.466,249.699 96.785 C 249.657 96.139,249.592 96.000,249.327 96.000 C 248.642 96.000,248.608 90.219,249.292 89.919 C 249.550 89.805,249.667 89.611,249.667 89.294 C 249.667 88.668,249.077 88.702,248.458 89.364 M394.435 89.507 C 394.323 90.206,394.084 90.327,392.805 90.331 C 391.814 90.334,391.500 90.210,391.500 89.816 C 391.500 89.538,391.368 89.500,390.417 89.500 L 389.333 89.500 389.333 90.016 L 389.333 90.533 390.375 90.442 C 390.948 90.392,391.285 90.390,391.125 90.438 C 390.214 90.709,390.814 91.318,392.042 91.368 C 393.150 91.413,393.254 91.448,393.303 91.792 C 393.337 92.026,393.472 92.167,393.665 92.167 C 394.194 92.167,394.500 92.357,394.500 92.684 C 394.500 92.890,394.617 93.000,394.837 93.000 C 395.078 93.000,395.203 93.141,395.273 93.491 C 395.340 93.825,395.485 93.998,395.727 94.033 C 396.061 94.080,396.086 94.192,396.131 95.792 L 396.178 97.500 395.756 97.500 C 395.450 97.500,395.333 97.589,395.333 97.820 C 395.333 98.360,395.146 98.667,394.816 98.667 C 394.610 98.667,394.500 98.784,394.500 99.004 C 394.500 99.243,394.359 99.370,394.019 99.438 C 393.732 99.495,393.464 99.695,393.356 99.934 L 393.174 100.333 390.004 100.333 L 386.833 100.333 386.833 99.917 C 386.833 99.520,386.787 99.500,385.856 99.500 L 384.879 99.500 384.773 98.727 C 384.551 97.110,384.626 96.500,385.047 96.500 C 385.316 96.500,385.482 96.354,385.616 96.000 C 385.794 95.528,385.855 95.500,386.722 95.500 C 387.227 95.500,387.777 95.455,387.945 95.401 C 388.121 95.344,388.179 95.362,388.083 95.443 C 387.380 96.037,387.788 96.333,389.309 96.333 C 390.132 96.333,390.925 96.379,391.070 96.434 C 391.260 96.508,391.333 96.435,391.333 96.173 C 391.333 95.589,390.935 95.333,390.026 95.333 C 388.985 95.333,388.667 95.214,388.667 94.824 C 388.667 94.567,388.510 94.508,387.708 94.467 C 386.869 94.423,386.744 94.372,386.698 94.053 C 386.663 93.809,386.491 93.655,386.176 93.585 C 385.823 93.508,385.680 93.358,385.607 92.991 C 385.529 92.603,385.420 92.500,385.087 92.500 C 384.296 92.500,384.576 93.926,385.463 94.407 L 385.917 94.653 385.292 94.660 L 384.667 94.667 384.667 95.488 C 384.667 96.214,384.623 96.316,384.292 96.363 C 383.675 96.451,383.617 99.500,384.232 99.500 C 384.532 99.500,384.658 99.602,384.697 99.875 C 384.742 100.196,384.866 100.257,385.554 100.301 C 386.257 100.346,386.446 100.445,387.067 101.093 C 387.888 101.950,388.814 102.126,389.205 101.500 C 389.355 101.260,389.594 101.167,390.055 101.167 C 390.445 101.167,390.864 101.298,391.121 101.500 C 391.796 102.030,393.659 101.634,393.666 100.958 C 393.666 100.890,393.882 100.833,394.146 100.833 C 394.767 100.833,395.105 100.462,394.752 100.168 C 394.385 99.864,394.444 99.531,394.875 99.470 C 395.116 99.436,395.269 99.283,395.303 99.042 C 395.342 98.770,395.468 98.667,395.762 98.667 C 396.081 98.667,396.167 98.580,396.167 98.256 C 396.167 98.016,396.305 97.771,396.498 97.668 C 396.680 97.570,396.875 97.308,396.931 97.085 C 396.987 96.863,397.140 96.592,397.271 96.483 C 397.476 96.312,397.476 96.249,397.265 96.017 C 397.131 95.869,396.998 95.373,396.969 94.915 C 396.927 94.254,396.844 94.051,396.560 93.927 C 396.277 93.802,396.180 93.572,396.095 92.816 C 395.970 91.717,395.709 91.417,395.000 91.558 C 394.725 91.613,394.500 91.590,394.500 91.507 C 394.500 91.424,394.294 91.324,394.042 91.286 C 393.746 91.241,393.854 91.208,394.346 91.192 C 395.283 91.161,396.036 90.542,395.589 90.171 C 395.448 90.055,395.333 89.752,395.333 89.499 C 395.333 88.698,394.563 88.705,394.435 89.507 M384.079 89.400 C 383.647 90.059,383.799 91.900,384.292 91.970 C 384.657 92.022,384.667 91.984,384.667 90.512 C 384.667 88.943,384.538 88.699,384.079 89.400 M292.525 89.586 C 292.037 90.206,292.093 91.426,292.643 92.171 C 292.839 92.436,293.000 92.840,293.000 93.069 C 293.000 93.328,293.229 93.707,293.609 94.075 L 294.218 94.667 293.609 94.667 L 293.000 94.667 293.000 95.583 C 293.000 96.689,293.591 96.949,293.949 96.000 C 294.126 95.531,294.193 95.500,295.027 95.498 C 295.516 95.496,296.104 95.452,296.333 95.400 C 296.570 95.346,296.674 95.365,296.573 95.444 C 295.851 96.013,296.383 96.333,298.047 96.333 L 299.689 96.333 299.636 95.875 C 299.585 95.433,299.542 95.414,298.417 95.333 C 297.363 95.258,297.245 95.214,297.197 94.875 C 297.148 94.534,297.053 94.500,296.155 94.500 C 295.184 94.500,295.083 94.437,295.152 93.884 C 295.166 93.774,294.924 93.636,294.615 93.578 C 294.137 93.489,294.029 93.380,293.901 92.861 C 293.791 92.416,293.650 92.236,293.381 92.198 C 293.035 92.148,293.009 92.050,292.964 90.617 L 292.917 89.090 292.525 89.586 M316.542 89.277 C 316.185 89.421,316.311 90.226,316.739 90.537 C 317.084 90.788,317.159 90.793,317.337 90.579 C 317.694 90.149,318.237 90.306,318.965 91.048 L 319.667 91.763 319.667 95.444 C 319.667 98.541,319.626 99.159,319.412 99.337 C 319.199 99.514,319.194 99.591,319.380 99.816 C 319.502 99.963,319.690 100.290,319.798 100.542 C 319.905 100.794,320.066 101.000,320.156 101.000 C 320.246 101.000,320.499 101.194,320.719 101.431 C 321.101 101.843,321.196 101.861,322.930 101.861 C 325.077 101.861,325.333 101.698,325.333 100.330 C 325.333 99.479,324.887 99.317,324.387 99.987 C 324.138 100.321,321.117 100.350,320.788 100.022 C 320.635 99.868,320.583 98.519,320.583 94.676 L 320.583 89.535 318.917 89.460 C 318.000 89.419,317.137 89.342,317.000 89.289 C 316.862 89.236,316.656 89.231,316.542 89.277 M228.333 89.822 C 228.333 89.999,228.183 90.192,228.000 90.250 C 227.817 90.308,227.667 90.463,227.667 90.595 C 227.667 90.726,227.517 90.833,227.333 90.833 C 227.037 90.833,227.000 90.944,227.000 91.839 C 227.000 92.921,227.515 93.080,227.767 92.076 C 227.979 91.232,228.584 90.970,230.033 91.096 L 231.333 91.210 231.333 90.783 C 231.333 90.468,231.236 90.343,230.958 90.303 C 230.752 90.274,230.509 90.081,230.419 89.875 C 230.187 89.347,228.333 89.300,228.333 89.822 M326.035 91.031 C 325.725 91.342,325.749 99.556,326.061 99.815 C 326.598 100.261,326.674 99.652,326.628 95.243 C 326.584 90.992,326.521 90.546,326.035 91.031 M230.196 91.871 C 229.734 92.333,230.130 93.543,230.613 93.142 C 230.734 93.042,230.833 92.753,230.833 92.500 C 230.833 91.933,230.481 91.586,230.196 91.871 M252.833 93.083 C 252.833 94.306,252.843 94.333,253.250 94.333 C 253.657 94.333,253.667 94.306,253.667 93.083 C 253.667 91.861,253.657 91.833,253.250 91.833 C 252.843 91.833,252.833 91.861,252.833 93.083 M231.333 93.000 C 231.333 93.956,231.352 94.000,231.750 94.000 C 232.148 94.000,232.167 93.956,232.167 93.000 C 232.167 92.044,232.148 92.000,231.750 92.000 C 231.352 92.000,231.333 92.044,231.333 93.000 M227.000 94.655 C 227.000 95.380,227.044 95.483,227.375 95.530 C 227.616 95.564,227.769 95.717,227.803 95.958 C 227.881 96.507,230.667 96.547,230.667 96.000 C 230.667 95.778,230.778 95.667,231.000 95.667 C 231.259 95.667,231.333 95.556,231.333 95.167 C 231.333 94.744,231.269 94.667,230.917 94.667 C 230.583 94.667,230.500 94.750,230.500 95.083 C 230.500 95.587,230.276 95.611,229.712 95.167 C 229.479 94.983,229.130 94.832,228.936 94.831 C 228.183 94.826,227.833 94.636,227.833 94.231 C 227.833 93.918,227.745 93.833,227.417 93.833 C 227.029 93.833,227.000 93.890,227.000 94.655 M273.529 96.871 C 273.020 97.380,273.422 99.411,273.946 98.976 C 274.078 98.866,274.167 98.440,274.167 97.917 C 274.167 96.976,273.885 96.515,273.529 96.871 " stroke="none" fill="#2464e4" fill-rule="evenodd"></path><path id="path1" d="M199.872 85.786 C 199.702 86.200,199.718 99.940,199.889 100.111 C 200.046 100.269,209.378 100.400,209.964 100.253 C 210.335 100.160,210.343 100.114,210.297 98.287 L 210.250 96.417 206.965 96.372 L 203.681 96.326 203.614 91.372 C 203.527 84.856,203.769 85.593,201.705 85.536 C 200.193 85.494,199.980 85.523,199.872 85.786 M227.742 85.917 C 227.784 86.305,227.738 86.333,227.049 86.333 C 226.219 86.333,225.667 86.564,225.667 86.911 C 225.667 87.039,225.498 87.167,225.292 87.197 C 225.085 87.226,224.842 87.419,224.751 87.627 C 224.661 87.834,224.462 88.043,224.310 88.091 C 224.158 88.139,223.988 88.358,223.933 88.578 C 223.871 88.825,223.690 88.997,223.458 89.030 C 223.126 89.077,223.078 89.193,223.033 90.042 C 222.987 90.934,222.955 91.000,222.575 91.000 L 222.167 91.000 222.167 93.000 L 222.167 95.000 222.575 95.000 C 222.949 95.000,222.987 95.071,223.033 95.875 C 223.076 96.622,223.135 96.757,223.438 96.801 C 223.709 96.839,223.818 97.006,223.897 97.500 C 224.010 98.207,224.492 98.667,225.120 98.667 C 225.382 98.667,225.500 98.765,225.500 98.982 C 225.500 99.310,225.806 99.500,226.335 99.500 C 226.528 99.500,226.663 99.641,226.697 99.875 C 226.795 100.567,231.833 100.523,231.833 99.830 C 231.833 99.556,231.947 99.500,232.496 99.500 C 233.063 99.500,233.195 99.428,233.417 99.000 C 233.563 98.718,233.810 98.500,233.983 98.500 C 234.191 98.500,234.324 98.340,234.389 98.012 C 234.458 97.668,234.599 97.509,234.868 97.471 C 235.188 97.426,235.258 97.301,235.301 96.709 C 235.344 96.118,235.420 95.985,235.760 95.899 L 236.167 95.797 236.167 92.982 L 236.167 90.167 235.760 90.167 C 235.411 90.167,235.346 90.079,235.302 89.542 C 235.261 89.048,235.174 88.906,234.889 88.865 C 234.594 88.823,234.508 88.665,234.415 87.990 L 234.302 87.167 233.568 87.167 C 232.958 87.167,232.833 87.113,232.833 86.851 C 232.833 86.461,232.521 86.333,231.570 86.333 C 230.895 86.333,230.833 86.298,230.833 85.917 C 230.833 85.502,230.827 85.500,229.265 85.500 L 227.696 85.500 227.742 85.917 M254.000 85.917 C 254.000 86.295,253.936 86.334,253.292 86.336 C 252.304 86.339,251.877 86.480,251.784 86.836 C 251.736 87.020,251.520 87.162,251.237 87.195 C 250.868 87.238,250.740 87.364,250.630 87.792 C 250.520 88.219,250.404 88.333,250.079 88.333 C 249.705 88.333,249.667 88.399,249.667 89.044 C 249.667 89.621,249.596 89.785,249.292 89.919 C 248.608 90.219,248.642 96.000,249.327 96.000 C 249.592 96.000,249.657 96.139,249.699 96.785 C 249.743 97.466,249.805 97.583,250.167 97.667 C 250.426 97.727,250.603 97.899,250.635 98.122 C 250.667 98.339,250.828 98.500,251.045 98.531 C 251.268 98.564,251.440 98.741,251.500 99.000 C 251.582 99.353,251.706 99.425,252.306 99.468 C 252.884 99.510,253.045 99.597,253.172 99.932 C 253.404 100.542,257.144 100.492,257.415 99.875 C 257.618 99.412,258.167 99.371,258.167 99.819 C 258.167 100.245,259.100 100.399,260.748 100.245 L 262.000 100.128 262.000 96.147 L 262.000 92.167 258.855 92.167 L 255.710 92.167 255.607 92.792 C 255.290 94.708,255.461 95.097,256.687 95.250 L 257.625 95.366 257.383 95.850 C 257.063 96.492,254.333 96.626,254.333 96.000 C 254.333 95.778,254.222 95.667,254.000 95.667 C 253.722 95.667,253.667 95.556,253.667 95.000 C 253.667 94.400,253.625 94.333,253.250 94.333 C 252.843 94.333,252.833 94.306,252.833 93.083 C 252.833 91.869,252.845 91.833,253.241 91.833 C 253.609 91.833,253.653 91.756,253.699 91.042 C 253.743 90.366,253.805 90.242,254.125 90.197 C 254.366 90.163,254.500 90.029,254.500 89.822 C 254.500 89.540,254.623 89.500,255.500 89.500 C 256.284 89.500,256.500 89.555,256.500 89.754 C 256.500 89.893,256.681 90.090,256.903 90.191 C 257.124 90.291,257.339 90.504,257.380 90.662 C 257.535 91.251,259.333 91.242,259.333 90.652 C 259.333 90.460,259.490 90.300,259.740 90.238 C 259.988 90.175,260.168 89.995,260.199 89.776 C 260.230 89.555,260.389 89.397,260.611 89.365 C 261.246 89.275,261.280 88.167,260.647 88.167 C 260.456 88.167,260.333 88.049,260.333 87.867 C 260.333 87.483,260.017 87.167,259.633 87.167 C 259.451 87.167,259.333 87.044,259.333 86.853 C 259.333 86.500,258.906 86.339,257.958 86.336 C 257.403 86.334,257.333 86.287,257.333 85.917 L 257.333 85.500 255.667 85.500 L 254.000 85.500 254.000 85.917 M275.739 86.036 C 275.561 86.768,275.545 99.934,275.723 100.111 C 275.958 100.346,278.955 100.279,279.200 100.033 C 279.416 99.818,279.522 87.624,279.321 86.167 L 279.240 85.583 277.557 85.536 L 275.873 85.489 275.739 86.036 M296.833 85.911 C 296.833 86.303,296.777 86.334,296.042 86.336 C 295.136 86.339,294.897 86.450,294.810 86.909 C 294.775 87.092,294.566 87.278,294.332 87.333 C 293.972 87.417,293.910 87.534,293.866 88.215 C 293.820 88.923,293.775 89.000,293.408 89.000 C 292.794 89.000,292.762 92.110,293.375 92.197 C 293.651 92.236,293.790 92.412,293.901 92.861 C 294.029 93.380,294.137 93.489,294.615 93.578 C 294.924 93.636,295.166 93.774,295.152 93.884 C 295.083 94.437,295.184 94.500,296.155 94.500 C 297.053 94.500,297.148 94.534,297.197 94.875 C 297.245 95.214,297.363 95.258,298.417 95.333 C 299.542 95.414,299.585 95.433,299.636 95.875 L 299.689 96.333 298.001 96.333 C 297.030 96.333,296.353 96.269,296.407 96.182 C 296.686 95.731,296.282 95.500,295.218 95.500 C 294.171 95.500,294.132 95.515,293.949 96.000 C 293.811 96.367,293.652 96.500,293.355 96.500 C 292.952 96.500,292.951 96.504,293.054 97.842 C 293.183 99.519,293.170 99.500,294.248 99.500 C 295.050 99.500,295.149 99.539,295.197 99.875 C 295.250 100.247,295.274 100.250,298.454 100.295 L 301.659 100.341 301.762 99.930 C 301.834 99.643,301.998 99.504,302.307 99.468 C 302.620 99.432,302.766 99.306,302.803 99.042 C 302.838 98.799,302.971 98.667,303.182 98.667 C 303.410 98.667,303.538 98.518,303.607 98.176 C 303.673 97.841,303.818 97.669,304.061 97.634 C 304.621 97.554,304.613 94.111,304.052 94.031 C 303.796 93.995,303.671 93.845,303.635 93.531 C 303.598 93.214,303.474 93.068,303.208 93.030 C 302.965 92.996,302.833 92.862,302.833 92.651 C 302.833 92.425,302.686 92.295,302.352 92.229 C 302.066 92.171,301.798 91.971,301.689 91.733 C 301.522 91.366,301.410 91.333,300.337 91.333 C 299.200 91.333,299.167 91.322,299.167 90.917 C 299.167 90.534,299.106 90.500,298.417 90.500 C 297.694 90.500,297.667 90.481,297.667 90.000 L 297.667 89.500 298.710 89.500 C 299.633 89.500,299.773 89.544,299.919 89.875 C 300.294 90.730,302.833 90.403,302.833 89.500 C 302.833 89.305,302.973 89.170,303.208 89.137 C 303.684 89.069,303.812 88.151,303.447 87.417 C 303.311 87.142,303.156 86.785,303.105 86.625 C 303.026 86.382,302.804 86.333,301.767 86.333 C 300.604 86.333,300.520 86.309,300.470 85.958 C 300.419 85.599,300.340 85.581,298.625 85.536 L 296.833 85.489 296.833 85.911 M317.280 85.609 C 317.218 85.671,317.167 85.855,317.167 86.016 C 317.167 86.194,317.019 86.331,316.792 86.363 C 316.201 86.447,316.115 89.291,316.702 89.314 C 316.912 89.322,317.871 89.375,318.833 89.432 L 320.583 89.535 320.583 94.676 C 320.583 98.519,320.635 99.868,320.788 100.022 C 321.124 100.357,324.140 100.321,324.392 99.978 C 324.502 99.828,324.740 99.677,324.921 99.642 C 325.291 99.571,325.518 91.278,325.183 90.065 L 325.027 89.500 326.565 89.500 C 328.665 89.500,328.726 89.445,328.620 87.655 C 328.574 86.882,328.502 86.100,328.460 85.917 C 328.384 85.578,317.608 85.281,317.280 85.609 M342.356 86.458 C 342.027 87.942,342.153 99.947,342.500 100.181 C 342.784 100.372,345.749 100.306,345.952 100.104 C 346.088 99.968,346.124 87.235,345.991 86.125 L 345.917 85.500 344.243 85.500 L 342.569 85.500 342.356 86.458 M364.833 85.917 C 364.833 86.302,364.774 86.334,364.042 86.336 C 362.932 86.339,362.568 86.467,362.357 86.931 C 362.251 87.163,362.031 87.333,361.837 87.333 C 361.610 87.333,361.500 87.443,361.500 87.671 C 361.500 87.872,361.341 88.069,361.106 88.158 C 360.713 88.308,360.507 88.751,360.502 89.458 C 360.501 89.747,360.404 89.833,360.083 89.833 L 359.667 89.833 359.667 92.917 L 359.667 96.000 360.083 96.000 C 360.453 96.000,360.500 96.070,360.503 96.625 C 360.506 97.368,360.635 97.607,361.083 97.691 C 361.273 97.726,361.439 97.910,361.469 98.116 C 361.500 98.339,361.659 98.500,361.878 98.531 C 362.101 98.564,362.273 98.741,362.333 99.000 C 362.414 99.347,362.541 99.425,363.095 99.466 C 363.594 99.503,363.801 99.608,363.922 99.883 C 364.174 100.456,368.887 100.457,368.969 99.884 C 369.010 99.595,369.149 99.508,369.635 99.468 C 370.127 99.427,370.261 99.342,370.303 99.042 C 370.337 98.802,370.472 98.667,370.675 98.667 C 370.874 98.667,371.032 98.514,371.096 98.260 C 371.158 98.012,371.339 97.832,371.557 97.801 C 372.186 97.712,372.158 96.704,371.521 96.482 C 371.205 96.372,371.001 96.174,370.968 95.945 C 370.923 95.629,370.797 95.577,369.958 95.533 C 369.275 95.498,369.000 95.417,369.000 95.252 C 369.000 94.930,368.725 94.792,368.332 94.917 C 368.075 94.999,368.000 95.170,368.000 95.678 L 368.000 96.333 366.583 96.333 C 365.398 96.333,365.167 96.290,365.167 96.068 C 365.167 95.922,365.021 95.764,364.842 95.717 C 364.609 95.656,364.504 95.461,364.467 95.025 C 364.427 94.540,364.341 94.406,364.042 94.363 C 363.689 94.313,363.667 94.232,363.667 93.000 C 363.667 91.768,363.689 91.687,364.042 91.637 C 364.353 91.592,364.425 91.464,364.468 90.875 C 364.513 90.249,364.566 90.167,364.926 90.167 C 365.222 90.167,365.333 90.076,365.333 89.833 C 365.333 89.537,365.444 89.500,366.333 89.500 C 367.118 89.500,367.333 89.555,367.333 89.754 C 367.333 89.894,367.521 90.080,367.750 90.167 C 367.998 90.261,368.167 90.457,368.167 90.650 C 368.167 91.218,369.476 91.211,369.625 90.643 C 369.669 90.473,369.841 90.333,370.006 90.333 C 370.525 90.333,370.854 90.135,371.009 89.727 C 371.112 89.457,371.290 89.333,371.579 89.333 C 372.243 89.333,372.207 88.213,371.542 88.136 C 371.218 88.099,371.068 87.976,371.031 87.719 C 370.999 87.494,370.842 87.334,370.622 87.302 C 370.399 87.270,370.227 87.092,370.167 86.833 C 370.078 86.451,369.983 86.413,369.035 86.367 C 368.061 86.320,368.000 86.293,368.000 85.909 C 368.000 85.504,367.986 85.500,366.417 85.500 C 364.839 85.500,364.833 85.501,364.833 85.917 M388.479 85.667 C 388.468 85.758,388.449 85.927,388.438 86.042 C 388.426 86.156,388.154 86.270,387.833 86.295 C 386.792 86.375,386.525 86.487,386.470 86.868 C 386.436 87.101,386.263 87.272,386.000 87.333 C 385.648 87.415,385.575 87.540,385.532 88.132 C 385.487 88.751,385.433 88.833,385.074 88.833 C 384.667 88.833,384.667 88.834,384.667 90.667 L 384.667 92.500 385.087 92.500 C 385.420 92.500,385.529 92.603,385.607 92.991 C 385.680 93.358,385.823 93.508,386.176 93.585 C 386.491 93.655,386.663 93.809,386.698 94.053 C 386.744 94.372,386.869 94.423,387.708 94.467 C 388.510 94.508,388.667 94.567,388.667 94.824 C 388.667 95.214,388.985 95.333,390.026 95.333 C 390.935 95.333,391.333 95.589,391.333 96.173 C 391.333 96.435,391.260 96.508,391.070 96.434 C 390.925 96.379,390.132 96.333,389.309 96.333 C 387.853 96.333,387.814 96.323,387.865 95.958 C 387.960 95.271,385.879 95.302,385.619 95.992 C 385.482 96.354,385.317 96.500,385.047 96.500 C 384.626 96.500,384.551 97.110,384.773 98.727 L 384.879 99.500 385.856 99.500 C 386.787 99.500,386.833 99.520,386.833 99.917 L 386.833 100.333 390.004 100.333 L 393.174 100.333 393.356 99.934 C 393.464 99.695,393.732 99.495,394.019 99.438 C 394.359 99.370,394.500 99.243,394.500 99.004 C 394.500 98.784,394.610 98.667,394.816 98.667 C 395.146 98.667,395.333 98.360,395.333 97.820 C 395.333 97.589,395.450 97.500,395.756 97.500 L 396.178 97.500 396.131 95.792 C 396.086 94.192,396.061 94.080,395.727 94.033 C 395.485 93.998,395.340 93.825,395.273 93.491 C 395.203 93.141,395.078 93.000,394.837 93.000 C 394.617 93.000,394.500 92.890,394.500 92.684 C 394.500 92.357,394.194 92.167,393.665 92.167 C 393.472 92.167,393.337 92.026,393.303 91.792 C 393.254 91.448,393.150 91.413,392.042 91.368 C 390.883 91.321,390.833 91.302,390.833 90.909 C 390.833 90.535,390.769 90.500,390.083 90.500 C 389.361 90.500,389.333 90.481,389.333 90.000 L 389.333 89.500 390.417 89.500 C 391.368 89.500,391.500 89.538,391.500 89.816 C 391.500 90.210,391.814 90.334,392.805 90.331 C 394.084 90.327,394.323 90.206,394.435 89.507 C 394.522 88.961,394.582 88.895,394.934 88.962 C 395.465 89.064,395.526 87.859,395.015 87.348 C 394.840 87.173,394.671 86.892,394.638 86.723 C 394.588 86.462,394.388 86.409,393.290 86.368 C 392.044 86.321,392.000 86.305,392.000 85.910 C 392.000 85.473,388.533 85.233,388.479 85.667 M230.419 89.875 C 230.509 90.081,230.752 90.274,230.958 90.303 C 231.289 90.350,231.333 90.453,231.333 91.178 C 231.333 91.944,231.362 92.000,231.750 92.000 C 232.148 92.000,232.167 92.044,232.167 93.000 C 232.167 93.956,232.148 94.000,231.750 94.000 C 231.361 94.000,231.333 94.056,231.333 94.833 C 231.333 95.556,231.289 95.667,231.000 95.667 C 230.778 95.667,230.667 95.778,230.667 96.000 C 230.667 96.547,227.881 96.507,227.803 95.958 C 227.769 95.717,227.616 95.564,227.375 95.530 C 226.820 95.451,226.779 90.833,227.333 90.833 C 227.517 90.833,227.667 90.726,227.667 90.595 C 227.667 90.463,227.817 90.308,228.000 90.250 C 228.183 90.192,228.333 89.999,228.333 89.822 C 228.333 89.300,230.187 89.347,230.419 89.875 " stroke="none" fill="#0f0f0f" fill-rule="evenodd"></path></g></svg>