<svg id="svg" version="1.1" xmlns="http://www.w3.org/2000/svg" xmlns:xlink="http://www.w3.org/1999/xlink" width="400" height="121.16182572614109" viewBox="0, 0, 400,121.16182572614109"><g id="svgg"><path id="path0" d="M227.500 84.599 C 227.500 84.907,227.384 85.007,226.926 85.093 C 226.508 85.171,226.338 85.298,226.301 85.558 C 226.270 85.779,226.110 85.937,225.885 85.969 C 225.658 86.001,225.501 86.158,225.469 86.385 C 225.436 86.613,225.279 86.770,225.052 86.802 C 224.796 86.838,224.671 86.988,224.635 87.302 C 224.594 87.654,224.483 87.762,224.115 87.804 C 223.650 87.857,223.647 87.865,223.757 88.747 C 223.915 90.010,223.724 91.000,223.322 91.000 C 222.698 91.000,222.651 92.545,223.273 92.634 C 223.725 92.699,223.880 93.399,223.732 94.706 C 223.624 95.660,223.627 95.667,224.062 95.667 C 224.469 95.667,224.500 95.719,224.500 96.406 C 224.500 97.085,224.536 97.149,224.952 97.197 C 225.275 97.235,225.431 97.368,225.500 97.667 C 225.561 97.930,225.732 98.103,225.965 98.137 C 226.235 98.176,226.333 98.304,226.333 98.614 C 226.333 99.019,226.365 99.033,227.054 98.930 C 227.965 98.793,228.333 98.933,228.333 99.415 L 228.333 99.794 231.333 99.791 L 234.333 99.787 234.333 99.394 C 234.333 99.040,234.407 99.000,235.067 99.000 C 235.732 99.000,235.817 98.953,235.975 98.500 C 236.092 98.164,236.261 98.000,236.491 98.000 C 236.722 98.000,236.833 97.892,236.833 97.667 C 236.833 97.422,236.944 97.333,237.250 97.333 C 237.602 97.333,237.667 97.256,237.667 96.833 C 237.667 96.411,237.731 96.333,238.083 96.333 C 238.471 96.333,238.500 96.277,238.500 95.511 C 238.500 94.741,238.529 94.685,238.951 94.636 L 239.403 94.583 239.379 91.859 C 239.355 89.046,239.334 88.922,238.863 88.919 C 238.642 88.917,238.578 88.742,238.560 88.083 C 238.528 86.912,238.515 86.831,238.375 86.853 C 237.942 86.922,237.683 86.786,237.637 86.465 C 237.603 86.232,237.430 86.061,237.167 86.000 C 236.864 85.930,236.735 85.776,236.696 85.438 C 236.644 84.993,236.607 84.975,235.863 85.028 C 235.133 85.080,235.080 85.056,235.033 84.655 L 234.984 84.226 231.242 84.220 L 227.500 84.214 227.500 84.599 M254.646 84.363 C 254.634 84.438,254.616 84.569,254.604 84.653 C 254.561 84.971,254.299 85.065,253.578 85.021 C 252.885 84.978,252.833 85.003,252.833 85.386 C 252.833 85.682,252.720 85.826,252.428 85.899 C 252.175 85.962,252.003 86.141,251.970 86.375 C 251.932 86.641,251.786 86.765,251.468 86.802 C 251.036 86.852,251.021 86.887,251.052 87.802 C 251.082 88.705,251.063 88.752,250.656 88.800 L 250.229 88.849 250.240 91.716 L 250.252 94.583 250.719 94.637 C 251.165 94.688,251.184 94.726,251.135 95.470 C 251.086 96.212,251.106 96.253,251.542 96.303 C 251.895 96.343,252.000 96.444,252.000 96.743 C 252.000 97.017,252.122 97.161,252.417 97.235 C 252.686 97.303,252.833 97.457,252.833 97.670 C 252.833 97.886,252.945 98.000,253.157 98.000 C 253.540 98.000,253.761 98.298,253.691 98.722 C 253.649 98.982,253.748 99.022,254.362 98.998 C 255.456 98.954,255.500 98.970,255.500 99.400 L 255.500 99.800 258.708 99.775 C 261.871 99.750,261.917 99.745,261.968 99.386 C 262.029 98.964,262.701 98.752,263.413 98.931 C 264.112 99.106,264.161 98.867,264.164 95.298 C 264.167 91.368,264.393 91.667,261.417 91.667 C 258.806 91.667,258.667 91.729,258.667 92.903 C 258.667 93.905,258.784 93.993,260.119 93.998 C 261.002 94.001,261.202 94.321,261.133 95.629 L 261.083 96.583 258.669 96.581 C 256.239 96.580,255.508 96.343,256.339 95.830 C 256.452 95.760,256.186 95.743,255.747 95.793 L 254.948 95.882 255.047 95.275 C 255.137 94.721,255.111 94.667,254.757 94.667 C 254.235 94.667,254.229 94.628,254.300 91.641 C 254.358 89.240,254.388 89.025,254.681 88.948 C 254.869 88.899,255.000 88.719,255.000 88.511 C 255.000 88.288,255.153 88.100,255.417 88.000 C 255.646 87.913,255.833 87.746,255.833 87.629 C 255.833 87.465,256.469 87.414,258.583 87.408 L 261.333 87.400 261.333 87.875 C 261.333 88.673,263.225 88.513,263.302 87.708 C 263.349 87.226,263.411 87.167,263.866 87.167 C 264.364 87.167,264.374 87.151,264.274 86.542 C 264.217 86.198,264.170 85.705,264.169 85.446 C 264.167 84.984,264.153 84.977,263.292 85.030 C 262.461 85.081,262.414 85.062,262.367 84.658 L 262.317 84.232 258.492 84.229 C 256.388 84.227,254.657 84.287,254.646 84.363 M294.421 84.301 C 294.373 84.349,294.333 84.521,294.333 84.683 C 294.333 84.881,294.182 84.995,293.875 85.031 C 293.547 85.068,293.402 85.190,293.363 85.458 C 293.330 85.695,293.195 85.833,292.998 85.833 C 292.750 85.833,292.675 85.979,292.635 86.542 C 292.588 87.179,292.536 87.255,292.117 87.304 L 291.650 87.357 291.681 88.657 C 291.710 89.860,291.737 89.950,292.040 89.871 C 292.431 89.769,292.661 90.078,292.664 90.714 C 292.666 91.028,292.777 91.218,293.009 91.304 C 293.197 91.374,293.443 91.615,293.555 91.840 C 293.708 92.150,293.914 92.263,294.396 92.303 C 294.979 92.351,295.028 92.392,294.954 92.775 C 294.876 93.187,294.893 93.194,295.812 93.161 C 297.285 93.107,297.333 93.121,297.333 93.594 C 297.333 93.976,297.391 94.016,297.875 93.969 C 298.336 93.924,298.425 93.975,298.472 94.311 C 298.503 94.528,298.671 94.743,298.847 94.789 C 299.458 94.948,299.172 95.420,298.497 95.366 C 298.449 95.362,298.437 95.634,298.469 95.971 L 298.527 96.583 296.680 96.610 L 294.833 96.636 294.833 96.235 C 294.833 95.792,294.141 95.706,292.441 95.939 L 291.669 96.045 291.771 96.981 C 291.827 97.496,291.958 97.992,292.061 98.084 C 292.311 98.306,292.376 98.667,292.167 98.667 C 292.075 98.667,292.000 98.736,292.000 98.821 C 292.000 98.906,292.244 98.943,292.542 98.904 C 293.453 98.783,294.000 98.973,294.000 99.411 L 294.000 99.795 296.750 99.787 L 299.500 99.779 299.500 99.385 C 299.500 99.078,299.614 98.969,300.022 98.887 C 300.342 98.823,300.577 98.658,300.628 98.462 C 300.674 98.285,300.879 98.078,301.083 98.000 C 301.312 97.913,301.492 97.665,301.556 97.346 C 301.636 96.943,301.745 96.833,302.061 96.833 L 302.464 96.833 302.464 94.759 L 302.464 92.685 302.024 92.634 C 301.720 92.599,301.567 92.472,301.532 92.224 C 301.501 92.009,301.322 91.825,301.085 91.765 C 300.842 91.704,300.669 91.522,300.637 91.291 C 300.591 90.972,300.467 90.909,299.792 90.866 C 299.077 90.820,299.000 90.775,299.000 90.408 C 299.000 90.014,298.960 90.000,297.833 90.000 C 296.791 90.000,296.667 89.966,296.667 89.678 C 296.667 89.451,296.532 89.340,296.212 89.303 C 295.778 89.252,295.757 89.208,295.743 88.282 L 295.728 87.313 296.322 87.361 C 296.789 87.398,296.907 87.351,296.873 87.143 C 296.816 86.799,297.257 86.435,297.581 86.559 C 297.720 86.613,297.833 86.836,297.833 87.055 C 297.833 87.453,297.835 87.453,299.458 87.381 C 301.490 87.290,301.467 87.299,301.530 86.635 C 301.576 86.155,301.643 86.084,302.042 86.090 C 302.373 86.095,302.500 86.014,302.500 85.798 C 302.500 85.595,302.373 85.500,302.104 85.500 C 301.886 85.500,301.614 85.388,301.500 85.250 C 301.386 85.112,301.194 85.000,301.075 85.000 C 300.955 85.000,300.833 84.831,300.803 84.625 C 300.752 84.266,294.761 83.962,294.421 84.301 M356.585 84.304 C 356.538 84.351,356.500 84.526,356.500 84.694 C 356.500 84.945,356.366 85.000,355.761 85.000 C 355.079 85.000,355.018 85.035,354.969 85.458 C 354.928 85.818,354.818 85.928,354.458 85.969 C 354.141 86.006,354.000 86.118,354.000 86.333 C 354.000 86.528,353.861 86.663,353.625 86.697 C 353.302 86.743,353.248 86.853,353.238 87.500 C 353.215 88.982,353.204 89.013,352.750 88.931 L 352.333 88.855 352.333 91.758 L 352.333 94.660 352.742 94.763 C 353.091 94.851,353.157 94.976,353.200 95.641 C 353.242 96.300,353.306 96.425,353.625 96.470 C 353.956 96.517,354.000 96.620,354.000 97.345 C 354.000 98.110,354.029 98.167,354.417 98.167 C 354.812 98.167,354.909 98.310,354.844 98.799 C 354.823 98.960,355.013 98.991,355.599 98.920 C 356.622 98.798,357.000 98.928,357.000 99.404 L 357.000 99.786 360.000 99.786 L 363.000 99.786 363.000 99.393 C 363.000 99.039,363.074 99.000,363.739 99.000 C 364.421 99.000,364.482 98.965,364.531 98.542 C 364.567 98.223,364.691 98.068,364.937 98.033 C 365.283 97.984,365.499 97.243,365.500 96.102 C 365.501 95.549,362.548 95.664,362.468 96.220 C 362.394 96.745,358.462 96.793,358.361 96.270 C 358.328 96.098,358.402 95.894,358.525 95.816 C 358.654 95.736,358.405 95.718,357.943 95.774 L 357.136 95.872 357.193 95.228 C 357.244 94.646,357.209 94.579,356.833 94.535 L 356.417 94.486 356.405 91.754 C 356.393 89.029,356.394 89.021,356.780 88.924 C 357.016 88.865,357.167 88.703,357.167 88.508 C 357.167 88.333,357.317 88.142,357.500 88.083 C 357.683 88.025,357.833 87.851,357.833 87.697 C 357.833 87.448,358.098 87.416,360.242 87.411 L 362.651 87.405 362.701 87.828 C 362.746 88.219,362.822 88.254,363.718 88.300 C 364.438 88.338,364.678 88.295,364.656 88.134 C 364.555 87.375,364.668 87.128,365.083 87.207 C 365.479 87.283,365.500 87.249,365.498 86.519 C 365.494 85.128,365.406 85.000,364.461 85.000 C 363.677 85.000,363.632 84.977,363.702 84.609 L 363.777 84.219 360.224 84.219 C 358.269 84.219,356.632 84.257,356.585 84.304 M378.297 84.609 C 378.365 84.963,378.313 85.000,377.746 85.000 L 377.120 85.000 377.218 85.825 C 377.317 86.660,377.005 87.062,376.501 86.751 C 376.392 86.683,376.333 87.317,376.333 88.562 L 376.333 90.478 376.792 90.531 C 377.152 90.572,377.261 90.682,377.303 91.042 C 377.339 91.354,377.452 91.500,377.658 91.500 C 377.825 91.500,377.998 91.640,378.042 91.811 C 378.095 92.011,378.340 92.162,378.728 92.235 C 379.234 92.330,379.333 92.417,379.333 92.769 C 379.333 93.174,379.371 93.189,380.292 93.165 C 381.617 93.130,381.836 93.148,381.814 93.292 C 381.719 93.888,381.849 94.025,382.458 93.971 C 383.014 93.923,383.082 93.958,383.071 94.292 C 383.065 94.498,383.046 95.098,383.030 95.625 L 383.000 96.583 381.208 96.583 L 379.417 96.583 379.363 96.114 C 379.316 95.705,379.252 95.656,378.863 95.729 C 378.617 95.775,377.995 95.859,377.480 95.916 L 376.543 96.019 376.441 96.758 C 376.386 97.164,376.416 97.695,376.508 97.937 C 376.600 98.179,376.627 98.529,376.568 98.714 C 376.469 99.028,376.514 99.043,377.227 98.946 C 378.182 98.815,378.500 98.931,378.500 99.413 C 378.500 99.789,378.507 99.790,381.167 99.786 C 383.784 99.782,383.833 99.775,383.833 99.423 C 383.833 99.136,383.976 99.032,384.542 98.907 C 385.083 98.787,385.262 98.664,385.302 98.385 C 385.338 98.130,385.488 98.005,385.802 97.968 C 386.222 97.920,386.250 97.864,386.250 97.083 C 386.250 96.298,386.276 96.247,386.708 96.197 L 387.167 96.145 387.167 94.642 C 387.167 93.511,387.115 93.157,386.958 93.214 C 386.537 93.365,386.167 93.000,386.167 92.432 C 386.167 91.946,386.102 91.862,385.667 91.775 C 385.270 91.696,385.167 91.588,385.167 91.254 C 385.167 90.860,385.113 90.833,384.333 90.833 C 383.556 90.833,383.500 90.806,383.500 90.417 C 383.500 90.012,383.466 90.000,382.345 90.000 C 381.274 90.000,381.186 89.973,381.137 89.625 C 381.103 89.390,380.949 89.231,380.726 89.199 C 380.378 89.149,380.032 88.167,380.362 88.167 C 380.438 88.167,380.500 88.017,380.500 87.833 C 380.500 87.589,380.611 87.500,380.917 87.500 C 381.269 87.500,381.333 87.422,381.333 87.000 C 381.333 86.553,381.388 86.500,381.845 86.500 C 382.306 86.500,382.352 86.546,382.304 86.958 L 382.250 87.417 383.375 87.358 L 384.500 87.299 384.500 87.816 C 384.500 88.101,384.565 88.333,384.645 88.333 C 384.725 88.333,384.789 88.202,384.789 88.042 C 384.786 87.413,384.856 87.334,385.500 87.231 L 386.167 87.124 386.167 86.225 C 386.167 85.426,386.121 85.308,385.763 85.172 C 385.529 85.083,385.336 84.856,385.304 84.634 L 385.250 84.250 381.736 84.234 L 378.223 84.218 378.297 84.609 M202.923 84.466 C 202.871 84.518,202.832 87.998,202.837 92.197 L 202.846 99.833 207.840 99.833 L 212.833 99.833 212.833 98.514 C 212.833 96.522,213.069 96.667,209.816 96.667 L 207.000 96.667 207.000 90.492 L 207.000 84.318 205.010 84.344 C 203.915 84.358,202.976 84.413,202.923 84.466 M277.033 84.533 C 276.923 84.643,276.825 84.925,276.814 85.158 C 276.799 85.481,276.775 85.507,276.714 85.267 C 276.649 85.014,276.604 84.997,276.486 85.184 C 276.369 85.369,276.338 85.354,276.336 85.115 C 276.334 84.949,276.258 84.860,276.167 84.917 C 275.879 85.095,275.958 86.219,276.250 86.106 C 276.559 85.988,276.572 86.119,276.279 86.412 C 276.027 86.663,275.977 99.532,276.226 99.782 C 276.300 99.856,276.467 99.771,276.597 99.593 C 276.803 99.312,276.833 99.306,276.833 99.551 C 276.833 99.796,277.038 99.833,278.375 99.833 L 279.917 99.833 279.869 92.292 C 279.843 88.144,279.789 84.656,279.749 84.542 C 279.653 84.263,277.311 84.256,277.033 84.533 M313.250 84.581 C 312.975 84.702,312.694 84.766,312.625 84.724 C 312.556 84.682,312.500 84.951,312.500 85.323 C 312.500 85.921,312.545 86.000,312.889 86.000 C 313.277 86.000,313.597 86.421,313.700 87.067 C 313.751 87.392,313.944 87.404,317.083 87.271 L 317.583 87.250 317.627 93.542 L 317.671 99.833 319.169 99.833 L 320.667 99.833 320.667 93.609 L 320.667 87.384 323.125 87.394 L 325.583 87.403 325.631 85.868 L 325.679 84.333 319.715 84.347 C 315.157 84.357,313.632 84.412,313.250 84.581 M337.468 84.644 C 337.348 84.815,337.175 84.951,337.083 84.945 C 336.992 84.940,336.872 85.156,336.818 85.426 L 336.720 85.917 336.635 85.333 C 336.588 85.012,336.542 88.004,336.532 91.981 C 336.517 97.672,336.556 99.155,336.715 98.942 C 336.867 98.740,336.979 98.717,337.167 98.852 C 337.378 99.003,337.371 99.017,337.125 98.938 C 336.899 98.865,336.833 98.939,336.833 99.265 C 336.833 99.554,336.768 99.649,336.625 99.569 C 336.469 99.481,336.471 99.510,336.632 99.682 C 336.815 99.880,336.871 99.877,337.004 99.665 C 337.109 99.499,337.162 99.486,337.164 99.625 C 337.166 99.778,337.612 99.833,338.833 99.833 L 340.500 99.833 340.500 92.283 C 340.500 86.633,340.450 84.683,340.300 84.533 C 339.952 84.185,337.728 84.273,337.468 84.644 M276.833 86.773 C 276.833 86.897,276.727 86.949,276.583 86.894 C 276.446 86.841,276.333 86.743,276.333 86.677 C 276.333 86.610,276.446 86.556,276.583 86.556 C 276.721 86.556,276.833 86.653,276.833 86.773 M336.868 87.614 C 336.753 88.217,336.666 88.069,336.678 87.292 C 336.687 86.791,336.727 86.677,336.816 86.905 C 336.885 87.082,336.909 87.401,336.868 87.614 M233.833 87.680 C 233.833 87.827,234.021 88.032,234.250 88.136 C 234.479 88.241,234.667 88.435,234.667 88.569 C 234.667 88.702,234.817 88.858,235.000 88.917 C 235.553 89.092,235.514 94.618,234.958 94.697 C 234.665 94.738,234.583 94.858,234.583 95.250 C 234.583 95.724,234.548 95.750,233.913 95.743 C 233.303 95.736,233.243 95.773,233.246 96.159 L 233.250 96.583 231.302 96.617 C 229.410 96.649,229.353 96.640,229.302 96.283 C 229.269 96.051,229.113 95.897,228.875 95.863 C 228.640 95.830,228.500 95.695,228.500 95.500 C 228.500 95.305,228.360 95.170,228.125 95.137 C 227.797 95.090,227.752 94.989,227.764 94.329 C 227.777 93.624,227.749 93.575,227.347 93.579 L 226.917 93.583 226.917 91.750 L 226.917 89.917 227.375 89.864 C 227.807 89.814,227.833 89.763,227.833 88.981 L 227.833 88.150 228.492 88.216 C 229.092 88.276,229.136 88.254,228.984 87.971 C 228.703 87.446,228.898 87.400,231.406 87.407 C 233.515 87.413,233.833 87.449,233.833 87.680 M336.948 89.625 C 336.906 89.785,336.872 89.654,336.872 89.333 C 336.872 89.013,336.906 88.881,336.948 89.042 C 336.990 89.202,336.990 89.465,336.948 89.625 M321.218 91.583 C 321.219 92.133,321.250 92.338,321.287 92.039 C 321.325 91.739,321.324 91.289,321.286 91.039 C 321.248 90.788,321.217 91.033,321.218 91.583 M276.455 93.788 C 276.419 94.134,276.389 93.892,276.388 93.250 C 276.387 92.608,276.417 92.325,276.454 92.621 C 276.490 92.917,276.491 93.442,276.455 93.788 M321.372 97.833 C 321.372 98.154,321.406 98.285,321.448 98.125 C 321.490 97.965,321.490 97.702,321.448 97.542 C 321.406 97.381,321.372 97.513,321.372 97.833 " stroke="none" fill="#f0f0f0" fill-rule="evenodd"></path><path id="path1" d="M53.852 2.359 C 53.677 2.424,53.485 2.557,53.424 2.655 C 53.363 2.753,52.849 2.834,52.282 2.835 C 50.407 2.837,49.500 3.007,49.500 3.357 C 49.500 3.689,48.934 3.797,48.750 3.500 C 48.625 3.297,47.721 3.278,47.599 3.475 C 47.551 3.553,46.777 3.666,45.881 3.727 C 44.594 3.814,44.196 3.902,43.994 4.143 C 43.840 4.328,43.422 4.484,42.940 4.539 C 42.385 4.601,42.066 4.736,41.895 4.981 C 41.703 5.254,41.472 5.334,40.866 5.335 C 39.578 5.338,38.797 5.521,38.713 5.839 C 38.660 6.042,38.396 6.160,37.819 6.236 C 37.153 6.325,37.000 6.406,37.000 6.672 C 37.000 6.942,36.885 7.000,36.354 7.000 C 35.288 7.000,34.629 7.191,34.542 7.525 C 34.491 7.718,34.310 7.833,34.056 7.833 C 33.834 7.833,33.473 8.011,33.256 8.229 C 33.011 8.474,32.562 8.669,32.078 8.742 C 31.515 8.827,31.272 8.947,31.214 9.170 C 31.169 9.341,30.972 9.504,30.775 9.532 C 30.551 9.564,30.397 9.724,30.363 9.958 C 30.318 10.277,30.208 10.333,29.629 10.333 C 28.769 10.333,27.833 10.989,27.833 11.592 C 27.833 11.969,27.772 12.000,27.019 12.000 C 26.336 12.000,26.191 12.055,26.115 12.346 C 26.065 12.536,25.869 12.732,25.679 12.782 C 25.451 12.841,25.333 13.008,25.333 13.269 C 25.333 13.628,25.261 13.667,24.603 13.667 C 24.007 13.667,23.821 13.744,23.599 14.083 C 23.449 14.313,23.215 14.500,23.079 14.500 C 22.928 14.500,22.833 14.660,22.833 14.917 C 22.833 15.280,22.760 15.333,22.262 15.333 C 21.600 15.333,21.167 15.693,21.167 16.241 C 21.167 16.740,20.887 16.960,20.166 17.028 C 19.715 17.071,19.572 17.166,19.531 17.448 C 19.499 17.675,19.342 17.832,19.115 17.865 C 18.884 17.898,18.730 18.054,18.697 18.292 C 18.659 18.561,18.531 18.667,18.247 18.667 C 17.993 18.667,17.697 18.867,17.425 19.224 C 16.769 20.084,16.912 21.167,17.681 21.167 C 17.835 21.167,18.000 21.317,18.048 21.500 C 18.166 21.949,19.166 21.962,19.566 21.519 C 19.772 21.292,20.191 21.172,21.073 21.090 C 22.076 20.996,22.358 20.903,22.646 20.571 C 22.840 20.349,23.148 20.167,23.332 20.167 C 23.516 20.167,23.805 20.028,23.975 19.858 C 24.206 19.627,24.654 19.521,25.767 19.435 C 26.944 19.344,27.307 19.253,27.527 18.994 C 27.679 18.814,27.923 18.667,28.069 18.667 C 28.216 18.667,28.499 18.479,28.698 18.250 C 29.031 17.866,29.173 17.833,30.488 17.832 C 32.071 17.831,33.137 17.605,33.277 17.240 C 33.339 17.077,33.628 17.000,34.175 17.000 C 34.618 17.000,35.028 16.923,35.086 16.829 C 35.144 16.735,35.457 16.676,35.781 16.698 C 36.179 16.724,36.437 16.645,36.578 16.452 C 36.738 16.233,37.040 16.167,37.867 16.167 C 40.552 16.167,42.490 15.960,42.584 15.664 C 42.654 15.445,42.934 15.358,43.790 15.289 C 44.404 15.240,44.928 15.136,44.956 15.058 C 45.147 14.515,45.300 14.467,45.667 14.834 C 46.094 15.260,47.322 15.213,47.834 14.749 C 48.151 14.463,53.833 14.372,53.833 14.653 C 53.833 15.031,53.606 15.333,53.321 15.333 C 52.922 15.333,52.667 15.820,52.667 16.583 C 52.667 17.958,51.192 17.833,67.464 17.836 L 81.917 17.839 82.292 18.235 C 82.498 18.452,82.667 18.753,82.667 18.903 C 82.667 19.052,82.854 19.246,83.083 19.333 C 83.338 19.430,83.500 19.623,83.500 19.829 C 83.500 20.015,83.594 20.168,83.708 20.169 C 83.851 20.171,83.860 20.210,83.735 20.294 C 83.634 20.362,83.503 20.672,83.442 20.984 C 83.295 21.739,83.053 22.000,82.500 22.000 C 82.247 22.000,81.947 22.112,81.833 22.250 C 81.673 22.443,81.231 22.500,79.906 22.500 C 78.939 22.500,78.141 22.573,78.083 22.667 C 77.949 22.883,30.119 22.898,29.706 22.681 C 28.459 22.027,16.607 22.027,15.925 22.681 C 15.838 22.765,15.450 22.833,15.064 22.833 C 14.152 22.833,13.833 22.965,13.833 23.340 C 13.833 23.548,13.688 23.661,13.375 23.697 L 12.917 23.750 12.917 26.500 L 12.917 29.250 13.333 29.297 C 14.264 29.401,14.500 29.510,14.500 29.837 C 14.500 30.162,14.643 30.167,24.505 30.167 C 33.882 30.167,34.517 30.185,34.618 30.458 C 34.883 31.178,36.773 31.262,37.402 30.583 C 37.884 30.063,38.591 30.025,38.718 30.512 C 38.768 30.703,38.964 30.899,39.154 30.948 C 39.587 31.062,39.587 31.065,39.083 31.568 C 38.761 31.890,38.667 32.157,38.667 32.742 C 38.667 33.439,38.700 33.500,39.083 33.500 C 39.417 33.500,39.500 33.583,39.500 33.917 L 39.500 34.333 68.300 34.333 C 99.176 34.333,97.500 34.284,97.500 35.188 C 97.500 35.438,97.612 35.755,97.750 35.893 C 97.888 36.030,98.000 36.289,98.000 36.468 C 98.000 36.646,97.888 36.886,97.750 37.000 C 97.612 37.114,97.500 37.348,97.500 37.520 C 97.500 37.693,97.350 37.983,97.167 38.167 C 96.835 38.498,96.611 38.500,50.917 38.500 L 5.000 38.500 4.629 38.875 C 4.425 39.081,3.994 39.327,3.671 39.422 C 3.141 39.577,3.071 39.669,2.941 40.380 C 2.858 40.835,2.707 41.167,2.583 41.167 C 2.050 41.167,1.983 43.115,2.500 43.583 C 2.683 43.749,2.833 44.055,2.833 44.262 C 2.833 44.857,3.010 45.167,3.348 45.167 C 3.542 45.167,3.700 45.324,3.765 45.583 C 3.849 45.919,3.973 46.000,4.401 46.000 C 4.694 46.000,5.023 46.090,5.133 46.200 C 5.289 46.356,5.378 46.356,5.533 46.200 C 5.823 45.910,32.344 45.910,32.633 46.200 C 32.893 46.460,32.893 48.040,32.633 48.300 C 32.478 48.456,32.478 48.544,32.633 48.700 C 32.743 48.810,32.833 49.185,32.833 49.533 L 32.833 50.167 67.655 50.167 L 102.477 50.167 102.530 50.542 C 102.564 50.783,102.717 50.936,102.958 50.970 C 103.195 51.004,103.333 51.138,103.333 51.336 C 103.333 51.508,103.521 52.002,103.750 52.433 C 103.979 52.864,104.167 53.280,104.167 53.358 C 104.167 53.436,103.979 53.500,103.750 53.500 C 103.417 53.500,103.333 53.583,103.333 53.917 C 103.333 54.250,103.250 54.333,102.917 54.333 C 102.688 54.333,102.500 54.408,102.500 54.500 C 102.500 54.600,101.840 54.667,100.854 54.667 C 99.594 54.667,99.159 54.725,99.000 54.917 C 98.684 55.297,9.273 55.297,8.893 54.917 C 8.524 54.548,2.973 54.548,2.667 54.917 C 2.525 55.087,2.147 55.167,1.480 55.167 C 0.546 55.167,0.500 55.186,0.500 55.583 C 0.500 55.843,0.406 56.000,0.250 56.000 C 0.038 56.000,0.000 56.426,0.000 58.833 C 0.000 61.180,0.041 61.667,0.238 61.667 C 0.370 61.667,0.501 61.835,0.530 62.042 L 0.583 62.417 15.482 62.459 L 30.380 62.502 30.773 62.926 C 31.113 63.293,31.167 63.518,31.167 64.592 L 31.167 65.833 31.819 65.833 C 32.190 65.833,32.505 65.923,32.548 66.042 C 32.608 66.208,32.694 66.208,32.976 66.042 C 33.255 65.877,40.460 65.833,67.486 65.833 L 101.643 65.833 101.697 66.208 C 101.730 66.443,101.884 66.602,102.108 66.634 C 102.305 66.662,102.506 66.837,102.554 67.022 C 102.602 67.207,102.791 67.397,102.974 67.445 C 103.156 67.492,103.350 67.712,103.406 67.932 C 103.461 68.153,103.573 68.333,103.654 68.333 C 104.129 68.333,103.226 70.002,102.697 70.103 C 102.393 70.161,102.056 70.349,101.948 70.521 C 101.758 70.825,100.496 70.833,52.985 70.833 C 3.519 70.833,3.329 70.836,3.102 71.428 C 3.052 71.559,2.821 71.667,2.589 71.667 C 2.276 71.667,2.167 71.754,2.167 72.004 C 2.167 72.211,2.005 72.403,1.750 72.500 C 1.473 72.605,1.333 72.786,1.333 73.040 C 1.333 73.250,1.183 73.701,1.000 74.044 C 0.596 74.798,0.576 75.266,0.939 75.469 C 1.115 75.568,1.240 75.924,1.294 76.480 C 1.364 77.210,1.435 77.352,1.771 77.437 C 2.003 77.495,2.167 77.660,2.167 77.834 C 2.167 78.331,2.225 78.333,17.763 78.333 L 32.833 78.333 33.666 78.932 C 34.418 79.472,34.500 79.594,34.500 80.170 C 34.500 80.653,34.602 80.889,34.917 81.137 C 35.163 81.330,35.333 81.635,35.333 81.881 C 35.333 82.524,34.134 82.500,66.347 82.500 C 94.131 82.500,96.833 82.524,96.833 82.766 C 96.833 82.912,96.983 83.070,97.167 83.118 C 97.384 83.175,97.500 83.346,97.500 83.608 C 97.500 83.829,97.612 84.054,97.750 84.106 C 98.013 84.207,98.105 85.000,97.854 85.000 C 97.774 85.000,97.662 85.206,97.606 85.458 C 97.550 85.710,97.345 86.104,97.150 86.333 L 96.796 86.750 54.315 86.794 C 12.119 86.837,11.832 86.839,11.627 87.169 C 11.504 87.366,11.238 87.500,10.972 87.500 C 10.634 87.500,10.510 87.592,10.470 87.873 C 10.439 88.089,10.276 88.273,10.083 88.309 C 9.668 88.387,9.506 88.629,9.503 89.175 C 9.501 89.409,9.418 89.682,9.319 89.781 C 9.188 89.912,9.188 89.994,9.319 90.074 C 9.554 90.219,9.554 91.213,9.319 91.448 C 9.188 91.578,9.188 91.660,9.319 91.741 C 9.418 91.803,9.500 92.149,9.500 92.510 C 9.500 93.099,9.543 93.167,9.917 93.167 C 10.250 93.167,10.333 93.250,10.333 93.583 C 10.333 93.972,10.389 94.000,11.167 94.000 C 11.944 94.000,12.000 94.028,12.000 94.417 L 12.000 94.833 27.417 94.833 L 42.833 94.833 42.833 95.250 C 42.833 95.548,42.923 95.667,43.149 95.667 C 43.346 95.667,43.503 95.823,43.568 96.083 C 43.633 96.342,43.791 96.500,43.985 96.500 C 44.179 96.500,44.337 96.658,44.402 96.917 C 44.468 97.179,44.624 97.333,44.825 97.333 C 45.028 97.333,45.163 97.469,45.197 97.708 L 45.250 98.083 63.125 98.126 C 78.668 98.163,81.000 98.200,81.000 98.412 C 81.000 98.734,81.523 99.000,82.156 99.000 C 82.563 99.000,82.667 99.071,82.667 99.349 C 82.667 99.558,82.801 99.733,83.002 99.786 C 83.186 99.834,83.382 100.052,83.437 100.270 C 83.502 100.531,83.656 100.667,83.888 100.667 L 84.241 100.667 83.890 100.913 C 83.697 101.048,83.489 101.423,83.428 101.746 C 83.347 102.180,83.233 102.333,82.992 102.333 C 82.756 102.333,82.667 102.448,82.667 102.750 L 82.667 103.167 68.208 103.169 C 56.915 103.171,53.659 103.218,53.333 103.382 C 52.503 103.800,52.438 105.667,53.253 105.667 C 53.583 105.667,53.667 105.751,53.667 106.083 L 53.667 106.500 49.370 106.500 C 45.320 106.500,45.058 106.481,44.796 106.176 C 44.580 105.923,44.415 105.880,44.051 105.983 C 43.755 106.066,43.399 106.034,43.083 105.898 C 42.808 105.779,42.206 105.678,41.745 105.674 C 41.128 105.669,40.834 105.581,40.630 105.342 C 40.406 105.081,40.255 105.046,39.852 105.161 C 39.506 105.260,39.332 105.245,39.287 105.111 C 39.245 104.984,38.593 104.897,37.403 104.859 C 36.402 104.827,35.537 104.726,35.480 104.633 C 35.357 104.435,33.624 104.006,32.927 104.003 C 32.658 104.001,32.266 103.838,32.054 103.639 C 31.725 103.330,31.422 103.268,29.908 103.200 C 28.281 103.128,28.125 103.092,27.887 102.728 C 27.728 102.485,27.466 102.333,27.208 102.333 C 26.976 102.333,26.699 102.213,26.592 102.067 C 26.366 101.758,25.284 101.518,24.072 101.507 C 23.383 101.501,23.160 101.423,22.864 101.083 C 22.665 100.854,22.389 100.667,22.251 100.667 C 22.113 100.667,21.856 100.523,21.680 100.347 C 21.321 99.988,20.051 99.778,18.750 99.863 L 17.917 99.917 17.868 101.125 C 17.819 102.321,17.823 102.333,18.243 102.333 C 18.584 102.333,18.667 102.415,18.667 102.750 C 18.667 103.083,18.750 103.167,19.083 103.167 C 19.417 103.167,19.500 103.250,19.500 103.583 C 19.500 103.913,19.584 104.000,19.905 104.000 C 20.198 104.000,20.325 104.104,20.363 104.375 C 20.397 104.612,20.551 104.769,20.781 104.802 C 21.009 104.834,21.166 104.991,21.198 105.219 C 21.242 105.527,21.373 105.591,22.042 105.634 C 22.756 105.680,22.833 105.725,22.833 106.092 C 22.833 106.416,22.919 106.500,23.250 106.500 C 23.583 106.500,23.667 106.583,23.667 106.917 C 23.667 107.238,23.753 107.333,24.044 107.333 C 24.275 107.333,24.485 107.478,24.585 107.708 C 24.713 107.998,24.911 108.095,25.458 108.135 C 26.084 108.180,26.167 108.233,26.167 108.593 C 26.167 108.916,26.253 109.000,26.583 109.000 C 26.881 109.000,27.000 109.090,27.000 109.316 C 27.000 109.686,27.312 109.833,28.097 109.833 C 28.594 109.833,28.667 109.887,28.667 110.250 C 28.667 110.639,28.722 110.667,29.500 110.667 C 30.278 110.667,30.333 110.694,30.333 111.083 C 30.333 111.417,30.417 111.500,30.750 111.500 C 31.048 111.500,31.167 111.590,31.167 111.816 C 31.167 112.186,31.478 112.333,32.264 112.333 C 32.719 112.333,32.833 112.399,32.833 112.661 C 32.833 112.928,32.987 113.009,33.667 113.099 C 34.310 113.184,34.500 113.277,34.500 113.504 C 34.500 113.892,34.827 114.000,36.002 114.000 C 36.886 114.000,36.982 114.035,37.030 114.375 C 37.076 114.695,37.199 114.757,37.875 114.801 C 38.512 114.842,38.667 114.911,38.667 115.156 C 38.667 115.522,39.108 115.661,40.272 115.664 C 40.963 115.666,41.143 115.726,41.208 115.975 C 41.295 116.307,41.954 116.500,43.001 116.500 C 43.470 116.500,43.648 116.577,43.708 116.808 C 43.807 117.185,44.716 117.333,46.940 117.333 C 48.227 117.333,48.500 117.378,48.500 117.587 C 48.500 118.018,49.268 118.167,51.491 118.167 C 53.488 118.167,53.634 118.189,53.715 118.500 C 53.871 119.096,65.000 118.996,65.000 118.399 C 65.000 118.215,65.364 118.167,66.739 118.167 C 68.588 118.167,69.333 118.000,69.333 117.587 C 69.333 117.378,69.605 117.333,70.875 117.332 C 73.249 117.330,74.167 117.184,74.167 116.810 C 74.167 116.561,74.294 116.500,74.813 116.500 C 75.879 116.500,76.538 116.309,76.625 115.975 C 76.687 115.736,76.865 115.667,77.415 115.667 C 78.580 115.667,79.167 115.495,79.167 115.155 C 79.167 114.911,79.322 114.842,79.958 114.801 C 80.634 114.757,80.758 114.695,80.803 114.375 C 80.849 114.052,80.957 114.000,81.574 114.000 C 82.729 114.000,83.333 113.828,83.333 113.500 C 83.333 113.290,83.517 113.180,84.000 113.103 C 84.400 113.039,84.749 112.864,84.873 112.665 C 84.990 112.478,85.263 112.332,85.498 112.331 C 86.245 112.327,86.667 112.140,86.667 111.814 C 86.667 111.590,86.786 111.500,87.083 111.500 C 87.417 111.500,87.500 111.417,87.500 111.083 C 87.500 110.694,87.556 110.667,88.333 110.667 C 89.111 110.667,89.167 110.639,89.167 110.250 C 89.167 109.887,89.240 109.833,89.736 109.833 C 90.522 109.833,90.833 109.686,90.833 109.316 C 90.833 109.090,90.952 109.000,91.250 109.000 C 91.583 109.000,91.667 108.917,91.667 108.583 C 91.667 108.229,91.744 108.167,92.178 108.167 C 92.811 108.167,93.333 107.900,93.333 107.577 C 93.333 107.428,93.495 107.333,93.750 107.333 C 94.083 107.333,94.167 107.250,94.167 106.917 C 94.167 106.583,94.250 106.500,94.583 106.500 C 94.917 106.500,95.000 106.417,95.000 106.083 C 95.000 105.763,95.087 105.666,95.375 105.664 C 96.036 105.660,96.467 105.477,96.549 105.165 C 96.592 104.998,96.806 104.836,97.022 104.806 C 97.279 104.770,97.435 104.622,97.469 104.385 C 97.501 104.158,97.658 104.001,97.885 103.969 C 98.112 103.936,98.270 103.779,98.302 103.552 C 98.334 103.325,98.491 103.168,98.719 103.135 C 98.949 103.102,99.103 102.946,99.137 102.708 C 99.175 102.437,99.302 102.333,99.595 102.333 C 99.916 102.333,100.000 102.247,100.000 101.917 C 100.000 101.583,100.083 101.500,100.417 101.500 C 100.747 101.500,100.833 101.416,100.833 101.095 C 100.833 100.802,100.937 100.675,101.208 100.637 C 101.446 100.603,101.602 100.449,101.635 100.219 C 101.668 99.991,101.825 99.834,102.052 99.802 C 102.283 99.769,102.436 99.612,102.470 99.375 C 102.503 99.143,102.639 99.000,102.827 99.000 C 103.187 99.000,103.333 98.682,103.333 97.903 C 103.333 97.406,103.387 97.333,103.750 97.333 C 104.083 97.333,104.167 97.250,104.167 96.917 C 104.167 96.583,104.250 96.500,104.583 96.500 C 104.913 96.500,105.000 96.416,105.000 96.095 C 105.000 95.802,105.104 95.675,105.375 95.637 C 105.616 95.602,105.769 95.449,105.803 95.208 C 105.833 95.002,105.966 94.833,106.099 94.833 C 106.373 94.833,106.667 94.181,106.667 93.572 C 106.667 93.251,106.753 93.167,107.083 93.167 C 107.417 93.167,107.500 93.083,107.500 92.750 C 107.500 92.453,107.590 92.333,107.814 92.333 C 108.144 92.333,108.327 91.911,108.331 91.137 C 108.333 90.802,108.427 90.677,108.707 90.637 C 108.917 90.607,109.107 90.443,109.141 90.262 C 109.175 90.086,109.356 89.817,109.544 89.665 C 109.790 89.465,109.906 89.131,109.962 88.458 C 110.029 87.646,110.090 87.514,110.436 87.427 C 110.721 87.355,110.833 87.210,110.833 86.913 C 110.833 86.621,110.924 86.500,111.145 86.500 C 111.471 86.500,111.661 85.846,111.665 84.708 C 111.666 84.289,111.738 84.167,111.982 84.167 C 112.312 84.167,112.500 83.860,112.500 83.320 C 112.500 83.144,112.579 83.000,112.675 83.000 C 112.979 83.000,113.333 81.881,113.333 80.922 C 113.333 80.128,113.377 80.000,113.649 80.000 C 114.030 80.000,114.167 79.688,114.167 78.820 C 114.167 78.373,114.240 78.167,114.399 78.167 C 114.759 78.167,114.868 77.721,114.959 75.875 C 115.032 74.394,115.082 74.167,115.334 74.167 C 115.644 74.167,115.833 73.567,115.833 72.588 C 115.833 72.275,115.964 71.934,116.146 71.769 C 116.415 71.525,116.475 71.121,116.579 68.826 C 116.645 67.363,116.767 66.124,116.850 66.073 C 117.055 65.946,117.041 64.212,116.833 64.083 C 116.547 63.906,116.627 57.982,116.922 57.593 C 117.253 57.155,117.258 55.044,116.929 54.680 C 116.758 54.492,116.657 53.718,116.571 51.963 C 116.470 49.878,116.406 49.466,116.143 49.228 C 115.973 49.074,115.833 48.754,115.831 48.516 C 115.827 47.482,115.627 46.833,115.312 46.833 C 114.959 46.833,114.900 46.500,115.200 46.200 C 115.356 46.044,115.356 45.956,115.200 45.800 C 115.090 45.690,115.000 45.363,115.000 45.073 C 115.000 43.852,114.786 42.956,114.474 42.875 C 114.290 42.827,114.167 42.644,114.167 42.418 C 114.167 41.620,113.958 41.028,113.649 40.947 C 113.391 40.880,113.333 40.708,113.333 40.005 C 113.333 39.053,113.117 38.500,112.744 38.500 C 112.574 38.500,112.499 38.312,112.497 37.875 C 112.495 37.171,112.381 36.941,111.958 36.785 C 111.772 36.716,111.667 36.502,111.667 36.193 C 111.667 35.282,111.458 34.624,111.141 34.542 C 110.951 34.492,110.833 34.310,110.833 34.067 C 110.833 33.786,110.714 33.643,110.417 33.568 C 110.053 33.477,110.000 33.373,110.000 32.744 C 110.000 32.123,109.948 32.016,109.625 31.970 C 109.367 31.933,109.235 31.787,109.203 31.500 C 109.099 30.570,108.990 30.333,108.663 30.333 C 108.421 30.333,108.333 30.221,108.333 29.909 C 108.333 29.676,108.151 29.303,107.929 29.080 C 107.706 28.858,107.500 28.505,107.471 28.296 C 107.437 28.057,107.284 27.898,107.059 27.866 C 106.774 27.825,106.679 27.661,106.588 27.055 C 106.507 26.513,106.385 26.272,106.163 26.214 C 105.992 26.169,105.829 25.972,105.801 25.775 C 105.770 25.554,105.610 25.397,105.385 25.365 C 105.158 25.332,105.001 25.175,104.969 24.948 C 104.936 24.717,104.779 24.564,104.542 24.530 C 104.270 24.492,104.167 24.365,104.167 24.072 C 104.167 23.756,104.079 23.667,103.769 23.667 C 103.425 23.667,103.356 23.565,103.259 22.917 C 103.167 22.307,103.071 22.149,102.740 22.066 C 102.495 22.004,102.333 21.843,102.333 21.660 C 102.333 21.493,102.188 21.310,102.011 21.253 C 101.833 21.197,101.664 20.986,101.636 20.784 C 101.603 20.556,101.447 20.397,101.224 20.365 C 101.005 20.334,100.825 20.155,100.762 19.907 C 100.699 19.653,100.541 19.500,100.342 19.500 C 100.138 19.500,100.004 19.365,99.970 19.125 C 99.936 18.887,99.783 18.731,99.550 18.698 C 99.348 18.669,99.138 18.504,99.083 18.331 C 99.028 18.158,98.855 17.976,98.698 17.927 C 98.542 17.877,98.339 17.667,98.249 17.460 C 98.121 17.169,97.923 17.072,97.375 17.032 C 96.749 16.987,96.667 16.934,96.667 16.574 C 96.667 16.251,96.581 16.167,96.250 16.167 C 95.917 16.167,95.833 16.083,95.833 15.750 C 95.833 15.420,95.749 15.333,95.428 15.333 C 95.135 15.333,95.008 15.230,94.970 14.958 C 94.936 14.721,94.783 14.564,94.552 14.531 C 94.325 14.499,94.168 14.342,94.135 14.115 C 94.102 13.882,93.946 13.730,93.704 13.696 C 93.495 13.667,93.142 13.460,92.920 13.238 C 92.697 13.015,92.329 12.833,92.103 12.833 C 91.801 12.833,91.675 12.732,91.637 12.458 C 91.591 12.138,91.467 12.076,90.792 12.033 C 90.077 11.987,90.000 11.942,90.000 11.574 C 90.000 11.254,89.913 11.167,89.595 11.167 C 89.302 11.167,89.175 11.063,89.137 10.792 C 89.091 10.472,88.967 10.409,88.292 10.366 C 87.577 10.320,87.500 10.275,87.500 9.908 C 87.500 9.587,87.413 9.500,87.095 9.500 C 86.839 9.500,86.651 9.380,86.586 9.176 C 86.512 8.943,86.269 8.819,85.728 8.738 C 85.270 8.669,84.818 8.469,84.578 8.229 C 84.360 8.011,84.000 7.833,83.777 7.833 C 83.523 7.833,83.342 7.718,83.292 7.525 C 83.204 7.191,82.545 7.000,81.479 7.000 C 80.948 7.000,80.833 6.942,80.833 6.672 C 80.833 6.406,80.681 6.325,80.014 6.236 C 79.438 6.160,79.173 6.042,79.120 5.839 C 79.037 5.521,78.255 5.338,76.964 5.335 C 76.358 5.334,76.139 5.259,76.005 5.010 C 75.889 4.792,75.575 4.650,75.041 4.574 C 74.606 4.511,74.098 4.322,73.912 4.153 C 73.656 3.919,73.182 3.818,71.948 3.731 C 71.054 3.668,70.283 3.553,70.235 3.475 C 70.186 3.397,69.791 3.333,69.357 3.333 C 68.922 3.333,68.492 3.259,68.401 3.167 C 68.310 3.076,67.638 2.958,66.909 2.904 C 66.180 2.851,65.433 2.745,65.250 2.670 C 64.118 2.204,54.948 1.954,53.852 2.359 M337.917 46.667 C 337.860 46.759,337.114 46.833,336.254 46.833 C 334.474 46.833,334.167 46.910,334.167 47.351 C 334.167 47.591,334.046 47.667,333.667 47.667 C 333.247 47.667,333.167 47.732,333.167 48.074 C 333.167 48.442,333.090 48.487,332.375 48.533 C 331.699 48.576,331.576 48.638,331.530 48.958 C 331.492 49.230,331.365 49.333,331.072 49.333 C 330.751 49.333,330.667 49.420,330.667 49.750 C 330.667 50.078,330.582 50.167,330.269 50.167 C 330.008 50.167,329.841 50.285,329.782 50.512 C 329.732 50.703,329.536 50.899,329.346 50.948 C 329.122 51.007,329.000 51.174,329.000 51.425 C 329.000 51.698,328.890 51.826,328.625 51.863 C 328.384 51.898,328.231 52.051,328.197 52.292 C 328.163 52.530,328.028 52.667,327.827 52.667 C 327.574 52.667,327.490 52.832,327.401 53.500 C 327.316 54.140,327.223 54.333,326.999 54.333 C 326.619 54.333,326.500 54.954,326.500 56.938 C 326.500 58.372,326.474 58.500,326.177 58.500 C 325.508 58.500,325.511 61.963,326.181 62.381 C 326.452 62.550,326.500 62.781,326.502 63.915 C 326.504 65.758,326.650 66.527,327.016 66.623 C 327.180 66.666,327.338 66.862,327.366 67.059 C 327.398 67.283,327.557 67.437,327.792 67.470 C 328.095 67.513,328.167 67.629,328.167 68.081 C 328.167 68.849,328.315 69.167,328.673 69.167 C 328.861 69.167,328.997 69.309,329.030 69.542 C 329.064 69.779,329.217 69.936,329.448 69.969 C 329.675 70.001,329.832 70.158,329.865 70.385 C 329.897 70.612,330.054 70.770,330.281 70.802 C 330.509 70.834,330.666 70.991,330.698 71.219 C 330.730 71.446,330.888 71.603,331.115 71.635 C 331.342 71.668,331.499 71.825,331.531 72.052 C 331.575 72.359,331.707 72.425,332.365 72.467 C 333.023 72.510,333.154 72.575,333.198 72.884 C 333.242 73.192,333.372 73.258,334.019 73.300 C 334.647 73.341,334.821 73.424,334.973 73.758 L 335.160 74.167 338.901 74.167 C 342.711 74.167,343.167 74.094,343.167 73.488 C 343.167 73.403,343.542 73.333,344.000 73.333 C 344.778 73.333,344.833 73.306,344.833 72.917 C 344.833 72.530,344.891 72.500,345.635 72.500 C 346.566 72.500,346.948 72.269,347.318 71.484 C 347.513 71.068,347.709 70.902,348.052 70.863 C 348.911 70.764,349.372 71.537,348.574 71.737 C 347.976 71.887,348.020 73.217,348.625 73.303 C 348.896 73.342,349.000 73.468,349.000 73.762 L 349.000 74.167 353.083 74.167 C 357.072 74.167,357.167 74.159,357.167 73.829 C 357.167 73.625,357.327 73.431,357.572 73.337 C 357.931 73.201,357.992 73.048,358.093 72.022 C 358.185 71.083,358.267 70.846,358.520 70.780 C 358.769 70.715,358.833 70.541,358.833 69.932 L 358.833 69.167 361.750 69.167 L 364.667 69.167 364.669 70.125 C 364.671 71.582,364.841 72.367,365.173 72.453 C 365.376 72.506,365.493 72.771,365.570 73.350 L 365.679 74.172 370.131 74.128 L 374.583 74.083 374.636 73.625 C 374.668 73.348,374.790 73.167,374.943 73.167 C 375.083 73.167,375.237 73.017,375.285 72.833 C 375.434 72.265,377.167 72.342,377.167 72.917 C 377.167 73.305,377.223 73.333,377.992 73.333 C 378.651 73.333,378.903 73.418,379.235 73.750 L 379.652 74.167 384.534 74.164 C 389.753 74.162,390.103 74.131,390.253 73.657 C 390.326 73.428,390.547 73.338,391.133 73.300 C 391.793 73.258,391.925 73.193,391.969 72.885 C 392.005 72.630,392.155 72.505,392.469 72.468 C 392.782 72.432,392.932 72.307,392.969 72.052 C 393.001 71.825,393.158 71.668,393.385 71.635 C 393.612 71.603,393.770 71.446,393.802 71.219 C 393.834 70.992,393.991 70.834,394.217 70.802 C 394.425 70.772,394.605 70.608,394.638 70.417 C 394.670 70.233,394.859 69.956,395.057 69.801 C 395.735 69.270,395.682 61.000,395.000 61.000 C 394.805 61.000,394.670 60.860,394.637 60.625 C 394.603 60.388,394.449 60.231,394.219 60.198 C 393.991 60.166,393.834 60.009,393.802 59.781 C 393.770 59.556,393.613 59.397,393.391 59.365 C 393.172 59.334,392.991 59.155,392.929 58.907 C 392.846 58.577,392.722 58.500,392.267 58.500 C 391.645 58.500,391.416 58.303,391.245 57.622 C 391.181 57.369,391.007 57.091,390.856 57.003 C 390.641 56.877,390.695 56.842,391.111 56.838 C 391.838 56.831,392.167 56.681,392.167 56.355 C 392.167 56.203,392.335 56.005,392.542 55.915 C 392.831 55.787,392.928 55.589,392.968 55.042 C 393.008 54.484,393.084 54.333,393.325 54.333 C 393.687 54.333,393.833 54.017,393.833 53.236 C 393.833 52.789,393.901 52.667,394.149 52.667 C 394.466 52.667,394.667 52.362,394.667 51.880 C 394.667 51.737,394.789 51.531,394.938 51.421 C 395.455 51.044,395.458 49.538,394.943 49.408 C 394.706 49.349,394.469 49.166,394.417 49.001 C 394.303 48.643,393.854 48.505,392.792 48.502 C 392.114 48.500,392.000 48.452,392.000 48.170 C 392.000 47.948,391.849 47.802,391.542 47.726 C 391.290 47.663,391.004 47.504,390.908 47.373 C 390.720 47.120,390.203 47.032,388.083 46.895 C 387.350 46.848,386.679 46.740,386.592 46.655 C 386.377 46.445,382.880 46.456,382.750 46.667 C 382.693 46.758,382.183 46.834,381.615 46.836 C 380.296 46.839,379.884 46.954,379.781 47.349 C 379.727 47.555,379.551 47.667,379.278 47.667 C 379.032 47.667,378.726 47.834,378.541 48.070 C 378.366 48.291,378.005 48.497,377.737 48.528 C 377.385 48.568,377.236 48.684,377.198 48.948 C 377.166 49.175,377.009 49.332,376.781 49.365 C 376.564 49.396,376.397 49.554,376.368 49.755 C 376.342 49.941,376.154 50.166,375.952 50.255 C 375.671 50.378,375.571 50.583,375.533 51.115 C 375.491 51.687,375.416 51.822,375.116 51.865 C 374.751 51.917,374.750 51.925,374.750 55.917 L 374.750 59.917 375.125 59.970 C 375.384 60.007,375.500 60.137,375.500 60.389 C 375.500 60.606,375.650 60.821,375.871 60.919 C 376.129 61.033,376.285 61.300,376.381 61.792 C 376.457 62.181,376.580 62.500,376.653 62.500 C 376.825 62.500,376.674 63.309,376.480 63.429 C 376.399 63.479,376.333 63.703,376.333 63.927 C 376.333 64.215,376.241 64.333,376.016 64.333 C 375.814 64.333,375.636 64.514,375.525 64.833 C 375.429 65.108,375.284 65.333,375.202 65.333 C 374.910 65.333,374.667 66.200,374.667 67.238 C 374.667 68.348,373.944 69.041,373.711 68.153 C 373.667 67.983,373.489 67.799,373.315 67.744 C 373.125 67.684,373.000 67.490,373.000 67.258 C 373.000 67.035,372.832 66.762,372.603 66.611 C 372.258 66.385,372.196 66.192,372.137 65.150 C 372.080 64.138,372.011 63.910,371.701 63.704 C 371.499 63.569,371.333 63.289,371.333 63.081 C 371.333 62.821,371.209 62.671,370.934 62.603 C 370.559 62.508,370.531 62.417,370.475 61.126 C 370.429 60.049,370.339 59.641,370.058 59.248 C 369.861 58.972,369.674 58.559,369.642 58.331 C 369.609 58.098,369.419 57.845,369.208 57.752 C 368.874 57.605,368.833 57.469,368.833 56.484 C 368.833 55.501,368.788 55.346,368.417 55.067 C 368.101 54.830,368.000 54.601,368.000 54.127 C 368.000 53.569,367.954 53.500,367.583 53.500 C 367.176 53.500,367.167 53.471,367.167 52.267 C 367.167 51.172,367.121 50.991,366.753 50.642 C 366.460 50.365,366.338 50.071,366.336 49.637 C 366.334 49.065,365.999 48.500,365.664 48.500 C 365.584 48.500,365.495 48.144,365.467 47.708 L 365.417 46.917 361.792 46.872 L 358.167 46.827 358.167 47.235 C 358.167 47.532,358.064 47.658,357.792 47.697 C 357.475 47.742,357.409 47.867,357.367 48.505 C 357.329 49.098,357.239 49.296,356.951 49.422 C 356.624 49.566,356.578 49.727,356.534 50.894 C 356.487 52.161,356.290 52.667,355.845 52.667 C 355.747 52.667,355.667 52.935,355.667 53.262 C 355.667 53.844,355.368 54.333,355.012 54.333 C 354.901 54.333,354.833 54.806,354.833 55.583 C 354.833 56.806,354.824 56.833,354.417 56.833 C 354.085 56.833,354.000 56.917,354.000 57.242 C 354.000 57.467,353.813 57.839,353.583 58.068 C 353.213 58.439,353.167 58.623,353.167 59.742 C 353.167 60.973,353.158 61.000,352.750 61.000 C 352.362 61.000,352.333 61.056,352.333 61.822 C 352.333 62.547,352.289 62.650,351.958 62.697 C 351.614 62.746,351.579 62.850,351.534 63.958 C 351.492 65.005,351.444 65.167,351.177 65.167 C 350.813 65.167,350.667 65.482,350.667 66.264 C 350.667 66.880,350.538 66.933,349.530 66.731 C 349.176 66.660,349.003 66.519,348.967 66.273 C 348.936 66.053,348.776 65.897,348.550 65.864 C 348.348 65.836,348.139 65.675,348.086 65.508 C 348.019 65.298,347.756 65.168,347.245 65.091 C 346.670 65.005,346.500 64.909,346.500 64.670 C 346.500 64.463,346.339 64.324,346.017 64.254 C 345.751 64.195,345.499 64.013,345.456 63.849 C 345.256 63.085,342.333 63.154,342.333 63.923 C 342.333 64.198,342.224 64.326,341.958 64.363 C 341.717 64.398,341.564 64.551,341.530 64.792 C 341.495 65.040,341.362 65.167,341.139 65.167 C 340.946 65.167,340.766 65.304,340.718 65.488 C 340.660 65.711,340.427 65.844,339.963 65.923 C 339.505 66.000,339.267 66.136,339.210 66.351 C 339.107 66.745,339.077 66.744,338.661 66.328 C 338.475 66.142,338.100 65.945,337.828 65.891 C 337.491 65.823,337.333 65.692,337.333 65.479 C 337.333 65.277,337.215 65.167,336.996 65.167 C 336.789 65.167,336.597 65.005,336.500 64.750 C 336.403 64.495,336.211 64.333,336.004 64.333 C 335.714 64.333,335.667 64.225,335.667 63.566 C 335.667 62.945,335.587 62.735,335.250 62.470 C 334.632 61.984,334.596 58.390,335.208 58.303 C 335.548 58.255,335.588 58.147,335.632 57.143 L 335.681 56.036 336.443 55.921 C 336.996 55.838,337.228 55.720,337.288 55.487 C 337.335 55.311,337.503 55.167,337.662 55.167 C 337.821 55.167,338.154 54.979,338.401 54.750 C 338.940 54.251,339.101 54.231,339.210 54.649 C 339.267 54.865,339.506 55.000,339.973 55.079 C 340.433 55.156,340.686 55.297,340.754 55.513 C 340.810 55.689,341.003 55.833,341.182 55.833 C 341.377 55.833,341.572 56.001,341.667 56.250 C 341.754 56.479,341.939 56.667,342.079 56.667 C 342.236 56.667,342.333 56.819,342.333 57.066 C 342.333 57.916,345.186 57.910,345.509 57.059 C 345.596 56.831,345.795 56.667,345.985 56.667 C 346.164 56.667,346.356 56.524,346.411 56.350 C 346.467 56.176,346.697 55.987,346.923 55.930 C 347.186 55.864,347.333 55.709,347.333 55.497 C 347.333 55.274,347.446 55.167,347.679 55.167 C 348.169 55.167,349.000 54.283,349.000 53.763 C 349.000 53.444,349.086 53.333,349.333 53.333 C 349.612 53.333,349.667 53.222,349.667 52.651 C 349.667 52.109,349.598 51.951,349.333 51.882 C 349.115 51.825,349.000 51.654,349.000 51.390 C 349.000 50.860,348.295 50.167,347.758 50.167 C 347.444 50.167,347.333 50.079,347.333 49.832 C 347.333 49.366,346.520 48.500,346.083 48.500 C 345.858 48.500,345.648 48.342,345.530 48.083 C 345.398 47.793,345.208 47.667,344.903 47.667 C 344.662 47.667,344.242 47.479,343.970 47.250 C 343.515 46.867,343.341 46.833,341.830 46.833 C 340.914 46.833,340.141 46.760,340.083 46.667 C 340.027 46.575,339.539 46.500,339.000 46.500 C 338.461 46.500,337.973 46.575,337.917 46.667 M134.944 46.944 C 134.883 47.006,134.833 47.676,134.833 48.435 C 134.833 49.193,134.758 49.860,134.667 49.917 C 134.575 49.973,134.500 50.648,134.500 51.417 C 134.500 52.185,134.575 52.860,134.667 52.917 C 134.758 52.973,134.833 53.273,134.833 53.582 C 134.833 54.748,135.053 55.000,136.073 55.000 C 136.818 55.000,137.022 54.938,137.167 54.667 C 137.424 54.187,141.660 54.148,141.677 54.625 C 141.683 54.785,141.681 58.479,141.672 62.833 C 141.663 67.188,141.723 70.976,141.805 71.252 C 141.892 71.544,141.892 71.920,141.806 72.153 C 141.693 72.459,141.734 72.634,141.981 72.901 C 142.159 73.093,142.329 73.438,142.360 73.667 L 142.417 74.083 146.500 74.083 L 150.583 74.083 150.637 73.708 C 150.666 73.502,150.834 73.255,151.010 73.161 C 151.320 72.996,151.332 72.670,151.374 63.703 L 151.417 54.417 153.481 54.370 C 155.395 54.326,155.562 54.347,155.782 54.661 C 156.097 55.111,156.998 55.128,157.113 54.686 C 157.229 54.242,158.297 54.082,158.701 54.447 C 158.982 54.702,159.000 55.288,159.000 64.172 C 159.000 72.762,159.025 73.647,159.276 73.855 C 159.502 74.043,161.259 74.083,169.151 74.083 L 178.750 74.083 178.791 70.250 C 178.813 68.142,178.768 66.318,178.691 66.197 C 178.578 66.022,177.473 65.980,173.275 65.993 L 168.000 66.008 168.000 65.090 L 168.000 64.172 172.542 64.128 L 177.083 64.083 177.136 63.252 C 177.171 62.696,177.295 62.322,177.511 62.121 C 178.024 61.643,177.860 59.000,177.317 59.000 C 177.234 59.000,177.167 58.512,177.167 57.917 L 177.167 56.833 176.678 56.833 C 176.336 56.833,176.157 56.734,176.083 56.500 C 175.981 56.179,175.831 56.167,171.989 56.167 L 168.000 56.167 168.000 55.583 L 168.000 55.000 172.905 55.000 C 177.579 55.000,177.816 54.985,177.911 54.683 C 177.967 54.509,178.197 54.320,178.423 54.263 C 178.827 54.162,178.833 54.134,178.833 52.363 C 178.833 51.225,178.904 50.496,179.026 50.374 C 179.162 50.238,179.167 50.117,179.044 49.965 C 178.948 49.847,178.841 49.174,178.807 48.470 C 178.773 47.765,178.683 47.128,178.609 47.053 C 178.534 46.978,174.091 46.896,168.736 46.871 L 159.000 46.826 159.000 47.329 C 159.000 48.070,158.206 48.073,158.058 47.333 L 157.958 46.833 146.507 46.833 C 140.209 46.833,135.006 46.883,134.944 46.944 M180.500 47.247 C 180.500 47.478,180.430 47.667,180.345 47.667 C 179.733 47.667,179.712 47.939,179.748 55.458 C 179.770 60.130,179.844 62.883,179.955 63.080 C 180.059 63.267,180.073 63.579,179.989 63.870 C 179.880 64.252,179.918 64.409,180.176 64.630 C 180.432 64.849,180.500 65.123,180.500 65.940 C 180.500 67.181,180.604 67.500,181.008 67.500 C 181.249 67.500,181.325 67.651,181.365 68.208 C 181.405 68.755,181.502 68.954,181.792 69.081 C 182.022 69.182,182.167 69.392,182.167 69.623 C 182.167 69.914,182.262 70.000,182.583 70.000 C 182.917 70.000,183.000 70.083,183.000 70.417 C 183.000 70.750,183.083 70.833,183.417 70.833 C 183.750 70.833,183.833 70.917,183.833 71.250 C 183.833 71.583,183.917 71.667,184.250 71.667 C 184.583 71.667,184.667 71.750,184.667 72.083 C 184.667 72.472,184.722 72.500,185.500 72.500 C 186.278 72.500,186.333 72.528,186.333 72.917 C 186.333 73.305,186.390 73.333,187.155 73.333 C 187.880 73.333,187.983 73.377,188.030 73.708 L 188.083 74.083 192.167 74.130 C 196.670 74.182,197.000 74.150,197.000 73.663 C 197.000 73.378,197.114 73.333,197.833 73.333 C 198.606 73.333,198.667 73.304,198.667 72.926 C 198.667 72.558,198.744 72.513,199.458 72.467 C 200.134 72.424,200.258 72.362,200.303 72.042 C 200.342 71.770,200.468 71.667,200.762 71.667 C 201.083 71.667,201.167 71.580,201.167 71.250 C 201.167 70.917,201.250 70.833,201.583 70.833 C 201.913 70.833,202.000 70.749,202.000 70.428 C 202.000 70.135,202.104 70.008,202.375 69.970 C 202.695 69.924,202.757 69.801,202.801 69.125 C 202.847 68.410,202.891 68.333,203.259 68.333 C 203.636 68.333,203.667 68.272,203.667 67.512 C 203.667 66.786,203.711 66.684,204.042 66.637 C 204.391 66.587,204.420 66.490,204.465 65.223 C 204.498 64.282,204.588 63.801,204.756 63.661 C 205.126 63.355,205.119 51.977,204.750 51.607 C 204.435 51.293,204.405 49.156,204.708 48.643 C 204.875 48.360,204.875 48.275,204.708 48.214 C 204.590 48.171,204.500 47.857,204.500 47.486 L 204.500 46.833 200.417 46.833 L 196.333 46.833 196.333 47.223 C 196.333 47.477,196.188 47.679,195.917 47.803 C 195.310 48.079,195.468 52.933,196.108 53.680 C 196.452 54.081,196.419 56.963,196.066 57.352 C 195.864 57.576,195.785 58.088,195.744 59.449 C 195.605 64.024,195.306 65.167,194.247 65.167 C 194.094 65.167,193.931 65.312,193.884 65.491 C 193.837 65.669,193.638 65.838,193.441 65.866 C 193.217 65.898,193.063 66.057,193.030 66.292 C 192.958 66.800,192.000 66.848,192.000 66.344 C 192.000 66.089,191.843 65.997,191.259 65.909 C 190.672 65.821,190.508 65.724,190.468 65.441 C 190.437 65.226,190.277 65.063,190.065 65.033 C 189.760 64.990,189.700 64.836,189.609 63.869 C 189.542 63.145,189.388 62.597,189.169 62.301 C 188.797 61.798,188.739 61.328,189.015 61.052 C 189.145 60.922,189.145 60.840,189.015 60.759 C 188.893 60.684,188.833 59.500,188.833 57.190 C 188.833 54.923,188.896 53.671,189.015 53.552 C 189.145 53.422,189.145 53.340,189.015 53.259 C 188.762 53.103,188.773 49.794,189.026 49.540 C 189.167 49.399,189.170 49.288,189.036 49.126 C 188.935 49.005,188.829 48.458,188.801 47.911 L 188.750 46.917 184.625 46.872 L 180.500 46.828 180.500 47.247 M222.114 46.941 C 222.051 47.004,222.000 47.388,222.000 47.793 C 222.000 48.379,221.934 48.548,221.682 48.614 C 221.345 48.703,221.173 49.125,221.169 49.875 C 221.167 50.174,221.078 50.333,220.913 50.333 C 220.537 50.333,220.333 51.041,220.333 52.344 C 220.333 53.466,220.321 53.500,219.917 53.500 C 219.529 53.500,219.500 53.556,219.500 54.322 C 219.500 55.047,219.456 55.150,219.125 55.197 C 218.781 55.246,218.746 55.350,218.701 56.448 C 218.657 57.538,218.620 57.650,218.285 57.698 C 217.973 57.742,217.909 57.871,217.866 58.542 C 217.825 59.181,217.756 59.333,217.509 59.333 C 217.108 59.333,217.000 59.652,217.000 60.828 C 217.000 61.636,216.948 61.808,216.685 61.877 C 216.465 61.934,216.333 62.176,216.248 62.677 C 216.177 63.096,215.980 63.515,215.774 63.681 C 215.479 63.920,215.411 64.187,215.360 65.303 C 215.303 66.551,215.273 66.646,214.900 66.739 C 214.579 66.820,214.500 66.948,214.500 67.391 C 214.500 67.763,214.365 68.069,214.083 68.333 C 213.744 68.653,213.667 68.883,213.667 69.582 C 213.667 70.293,213.594 70.503,213.244 70.808 C 212.843 71.156,212.823 71.252,212.869 72.629 L 212.917 74.083 216.940 74.128 C 221.570 74.179,221.781 74.139,221.935 73.172 C 221.999 72.776,222.134 72.500,222.265 72.500 C 222.659 72.500,222.833 71.889,222.833 70.511 L 222.833 69.167 225.750 69.167 L 228.667 69.167 228.667 69.977 C 228.667 70.614,228.754 70.875,229.073 71.194 C 229.371 71.493,229.493 71.819,229.531 72.425 C 229.576 73.135,229.636 73.257,229.958 73.303 C 230.232 73.342,230.333 73.468,230.333 73.770 L 230.333 74.183 234.593 74.133 L 238.853 74.083 239.173 73.667 L 239.493 73.250 239.496 73.708 L 239.500 74.167 243.583 74.167 L 247.667 74.167 247.667 69.833 L 247.667 65.500 248.083 65.500 C 248.369 65.500,248.500 65.592,248.501 65.792 C 248.503 66.379,248.855 67.333,249.070 67.333 C 249.192 67.333,249.337 67.558,249.392 67.833 C 249.463 68.191,249.588 68.333,249.829 68.333 C 250.102 68.333,250.167 68.442,250.167 68.903 C 250.167 70.032,250.078 70.000,253.184 70.000 L 256.000 70.000 256.003 69.542 C 256.005 69.273,256.177 68.921,256.420 68.691 C 256.647 68.475,256.833 68.122,256.833 67.907 C 256.833 67.691,257.021 67.328,257.250 67.098 C 257.584 66.764,257.667 66.516,257.667 65.841 C 257.667 65.059,257.696 65.000,258.075 65.000 L 258.484 65.000 258.534 69.325 C 258.571 72.596,258.636 73.703,258.800 73.867 C 258.965 74.032,259.935 74.083,262.883 74.083 L 266.750 74.083 266.803 73.708 C 266.836 73.476,266.972 73.333,267.160 73.333 C 267.328 73.333,267.510 73.215,267.566 73.070 C 267.741 72.612,267.681 47.726,267.503 47.258 L 267.340 46.828 262.547 46.872 C 257.903 46.915,257.753 46.927,257.696 47.250 C 257.663 47.433,257.480 47.706,257.289 47.856 C 257.023 48.065,256.923 48.370,256.867 49.148 C 256.806 49.984,256.740 50.167,256.498 50.167 C 256.148 50.167,256.000 50.489,256.000 51.252 C 256.000 51.704,255.929 51.820,255.625 51.863 C 255.306 51.909,255.242 52.033,255.200 52.691 C 255.162 53.282,255.076 53.485,254.838 53.547 C 254.614 53.606,254.494 53.846,254.411 54.398 C 254.324 54.979,254.223 55.167,254.001 55.167 C 253.689 55.167,253.506 55.609,253.502 56.375 C 253.501 56.627,253.420 56.833,253.321 56.833 C 252.975 56.833,252.667 56.350,252.664 55.804 C 252.661 54.964,252.497 54.522,252.149 54.411 C 251.953 54.349,251.833 54.157,251.833 53.905 C 251.833 53.682,251.753 53.500,251.655 53.500 C 251.258 53.500,251.015 52.994,250.967 52.063 C 250.922 51.192,250.875 51.077,250.542 51.030 C 250.268 50.991,250.167 50.865,250.167 50.564 C 250.167 50.337,249.983 49.968,249.759 49.744 C 249.464 49.449,249.338 49.118,249.301 48.543 C 249.257 47.866,249.195 47.742,248.875 47.697 C 248.604 47.658,248.500 47.532,248.500 47.238 L 248.500 46.833 244.000 46.833 L 239.500 46.833 239.500 47.223 C 239.500 47.482,239.353 47.680,239.065 47.811 L 238.630 48.010 238.691 52.160 C 238.751 56.147,238.768 56.329,239.127 56.815 C 239.616 57.477,239.667 59.373,239.208 59.879 C 238.965 60.148,238.917 60.529,238.917 62.167 C 238.917 63.804,238.965 64.185,239.208 64.454 C 239.686 64.981,239.630 67.592,239.132 67.994 C 238.826 68.242,238.747 68.525,238.658 69.688 C 238.600 70.455,238.540 70.886,238.526 70.644 C 238.509 70.365,238.383 70.175,238.179 70.121 C 237.915 70.053,237.837 69.827,237.742 68.866 C 237.652 67.953,237.562 67.678,237.335 67.619 C 237.135 67.567,237.008 67.302,236.929 66.772 C 236.856 66.285,236.702 65.941,236.512 65.840 C 236.277 65.714,236.185 65.383,236.094 64.341 C 236.005 63.318,235.905 62.952,235.670 62.788 C 235.500 62.669,235.309 62.275,235.244 61.911 C 235.179 61.547,234.993 61.100,234.832 60.917 C 234.666 60.728,234.487 60.151,234.419 59.587 C 234.336 58.893,234.204 58.524,233.983 58.370 C 233.794 58.237,233.667 57.950,233.667 57.656 C 233.667 57.339,233.518 57.036,233.250 56.802 C 232.906 56.503,232.833 56.290,232.833 55.577 C 232.833 54.930,232.728 54.559,232.417 54.099 C 232.188 53.761,232.000 53.387,232.000 53.267 C 232.000 52.820,231.627 52.000,231.423 52.000 C 231.283 52.000,231.182 51.624,231.122 50.878 C 231.051 49.985,230.961 49.709,230.683 49.525 C 230.491 49.397,230.333 49.119,230.333 48.907 C 230.333 48.316,230.036 47.667,229.766 47.667 C 229.632 47.667,229.499 47.498,229.470 47.292 C 229.416 46.915,222.471 46.584,222.114 46.941 M270.167 60.500 L 270.167 74.167 279.667 74.167 L 289.167 74.167 289.167 73.750 C 289.167 73.417,289.250 73.333,289.583 73.333 C 289.985 73.333,290.000 73.294,290.000 72.260 C 290.000 71.669,290.075 71.140,290.167 71.083 C 290.379 70.952,290.385 69.951,290.174 69.741 C 290.086 69.653,289.993 68.944,289.966 68.166 C 289.920 66.851,289.890 66.746,289.550 66.698 C 289.348 66.669,289.133 66.491,289.073 66.301 C 288.941 65.886,287.433 65.954,286.743 66.406 C 286.277 66.711,282.097 66.792,281.917 66.500 C 281.860 66.408,281.598 66.333,281.333 66.333 C 281.069 66.333,280.807 66.408,280.750 66.500 C 280.587 66.763,280.032 66.694,279.862 66.390 C 279.776 66.238,279.454 66.031,279.145 65.932 C 278.338 65.671,278.218 64.833,278.988 64.833 C 279.317 64.833,279.571 64.715,279.705 64.500 C 279.904 64.183,280.094 64.167,283.707 64.167 L 287.500 64.167 287.500 60.537 C 287.500 55.686,287.986 56.154,283.079 56.283 L 279.167 56.386 279.167 55.360 L 279.167 54.333 282.960 54.333 C 286.644 54.333,286.759 54.343,286.974 54.687 C 287.157 54.981,287.306 55.025,287.860 54.951 C 288.986 54.800,289.167 54.505,289.167 52.817 C 289.167 52.012,289.242 51.307,289.333 51.250 C 289.425 51.193,289.500 50.518,289.500 49.750 C 289.500 48.982,289.425 48.307,289.333 48.250 C 289.242 48.193,289.167 47.851,289.167 47.490 L 289.167 46.833 279.667 46.833 L 270.167 46.833 270.167 60.500 M291.743 47.042 C 291.700 47.156,291.683 53.288,291.707 60.667 L 291.750 74.083 295.833 74.083 L 299.917 74.083 299.961 69.958 L 300.006 65.833 300.402 65.833 C 300.685 65.833,300.827 65.952,300.902 66.250 C 300.968 66.514,301.124 66.667,301.327 66.667 C 301.585 66.667,301.658 66.805,301.699 67.375 C 301.738 67.922,301.835 68.121,302.125 68.248 C 302.355 68.349,302.500 68.558,302.500 68.790 C 302.500 69.081,302.595 69.167,302.917 69.167 C 303.280 69.167,303.333 69.240,303.333 69.736 C 303.333 70.522,303.480 70.833,303.851 70.833 C 304.077 70.833,304.167 70.952,304.167 71.250 C 304.167 71.581,304.251 71.667,304.574 71.667 C 304.942 71.667,304.987 71.744,305.033 72.458 C 305.076 73.134,305.138 73.258,305.458 73.303 C 305.730 73.342,305.833 73.468,305.833 73.762 L 305.833 74.167 310.330 74.167 L 314.827 74.167 314.938 73.726 C 314.998 73.483,315.187 73.146,315.357 72.976 C 315.766 72.568,315.748 72.402,315.250 71.969 C 315.021 71.770,314.833 71.475,314.833 71.315 C 314.833 71.154,314.687 70.976,314.509 70.920 C 314.278 70.846,314.153 70.603,314.073 70.075 C 314.004 69.615,313.876 69.333,313.735 69.333 C 313.611 69.333,313.392 69.108,313.250 68.833 C 313.108 68.558,312.881 68.333,312.746 68.333 C 312.603 68.333,312.499 68.177,312.498 67.958 C 312.494 67.297,312.311 66.866,311.999 66.785 C 311.832 66.741,311.670 66.528,311.639 66.311 C 311.602 66.051,311.456 65.899,311.208 65.863 C 310.910 65.821,310.833 65.702,310.831 65.280 C 310.828 64.636,310.688 64.398,310.250 64.289 C 309.935 64.210,309.936 64.204,310.274 64.186 C 310.686 64.164,310.833 63.871,310.833 63.070 C 310.833 62.573,310.887 62.500,311.250 62.500 C 311.580 62.500,311.667 62.416,311.667 62.095 C 311.667 61.802,311.770 61.675,312.042 61.637 C 312.362 61.591,312.424 61.467,312.467 60.792 C 312.508 60.156,312.578 60.000,312.822 60.000 C 313.204 60.000,313.332 59.410,313.339 57.604 C 313.342 56.678,313.421 56.148,313.589 55.926 C 313.897 55.519,313.904 54.932,313.603 54.683 C 313.477 54.578,313.329 54.269,313.274 53.996 C 313.203 53.642,313.079 53.500,312.837 53.500 C 312.557 53.500,312.500 53.392,312.500 52.854 C 312.500 51.808,312.308 51.129,311.989 51.045 C 311.827 51.003,311.650 50.788,311.594 50.568 C 311.532 50.319,311.373 50.167,311.175 50.167 C 310.972 50.167,310.837 50.031,310.803 49.792 C 310.770 49.554,310.616 49.398,310.385 49.365 C 310.158 49.332,310.001 49.175,309.969 48.948 C 309.932 48.690,309.782 48.568,309.458 48.531 C 309.145 48.495,309.000 48.382,309.000 48.173 C 309.000 47.859,308.689 47.667,308.182 47.667 C 308.022 47.667,307.715 47.479,307.500 47.250 L 307.109 46.833 299.466 46.833 C 293.505 46.833,291.805 46.879,291.743 47.042 M316.667 47.247 C 316.667 47.584,316.584 47.667,316.250 47.667 L 315.833 47.667 315.833 60.500 L 315.833 73.333 316.250 73.333 C 316.583 73.333,316.667 73.417,316.667 73.750 L 316.667 74.167 320.333 74.167 L 324.000 74.167 324.000 73.750 C 324.000 73.417,324.083 73.333,324.417 73.333 L 324.833 73.333 324.833 67.354 C 324.833 62.242,324.870 61.344,325.083 61.167 C 325.424 60.884,325.425 59.284,325.085 59.002 C 324.876 58.828,324.831 57.873,324.794 52.856 L 324.750 46.917 320.708 46.872 L 316.667 46.827 316.667 47.247 M301.467 54.533 C 301.622 54.689,301.711 54.689,301.867 54.533 C 302.278 54.122,303.333 54.283,303.333 54.758 C 303.333 54.997,303.516 55.352,303.750 55.569 C 304.297 56.075,304.377 57.667,303.857 57.667 C 303.686 57.667,303.406 57.854,303.234 58.083 C 302.880 58.555,300.617 58.717,300.200 58.300 C 299.821 57.921,299.935 55.056,300.333 54.952 C 300.517 54.904,300.667 54.745,300.667 54.599 C 300.667 54.287,301.179 54.245,301.467 54.533 M385.333 55.050 C 385.471 55.100,385.182 55.146,384.691 55.154 L 383.798 55.167 384.191 54.755 C 384.569 54.360,384.593 54.356,384.833 54.652 C 384.971 54.821,385.196 55.000,385.333 55.050 M389.000 56.102 C 389.000 56.137,388.738 56.167,388.417 56.167 C 388.096 56.167,387.833 56.107,387.833 56.033 C 387.833 55.960,388.096 55.931,388.417 55.968 C 388.738 56.006,389.000 56.066,389.000 56.102 M226.226 60.625 C 226.283 60.969,226.330 61.531,226.331 61.875 L 226.333 62.500 225.417 62.500 C 224.550 62.500,224.500 62.477,224.500 62.083 C 224.500 61.750,224.583 61.667,224.917 61.667 C 225.269 61.667,225.333 61.589,225.333 61.161 C 225.333 60.866,225.437 60.616,225.583 60.560 C 225.721 60.508,225.833 60.360,225.833 60.232 C 225.833 59.737,226.128 60.032,226.226 60.625 M361.500 61.486 C 361.500 62.115,361.484 62.134,361.042 62.016 C 360.312 61.823,360.269 60.833,360.989 60.833 C 361.472 60.833,361.500 60.869,361.500 61.486 M382.750 65.169 C 382.213 65.282,381.947 65.221,382.073 65.016 C 382.117 64.946,382.399 64.929,382.701 64.977 L 383.250 65.065 382.750 65.169 M349.833 69.564 C 349.833 69.855,349.722 69.982,349.417 70.041 C 349.051 70.111,349.000 70.062,349.000 69.644 C 349.000 69.246,349.069 69.167,349.417 69.167 C 349.745 69.167,349.833 69.251,349.833 69.564 M202.934 83.597 C 202.738 84.110,202.822 84.473,203.125 84.415 C 203.285 84.384,204.223 84.353,205.208 84.346 L 207.000 84.333 207.000 83.833 L 207.000 83.333 205.018 83.333 C 203.364 83.333,203.019 83.377,202.934 83.597 M227.944 83.444 C 227.278 84.111,228.132 84.284,231.951 84.255 C 234.481 84.237,234.589 84.211,234.421 83.679 C 234.310 83.331,228.277 83.112,227.944 83.444 M255.167 83.750 C 255.167 84.232,254.937 84.195,258.333 84.248 C 261.484 84.297,261.833 84.245,261.833 83.731 L 261.833 83.333 258.500 83.333 L 255.167 83.333 255.167 83.750 M276.000 84.177 C 276.000 84.696,276.064 84.980,276.167 84.917 C 276.258 84.860,276.334 84.949,276.336 85.115 C 276.338 85.354,276.369 85.369,276.486 85.184 C 276.604 84.997,276.649 85.014,276.714 85.267 C 276.775 85.507,276.799 85.481,276.814 85.158 C 276.845 84.478,277.132 84.333,278.455 84.333 C 279.978 84.333,279.814 83.415,279.869 92.250 L 279.917 99.750 280.375 99.803 L 280.833 99.855 280.833 91.594 L 280.833 83.333 278.417 83.333 L 276.000 83.333 276.000 84.177 M294.266 83.746 C 294.198 84.017,294.044 84.167,293.833 84.167 C 293.624 84.167,293.469 84.316,293.402 84.583 C 293.327 84.882,293.185 85.000,292.899 85.000 C 292.585 85.000,292.500 85.088,292.500 85.417 C 292.500 85.750,292.417 85.833,292.083 85.833 C 291.700 85.833,291.667 85.894,291.667 86.594 C 291.667 87.724,292.553 87.675,292.635 86.542 C 292.675 85.979,292.750 85.833,292.998 85.833 C 293.195 85.833,293.330 85.695,293.363 85.458 C 293.401 85.192,293.547 85.068,293.865 85.032 C 294.178 84.995,294.328 84.870,294.365 84.615 C 294.448 84.031,300.720 84.041,300.803 84.625 C 300.833 84.831,300.955 85.000,301.075 85.000 C 301.194 85.000,301.386 85.112,301.500 85.250 C 301.947 85.788,302.525 85.564,302.468 84.875 C 302.417 84.257,302.407 84.249,301.635 84.200 C 300.977 84.157,300.846 84.092,300.802 83.783 C 300.751 83.422,300.703 83.416,297.561 83.371 L 294.371 83.326 294.266 83.746 M312.500 83.972 C 312.500 84.800,312.591 84.870,313.292 84.577 C 313.765 84.379,314.977 84.333,319.770 84.333 L 325.667 84.333 325.667 83.833 L 325.667 83.333 319.083 83.333 L 312.500 83.333 312.500 83.972 M336.500 83.810 C 336.500 84.853,336.726 85.963,336.827 85.417 C 336.878 85.142,336.994 84.925,337.085 84.936 C 337.176 84.947,337.348 84.815,337.468 84.644 C 337.728 84.273,339.952 84.185,340.300 84.533 C 340.450 84.683,340.500 86.633,340.500 92.283 L 340.500 99.833 341.000 99.833 L 341.500 99.833 341.500 91.583 L 341.500 83.333 339.000 83.333 L 336.500 83.333 336.500 83.810 M357.333 83.750 C 357.333 84.029,357.430 84.173,357.625 84.185 C 361.153 84.409,363.000 84.254,363.000 83.732 L 363.000 83.333 360.167 83.333 L 357.333 83.333 357.333 83.750 M378.833 83.750 C 378.833 84.222,378.616 84.187,381.917 84.239 C 384.453 84.279,384.667 84.240,384.667 83.732 L 384.667 83.333 381.750 83.333 L 378.833 83.333 378.833 83.750 M226.167 84.583 C 226.167 84.917,226.083 85.000,225.750 85.000 C 225.417 85.000,225.333 85.083,225.333 85.417 C 225.333 85.750,225.250 85.833,224.917 85.833 C 224.583 85.833,224.500 85.917,224.500 86.250 C 224.500 86.583,224.417 86.667,224.083 86.667 C 223.717 86.667,223.667 86.738,223.667 87.261 C 223.667 88.046,224.545 88.083,224.635 87.302 C 224.671 86.988,224.796 86.838,225.052 86.802 C 225.279 86.770,225.436 86.613,225.469 86.385 C 225.501 86.158,225.658 86.001,225.885 85.969 C 226.110 85.937,226.270 85.779,226.301 85.558 C 226.338 85.298,226.508 85.171,226.926 85.093 C 227.843 84.921,227.768 84.167,226.833 84.167 C 226.233 84.167,226.167 84.208,226.167 84.583 M235.000 84.563 C 235.000 85.075,235.124 85.161,235.705 85.049 C 236.383 84.920,236.246 84.269,235.526 84.198 C 235.062 84.152,235.000 84.195,235.000 84.563 M253.611 84.278 C 253.349 84.540,253.521 84.965,253.921 85.042 C 254.353 85.124,254.540 84.968,254.619 84.458 C 254.665 84.163,253.868 84.020,253.611 84.278 M262.333 84.573 C 262.333 85.074,262.560 85.230,263.093 85.096 C 263.800 84.918,263.658 84.167,262.917 84.167 C 262.409 84.167,262.333 84.220,262.333 84.573 M355.667 84.583 C 355.667 84.911,355.751 85.000,356.064 85.000 C 356.355 85.000,356.482 84.889,356.541 84.583 C 356.611 84.217,356.562 84.167,356.144 84.167 C 355.746 84.167,355.667 84.236,355.667 84.583 M363.778 84.278 C 363.378 84.678,363.691 85.000,364.481 85.000 C 365.346 85.000,365.492 85.163,365.498 86.137 C 365.500 86.442,365.579 86.512,365.875 86.470 C 366.401 86.395,366.438 85.124,365.917 85.024 C 365.734 84.989,365.419 84.781,365.217 84.563 C 364.866 84.185,364.035 84.020,363.778 84.278 M377.387 84.455 C 377.329 84.617,377.252 84.806,377.214 84.875 C 377.177 84.944,377.405 85.000,377.721 85.000 C 378.187 85.000,378.308 84.928,378.368 84.617 C 378.463 84.119,377.559 83.971,377.387 84.455 M385.293 84.587 C 385.343 84.847,385.537 85.086,385.772 85.175 C 386.120 85.307,386.167 85.432,386.167 86.225 L 386.167 87.124 385.500 87.231 C 385.133 87.289,384.824 87.411,384.813 87.502 C 384.724 88.200,384.758 88.250,385.332 88.279 C 385.996 88.312,386.333 88.099,386.333 87.646 C 386.333 87.445,386.452 87.333,386.663 87.333 C 387.326 87.333,387.379 85.125,386.719 85.031 C 386.491 84.999,386.334 84.842,386.302 84.615 C 386.263 84.342,386.118 84.237,385.730 84.199 C 385.249 84.153,385.216 84.182,385.293 84.587 M236.697 85.452 C 236.735 85.775,236.868 85.931,237.167 86.000 C 237.430 86.061,237.603 86.232,237.637 86.465 C 237.683 86.785,237.847 86.876,238.273 86.819 C 238.332 86.811,238.446 86.905,238.528 87.027 C 238.623 87.169,238.640 87.068,238.574 86.750 C 238.402 85.909,238.355 85.833,238.005 85.833 C 237.755 85.833,237.667 85.724,237.667 85.417 C 237.667 85.063,237.590 85.000,237.156 85.000 C 236.698 85.000,236.650 85.047,236.697 85.452 M251.906 85.401 C 251.850 85.621,251.672 85.837,251.509 85.879 C 250.981 86.017,250.954 86.862,251.480 86.801 C 251.786 86.765,251.933 86.638,251.970 86.375 C 252.003 86.141,252.175 85.962,252.428 85.899 C 252.716 85.827,252.833 85.682,252.833 85.399 C 252.833 84.826,252.050 84.828,251.906 85.401 M264.199 85.708 C 264.262 86.576,264.877 86.846,265.067 86.089 C 265.205 85.539,264.917 85.000,264.485 85.000 C 264.191 85.000,264.154 85.092,264.199 85.708 M354.000 85.482 C 354.000 85.747,353.892 86.006,353.761 86.056 C 353.277 86.242,353.132 86.794,353.591 86.706 C 353.846 86.657,354.000 86.514,354.000 86.325 C 354.000 86.119,354.146 86.005,354.458 85.969 C 355.184 85.886,355.233 85.000,354.511 85.000 C 354.059 85.000,354.000 85.055,354.000 85.482 M376.364 86.290 C 376.419 86.766,376.755 86.937,377.143 86.687 C 377.514 86.448,377.215 85.833,376.728 85.833 C 376.372 85.833,376.319 85.900,376.364 86.290 M276.208 86.120 C 276.094 86.161,276.000 86.306,276.000 86.442 C 276.000 86.653,276.041 86.650,276.270 86.421 C 276.563 86.127,276.538 86.002,276.208 86.120 M301.591 86.197 C 301.550 86.318,301.494 86.604,301.467 86.833 C 301.418 87.236,301.366 87.253,299.917 87.333 C 298.567 87.408,298.417 87.449,298.417 87.743 C 298.417 88.412,301.541 88.550,301.635 87.885 C 301.668 87.658,301.825 87.501,302.052 87.469 C 302.603 87.390,302.593 86.108,302.041 86.030 C 301.834 86.001,301.632 86.076,301.591 86.197 M312.532 86.702 C 312.582 87.381,312.603 87.405,313.189 87.437 C 313.730 87.467,313.786 87.432,313.717 87.110 C 313.434 85.800,312.441 85.458,312.532 86.702 M276.333 86.677 C 276.333 86.743,276.446 86.841,276.583 86.894 C 276.727 86.949,276.833 86.897,276.833 86.773 C 276.833 86.653,276.721 86.556,276.583 86.556 C 276.446 86.556,276.333 86.610,276.333 86.677 M297.049 86.701 C 296.711 87.129,296.861 87.500,297.372 87.500 C 297.801 87.500,297.850 87.448,297.803 87.043 C 297.745 86.546,297.323 86.354,297.049 86.701 M381.333 87.000 C 381.333 87.436,381.393 87.500,381.798 87.500 C 382.194 87.500,382.268 87.427,382.301 87.000 C 382.335 86.547,382.292 86.500,381.836 86.500 C 381.389 86.500,381.333 86.555,381.333 87.000 M336.678 87.292 C 336.672 87.681,336.695 88.000,336.731 88.000 C 336.872 88.000,336.934 87.206,336.816 86.905 C 336.727 86.677,336.687 86.791,336.678 87.292 M263.302 87.750 C 263.231 88.354,263.301 88.405,263.958 88.228 C 264.579 88.062,264.489 87.167,263.852 87.167 C 263.425 87.167,263.362 87.234,263.302 87.750 M315.417 87.331 L 313.917 87.437 315.292 87.469 L 316.667 87.500 316.667 93.667 L 316.667 99.833 317.169 99.833 L 317.671 99.833 317.627 93.542 C 317.584 87.381,317.576 87.250,317.250 87.237 C 317.067 87.230,316.242 87.272,315.417 87.331 M364.628 87.571 C 364.531 88.080,364.603 88.167,365.122 88.167 C 365.460 88.167,365.514 88.096,365.469 87.708 C 365.396 87.073,364.744 86.966,364.628 87.571 M228.932 87.476 C 228.877 87.564,228.878 87.756,228.934 87.902 C 229.039 88.175,228.895 88.229,228.208 88.173 C 227.898 88.148,227.833 88.227,227.833 88.632 C 227.833 89.258,228.549 89.326,228.637 88.708 C 228.666 88.502,228.703 88.331,228.720 88.327 C 228.736 88.324,229.050 88.278,229.417 88.225 C 230.076 88.131,230.377 87.906,230.276 87.583 C 230.207 87.362,229.059 87.270,228.932 87.476 M232.833 87.747 C 232.833 88.049,232.946 88.188,233.250 88.265 C 233.511 88.330,233.667 88.487,233.667 88.685 C 233.667 88.908,233.786 89.000,234.074 89.000 C 234.442 89.000,234.487 89.077,234.533 89.792 C 234.576 90.467,234.638 90.591,234.958 90.637 C 235.495 90.713,235.535 89.086,235.000 88.917 C 234.817 88.858,234.667 88.702,234.667 88.569 C 234.667 88.435,234.479 88.241,234.250 88.136 C 234.021 88.032,233.833 87.809,233.833 87.640 C 233.833 87.410,233.708 87.333,233.333 87.333 C 232.912 87.333,232.833 87.399,232.833 87.747 M255.833 87.587 C 255.833 87.727,255.646 87.913,255.417 88.000 C 255.153 88.100,255.000 88.288,255.000 88.511 C 255.000 88.724,254.868 88.899,254.667 88.952 C 254.109 89.097,254.177 90.667,254.741 90.667 C 255.109 90.667,255.153 90.590,255.199 89.875 C 255.243 89.199,255.305 89.076,255.625 89.030 C 255.857 88.997,256.000 88.861,256.000 88.673 C 256.000 88.488,256.163 88.329,256.417 88.265 C 257.076 88.100,257.007 87.333,256.333 87.333 C 255.996 87.333,255.833 87.416,255.833 87.587 M260.167 87.732 C 260.167 88.139,260.441 88.333,261.014 88.333 C 261.258 88.333,261.333 88.215,261.333 87.833 C 261.333 87.373,261.287 87.333,260.750 87.333 C 260.246 87.333,260.167 87.387,260.167 87.732 M295.743 88.292 C 295.757 89.207,295.779 89.252,296.212 89.303 C 296.532 89.340,296.667 89.451,296.667 89.678 C 296.667 89.953,296.787 90.000,297.500 90.000 C 298.278 90.000,298.333 89.972,298.333 89.583 C 298.333 89.194,298.278 89.167,297.500 89.167 C 296.729 89.167,296.667 89.137,296.667 88.762 C 296.667 88.474,296.558 88.336,296.292 88.284 L 295.917 88.212 296.292 88.189 C 296.909 88.152,296.819 87.333,296.198 87.333 C 295.736 87.333,295.729 87.349,295.743 88.292 M320.667 93.583 C 320.667 99.937,320.717 100.441,321.264 99.542 C 321.546 99.077,321.581 87.654,321.301 87.476 C 320.673 87.078,320.667 87.142,320.667 93.583 M322.542 87.455 C 322.885 87.491,323.448 87.491,323.792 87.455 C 324.135 87.419,323.854 87.389,323.167 87.389 C 322.479 87.389,322.198 87.419,322.542 87.455 M357.833 87.655 C 357.833 87.833,357.683 88.025,357.500 88.083 C 357.317 88.142,357.167 88.333,357.167 88.508 C 357.167 88.709,357.013 88.866,356.750 88.932 C 356.125 89.089,356.110 90.667,356.734 90.667 C 357.089 90.667,357.149 90.571,357.250 89.833 C 357.342 89.165,357.427 89.000,357.682 89.000 C 357.885 89.000,358.000 88.884,358.000 88.678 C 358.000 88.471,358.134 88.337,358.375 88.303 C 359.028 88.210,359.001 87.333,358.344 87.333 C 357.950 87.333,357.833 87.407,357.833 87.655 M361.500 87.750 C 361.500 87.979,361.594 88.175,361.708 88.186 C 361.823 88.196,362.109 88.228,362.344 88.257 C 362.731 88.304,362.765 88.262,362.700 87.821 C 362.600 87.135,361.500 87.070,361.500 87.750 M382.959 87.750 C 383.003 87.979,383.124 88.177,383.228 88.190 C 384.428 88.341,384.500 88.320,384.500 87.819 C 384.500 87.349,384.474 87.333,383.690 87.333 C 382.915 87.333,382.883 87.352,382.959 87.750 M238.532 88.208 C 238.573 88.775,238.647 88.917,238.900 88.917 C 239.074 88.918,239.282 89.068,239.362 89.251 C 239.462 89.481,239.480 89.378,239.422 88.917 C 239.375 88.550,239.336 88.081,239.335 87.875 C 239.334 87.584,239.237 87.500,238.907 87.500 C 238.509 87.500,238.484 87.546,238.532 88.208 M250.278 87.611 C 249.916 87.972,250.174 88.855,250.625 88.803 C 251.280 88.727,251.433 87.500,250.788 87.500 C 250.568 87.500,250.339 87.550,250.278 87.611 M352.365 88.193 C 352.436 89.151,353.072 89.309,353.240 88.410 C 353.375 87.693,353.267 87.500,352.731 87.500 C 352.345 87.500,352.318 87.551,352.365 88.193 M380.297 88.662 C 380.347 89.003,380.475 89.163,380.726 89.199 C 380.949 89.231,381.103 89.390,381.137 89.625 C 381.184 89.962,381.283 90.000,382.107 90.000 C 383.406 90.000,383.423 89.282,382.125 89.199 C 381.478 89.158,381.333 89.091,381.333 88.834 C 381.333 88.480,381.262 88.422,380.654 88.277 C 380.258 88.183,380.231 88.212,380.297 88.662 M222.846 89.875 C 222.854 90.723,222.897 91.323,222.944 91.208 C 222.990 91.094,223.162 91.000,223.326 91.000 C 223.646 91.000,223.833 90.412,223.833 89.409 C 223.833 88.607,223.681 88.333,223.232 88.333 C 222.839 88.333,222.834 88.356,222.846 89.875 M336.872 89.333 C 336.872 89.654,336.906 89.785,336.948 89.625 C 336.990 89.465,336.990 89.202,336.948 89.042 C 336.906 88.881,336.872 89.013,336.872 89.333 M291.730 90.563 C 291.748 91.314,291.795 91.423,292.125 91.470 C 292.396 91.508,292.500 91.635,292.500 91.928 C 292.500 92.246,292.587 92.333,292.905 92.333 C 293.198 92.333,293.325 92.437,293.363 92.708 C 293.442 93.264,294.890 93.274,294.969 92.719 C 295.013 92.406,294.931 92.347,294.389 92.302 C 293.914 92.263,293.707 92.149,293.555 91.840 C 293.443 91.615,293.197 91.374,293.009 91.304 C 292.777 91.218,292.666 91.028,292.664 90.714 C 292.661 90.135,292.515 89.912,292.063 89.798 C 291.736 89.716,291.712 89.772,291.730 90.563 M226.905 90.054 C 226.590 90.875,226.925 93.562,227.357 93.677 L 227.797 93.795 227.823 91.814 L 227.849 89.833 227.419 89.833 C 227.183 89.833,226.952 89.932,226.905 90.054 M239.333 91.841 L 239.333 93.682 239.745 93.383 C 240.389 92.914,240.393 90.000,239.750 90.000 L 239.333 90.000 239.333 91.841 M249.415 90.708 C 249.200 92.153,249.364 93.083,249.833 93.083 C 250.286 93.083,250.493 91.829,250.253 90.542 C 250.094 89.690,249.550 89.798,249.415 90.708 M299.000 90.399 C 299.000 90.777,299.072 90.820,299.792 90.866 C 300.467 90.909,300.591 90.972,300.637 91.291 C 300.669 91.522,300.842 91.704,301.085 91.765 C 301.322 91.825,301.501 92.009,301.532 92.224 C 301.623 92.864,302.500 92.822,302.500 92.178 C 302.500 91.744,302.437 91.667,302.083 91.667 C 301.750 91.667,301.667 91.583,301.667 91.250 C 301.667 90.920,301.583 90.833,301.262 90.833 C 300.968 90.833,300.842 90.730,300.803 90.458 C 300.717 89.849,299.000 89.793,299.000 90.399 M383.500 90.417 C 383.500 90.782,383.572 90.833,384.083 90.833 C 384.594 90.833,384.667 90.782,384.667 90.417 C 384.667 90.052,384.594 90.000,384.083 90.000 C 383.572 90.000,383.500 90.052,383.500 90.417 M276.068 93.167 C 276.068 94.679,276.093 95.298,276.124 94.542 C 276.155 93.785,276.155 92.548,276.124 91.792 C 276.093 91.035,276.068 91.654,276.068 93.167 M376.333 90.989 C 376.333 91.423,376.396 91.500,376.750 91.500 C 377.083 91.500,377.167 91.583,377.167 91.917 C 377.167 92.250,377.250 92.333,377.583 92.333 C 377.917 92.333,378.000 92.417,378.000 92.750 C 378.000 93.125,378.067 93.167,378.667 93.167 C 379.623 93.167,379.673 92.412,378.728 92.235 C 378.340 92.162,378.095 92.011,378.042 91.811 C 377.998 91.640,377.825 91.500,377.658 91.500 C 377.452 91.500,377.339 91.354,377.303 91.042 C 377.219 90.316,376.333 90.267,376.333 90.989 M321.287 92.039 C 321.250 92.338,321.219 92.133,321.218 91.583 C 321.217 91.033,321.248 90.788,321.286 91.039 C 321.324 91.289,321.325 91.739,321.287 92.039 M257.781 90.941 C 257.404 91.318,257.669 94.000,258.083 94.000 C 258.417 94.000,258.500 94.083,258.500 94.417 C 258.500 94.806,258.556 94.833,259.333 94.833 C 260.148 94.833,260.167 94.844,260.167 95.333 C 260.167 95.725,260.093 95.833,259.828 95.833 C 259.414 95.833,259.198 96.310,259.517 96.519 C 259.645 96.602,260.050 96.651,260.417 96.627 L 261.083 96.583 261.133 95.629 C 261.202 94.321,261.002 94.001,260.119 93.998 C 258.784 93.993,258.667 93.905,258.667 92.903 C 258.667 91.727,258.804 91.667,261.457 91.667 C 264.419 91.667,264.198 91.346,264.135 95.547 C 264.090 98.529,264.117 99.000,264.333 98.998 C 265.062 98.990,265.083 98.872,265.083 94.798 L 265.083 90.917 261.489 90.872 C 259.513 90.847,257.844 90.878,257.781 90.941 M351.500 91.800 C 351.500 92.750,351.688 93.167,352.117 93.167 C 352.274 93.167,352.333 92.846,352.333 92.000 C 352.333 90.867,352.321 90.833,351.917 90.833 C 351.520 90.833,351.500 90.880,351.500 91.800 M385.167 91.254 C 385.167 91.588,385.270 91.696,385.667 91.775 C 386.102 91.862,386.167 91.946,386.167 92.432 C 386.167 93.025,386.593 93.418,386.979 93.180 C 387.362 92.943,387.146 91.759,386.708 91.697 C 386.437 91.658,386.333 91.532,386.333 91.238 C 386.333 90.887,386.257 90.833,385.750 90.833 C 385.237 90.833,385.167 90.884,385.167 91.254 M276.388 93.250 C 276.389 93.892,276.419 94.134,276.455 93.788 C 276.491 93.442,276.490 92.917,276.454 92.621 C 276.417 92.325,276.387 92.608,276.388 93.250 M222.833 93.690 C 222.833 94.790,222.849 94.833,223.239 94.833 C 224.035 94.833,224.039 92.777,223.242 92.624 C 222.840 92.548,222.833 92.565,222.833 93.690 M296.208 93.118 C 295.411 93.270,295.722 94.000,296.583 94.000 C 297.272 94.000,297.333 93.966,297.333 93.583 C 297.333 93.354,297.264 93.167,297.180 93.167 C 297.096 93.167,296.927 93.140,296.805 93.107 C 296.683 93.074,296.415 93.079,296.208 93.118 M380.458 93.134 C 379.661 93.185,379.583 93.254,379.768 93.736 C 379.960 94.237,381.838 94.104,381.796 93.593 C 381.758 93.129,381.565 93.063,380.458 93.134 M234.875 93.284 C 234.554 93.346,234.500 93.462,234.500 94.083 C 234.500 94.710,234.448 94.817,234.125 94.863 C 233.497 94.953,233.484 95.876,234.113 95.804 C 234.513 95.758,234.583 95.675,234.583 95.250 C 234.583 94.858,234.665 94.738,234.958 94.697 C 235.283 94.651,235.333 94.544,235.333 93.905 C 235.333 93.499,235.315 93.177,235.292 93.189 C 235.269 93.202,235.081 93.245,234.875 93.284 M254.264 93.588 C 254.098 94.248,254.291 94.667,254.761 94.667 C 255.123 94.667,255.167 94.595,255.167 94.000 C 255.167 93.633,255.098 93.333,255.014 93.333 C 254.929 93.333,254.751 93.291,254.618 93.240 C 254.455 93.178,254.338 93.292,254.264 93.588 M356.426 93.296 C 356.090 93.632,356.355 94.465,356.821 94.534 C 357.262 94.598,357.304 94.564,357.257 94.178 C 357.228 93.942,357.196 93.665,357.186 93.561 C 357.165 93.354,356.575 93.147,356.426 93.296 M302.440 94.100 C 302.293 95.172,302.449 95.698,302.895 95.634 C 303.529 95.544,303.488 93.333,302.853 93.333 C 302.614 93.333,302.522 93.504,302.440 94.100 M297.792 93.949 C 297.296 94.077,297.416 94.801,297.943 94.864 C 298.502 94.930,298.603 95.433,298.111 95.697 C 297.912 95.803,297.712 95.877,297.667 95.861 C 297.621 95.846,297.583 96.002,297.583 96.208 C 297.583 96.494,297.693 96.596,298.042 96.636 C 298.468 96.685,298.500 96.646,298.500 96.079 C 298.500 95.609,298.577 95.449,298.833 95.382 C 299.257 95.271,299.266 94.898,298.847 94.789 C 298.672 94.743,298.503 94.534,298.472 94.324 C 298.413 93.916,298.256 93.830,297.792 93.949 M382.458 93.949 C 381.926 94.086,382.078 94.866,382.625 94.803 C 382.984 94.761,383.083 94.663,383.083 94.347 C 383.083 93.921,382.934 93.827,382.458 93.949 M227.731 94.240 C 227.565 94.672,227.746 95.082,228.127 95.137 C 228.361 95.170,228.500 95.306,228.500 95.500 C 228.500 95.695,228.640 95.830,228.875 95.863 C 229.113 95.897,229.269 96.051,229.302 96.283 C 229.390 96.902,233.173 96.783,233.340 96.156 C 233.473 95.658,232.751 95.516,231.673 95.829 C 231.293 95.940,231.041 95.941,230.932 95.832 C 230.841 95.741,230.487 95.667,230.145 95.667 C 229.669 95.667,229.498 95.588,229.417 95.333 C 229.358 95.150,229.166 95.000,228.989 95.000 C 228.780 95.000,228.667 94.885,228.667 94.673 C 228.667 94.492,228.522 94.267,228.344 94.173 C 227.920 93.945,227.840 93.954,227.731 94.240 M250.169 94.821 C 250.174 95.633,250.401 96.332,250.688 96.423 C 250.880 96.484,251.000 96.678,251.000 96.928 C 251.000 97.249,251.086 97.333,251.417 97.333 C 251.750 97.333,251.833 97.417,251.833 97.750 C 251.833 98.083,251.917 98.167,252.250 98.167 C 252.583 98.167,252.667 98.250,252.667 98.583 C 252.667 99.122,253.574 99.206,253.711 98.681 C 253.810 98.303,253.553 98.000,253.133 98.000 C 252.945 98.000,252.833 97.877,252.833 97.670 C 252.833 97.457,252.686 97.303,252.417 97.235 C 252.122 97.161,252.000 97.017,252.000 96.743 C 252.000 96.444,251.895 96.343,251.542 96.303 C 251.107 96.253,251.086 96.211,251.134 95.479 C 251.183 94.732,251.168 94.705,250.676 94.632 C 250.291 94.576,250.167 94.622,250.169 94.821 M238.500 95.500 C 238.500 96.278,238.472 96.333,238.083 96.333 C 237.731 96.333,237.667 96.411,237.667 96.833 C 237.667 97.256,237.602 97.333,237.250 97.333 C 236.944 97.333,236.833 97.422,236.833 97.667 C 236.833 97.892,236.722 98.000,236.491 98.000 C 236.261 98.000,236.092 98.164,235.975 98.500 C 235.817 98.953,235.732 99.000,235.067 99.000 C 234.391 99.000,234.333 99.034,234.333 99.426 C 234.333 100.037,235.883 99.989,235.970 99.375 C 236.008 99.104,236.135 99.000,236.428 99.000 C 236.651 99.000,236.843 98.925,236.854 98.833 C 236.866 98.742,236.884 98.576,236.896 98.466 C 236.907 98.355,237.104 98.221,237.333 98.167 C 237.601 98.103,237.749 97.953,237.750 97.743 C 237.750 97.536,237.882 97.398,238.109 97.365 C 238.328 97.334,238.509 97.155,238.571 96.907 C 238.636 96.647,238.792 96.500,239.003 96.500 C 239.292 96.500,239.333 96.386,239.333 95.583 C 239.333 94.717,239.311 94.667,238.917 94.667 C 238.528 94.667,238.500 94.722,238.500 95.500 M352.333 95.566 C 352.333 96.451,352.355 96.500,352.750 96.500 C 353.144 96.500,353.242 96.643,353.179 97.125 C 353.164 97.244,353.334 97.333,353.576 97.333 C 354.155 97.333,354.199 96.552,353.625 96.470 C 353.305 96.424,353.243 96.301,353.199 95.625 C 353.171 95.190,353.084 94.833,353.004 94.833 C 352.925 94.833,352.742 94.788,352.597 94.732 C 352.376 94.647,352.333 94.782,352.333 95.566 M255.118 94.937 C 254.745 95.310,255.010 95.833,255.572 95.833 C 256.038 95.833,256.153 95.903,256.197 96.208 C 256.276 96.764,257.557 96.769,257.636 96.214 C 257.693 95.811,257.258 95.613,256.512 95.702 C 256.199 95.739,256.084 95.655,256.005 95.333 C 255.906 94.928,255.368 94.688,255.118 94.937 M292.333 94.956 C 291.874 95.042,291.673 95.267,291.669 95.704 C 291.667 95.963,291.822 95.981,293.250 95.887 L 294.833 95.783 294.833 96.225 C 294.833 96.634,294.886 96.666,295.542 96.664 C 296.368 96.661,296.754 96.467,296.621 96.121 C 296.520 95.858,295.436 95.583,295.164 95.752 C 295.073 95.808,295.000 95.669,295.000 95.441 C 295.000 94.926,293.738 94.697,292.333 94.956 M357.278 94.944 C 356.910 95.312,357.179 95.857,357.701 95.804 C 358.154 95.758,358.249 95.813,358.332 96.167 C 358.490 96.842,359.714 96.891,359.637 96.219 C 359.589 95.796,359.521 95.750,358.947 95.750 C 358.482 95.750,358.261 95.660,358.128 95.417 C 357.850 94.910,357.505 94.718,357.278 94.944 M362.625 94.945 C 362.465 94.989,362.333 95.169,362.333 95.346 C 362.333 95.605,362.213 95.667,361.708 95.669 C 360.935 95.672,360.616 95.862,360.694 96.270 C 360.793 96.782,362.396 96.727,362.470 96.208 C 362.520 95.854,362.598 95.833,363.918 95.833 C 365.416 95.833,365.958 95.387,364.946 94.988 C 364.775 94.921,362.846 94.885,362.625 94.945 M376.542 94.940 C 376.427 94.988,376.333 95.173,376.333 95.351 C 376.333 95.542,376.164 95.739,375.921 95.832 C 375.257 96.084,375.352 98.890,376.027 98.968 C 376.561 99.030,376.760 98.602,376.508 97.937 C 375.976 96.537,376.571 95.841,378.303 95.835 C 378.807 95.833,378.851 95.793,378.803 95.375 C 378.750 94.920,377.268 94.635,376.542 94.940 M207.000 96.167 L 207.000 96.667 209.816 96.667 C 213.070 96.667,212.833 96.521,212.833 98.525 C 212.833 99.810,212.846 99.855,213.208 99.803 C 213.833 99.715,213.877 96.756,213.256 96.600 C 212.993 96.534,212.833 96.377,212.833 96.183 C 212.833 95.738,212.409 95.672,209.542 95.669 L 207.000 95.667 207.000 96.167 M223.667 96.083 C 223.667 96.417,223.750 96.500,224.083 96.500 C 224.417 96.500,224.500 96.417,224.500 96.083 C 224.500 95.750,224.417 95.667,224.083 95.667 C 223.750 95.667,223.667 95.750,223.667 96.083 M379.333 96.071 C 379.333 96.600,379.555 96.725,380.260 96.592 C 380.808 96.490,380.821 96.470,380.587 96.112 C 380.219 95.551,379.333 95.522,379.333 96.071 M381.930 96.013 C 381.547 96.394,381.571 96.423,382.375 96.569 C 382.976 96.678,383.000 96.664,383.000 96.211 C 383.000 95.629,382.422 95.522,381.930 96.013 M386.231 96.407 C 386.050 96.879,386.243 97.250,386.669 97.250 C 387.015 97.250,387.092 97.160,387.136 96.708 C 387.192 96.122,386.437 95.870,386.231 96.407 M290.951 96.604 C 290.559 96.996,290.934 98.810,291.433 98.936 C 292.079 99.098,292.554 98.459,292.067 98.083 C 291.948 97.992,291.828 97.617,291.800 97.250 C 291.751 96.600,291.299 96.256,290.951 96.604 M365.441 96.866 C 365.384 97.077,365.337 97.414,365.336 97.613 C 365.334 97.863,365.215 97.994,364.958 98.030 C 364.690 98.068,364.568 98.213,364.531 98.542 C 364.482 98.965,364.421 99.000,363.739 99.000 C 363.062 99.000,363.000 99.035,363.000 99.417 C 363.000 99.780,363.073 99.833,363.570 99.833 C 364.355 99.833,364.667 99.686,364.667 99.316 C 364.667 99.090,364.786 99.000,365.083 99.000 C 365.417 99.000,365.500 98.917,365.500 98.583 C 365.500 98.248,365.583 98.167,365.926 98.167 C 366.330 98.167,366.349 98.126,366.301 97.375 C 366.242 96.463,365.644 96.109,365.441 96.866 M301.556 97.346 C 301.492 97.665,301.312 97.913,301.083 98.000 C 300.879 98.078,300.674 98.285,300.628 98.462 C 300.577 98.658,300.342 98.823,300.022 98.887 C 299.149 99.062,299.267 99.833,300.167 99.833 C 300.767 99.833,300.833 99.792,300.833 99.417 C 300.833 99.083,300.917 99.000,301.250 99.000 C 301.583 99.000,301.667 98.917,301.667 98.583 C 301.667 98.250,301.750 98.167,302.083 98.167 C 302.458 98.167,302.500 98.100,302.500 97.500 C 302.500 96.607,301.729 96.481,301.556 97.346 M224.500 97.656 C 224.500 98.086,224.564 98.167,224.905 98.167 C 225.198 98.167,225.325 98.270,225.363 98.542 C 225.446 99.122,226.333 99.181,226.333 98.606 C 226.333 98.304,226.232 98.175,225.965 98.137 C 225.732 98.103,225.561 97.930,225.500 97.667 C 225.342 96.984,224.500 96.975,224.500 97.656 M385.802 97.952 C 385.495 97.999,385.338 98.135,385.302 98.385 C 385.262 98.664,385.083 98.787,384.542 98.907 C 383.958 99.036,383.833 99.132,383.833 99.449 C 383.833 100.055,385.279 100.026,385.432 99.417 C 385.507 99.118,385.649 99.000,385.935 99.000 C 386.279 99.000,386.333 98.921,386.333 98.417 C 386.333 98.096,386.315 97.845,386.292 97.858 C 386.269 97.872,386.048 97.914,385.802 97.952 M336.570 99.258 C 336.564 99.565,336.622 99.778,336.697 99.731 C 336.772 99.685,336.833 99.466,336.833 99.245 C 336.833 98.934,336.899 98.867,337.125 98.948 C 337.285 99.006,337.371 99.001,337.314 98.938 C 336.971 98.552,336.579 98.721,336.570 99.258 M227.111 98.944 C 226.711 99.344,227.017 99.833,227.667 99.833 C 228.259 99.833,228.333 99.789,228.333 99.434 C 228.333 98.935,227.468 98.588,227.111 98.944 M254.698 98.964 C 254.065 99.066,254.273 99.736,254.958 99.802 C 255.437 99.848,255.500 99.807,255.500 99.445 C 255.500 98.997,255.287 98.869,254.698 98.964 M262.309 98.941 C 261.553 99.152,261.852 99.833,262.701 99.833 C 263.498 99.833,263.521 99.820,263.469 99.375 C 263.416 98.909,262.993 98.751,262.309 98.941 M292.560 99.083 C 292.371 99.577,292.633 99.833,293.328 99.833 C 293.925 99.833,294.000 99.789,294.000 99.436 C 294.000 98.866,292.760 98.562,292.560 99.083 M355.778 98.944 C 355.378 99.344,355.684 99.833,356.333 99.833 C 356.925 99.833,357.000 99.789,357.000 99.434 C 357.000 98.935,356.135 98.588,355.778 98.944 M377.375 98.944 C 376.812 99.171,377.154 99.833,377.833 99.833 C 378.425 99.833,378.500 99.789,378.500 99.434 C 378.500 98.926,377.980 98.699,377.375 98.944 M230.115 99.779 C 229.575 99.843,229.487 99.909,229.531 100.219 C 229.608 100.753,232.390 100.861,233.016 100.354 C 233.236 100.175,233.378 99.989,233.330 99.941 C 233.200 99.811,230.845 99.692,230.115 99.779 M257.448 99.789 C 256.906 99.845,256.821 99.908,256.865 100.219 C 256.944 100.777,260.887 100.790,260.967 100.233 C 261.037 99.743,259.614 99.564,257.448 99.789 M295.625 99.788 C 294.989 99.855,294.921 99.934,295.101 100.403 C 295.293 100.904,298.333 100.780,298.333 100.271 C 298.333 99.709,297.612 99.580,295.625 99.788 M358.708 99.787 C 358.264 99.842,358.167 99.927,358.167 100.261 C 358.167 100.668,361.027 100.902,361.903 100.566 C 363.243 100.051,360.995 99.503,358.708 99.787 M380.115 99.787 C 379.745 99.843,379.658 99.934,379.698 100.220 C 379.777 100.774,382.888 100.785,382.967 100.232 C 383.035 99.755,381.708 99.548,380.115 99.787 " stroke="none" fill="#1a3d82" fill-rule="evenodd"></path></g></svg>